<svg width="563" height="657" viewBox="0 0 563 657" fill="none" xmlns="http://www.w3.org/2000/svg">
<rect x="97" y="333" width="391" height="256" fill="#FDD674"/>
<path d="M13.5002 341.935C21.6227 353.505 84.04 367.415 114.233 372.924C120.668 388.174 193.811 444.87 271.606 451.689C515.958 473.108 552.856 210.793 484.527 96.9637C475.533 69.8487 484.177 44.8117 492.808 17.3951C449.628 7.99285 414.638 40.8 402.813 54.3822C384.67 75.2202 378.933 108.414 385.317 134.732C436.936 222.673 400.688 345.158 274.313 339.069C109.214 303.119 167.742 127.183 246.126 104.423C241.078 90.9512 226.542 52.6311 194.149 25.4588C163.164 5.50222 121.692 -1.80361 101.478 1.42961C95.757 13.8553 83.0248 57.8296 104.667 99.1886C71.2995 137.092 50.0981 237.392 63.507 276C45.4725 292.846 5.3777 330.366 13.5002 341.935Z" fill="#FDD674"/>
<path d="M53.0663 252.984C47.4756 265.994 73.844 314.736 85.0735 343.292C75.2499 360.925 60.3381 460.507 95.5686 530.185C196.643 730.089 408.472 657.942 490.978 553.899C413.293 594.73 339.321 562.857 312.045 541.816C268.303 546.636 223.26 527.146 193.141 472.994C136.71 313.775 317.792 270.551 378.583 325.104C387.42 313.7 412.464 281.112 418.567 239.245C419.254 202.386 403.606 163.302 390.18 147.841C376.553 149.546 332.294 161.96 308.406 202.19C258.44 193.871 181.769 219.294 155.886 251.076C131.987 244.658 58.6569 239.974 53.0663 252.984Z" fill="url(#paint0_linear_386_4726)" fill-opacity="0.7"/>
<defs>
<linearGradient id="paint0_linear_386_4726" x1="137.328" y1="355.466" x2="799.175" y2="774.934" gradientUnits="userSpaceOnUse">
<stop stop-color="#FDD674"/>
<stop offset="0.608803" stop-color="#EF9422"/>
</linearGradient>
</defs>
</svg>
