<svg width="17" height="21" viewBox="0 0 17 21" fill="none" xmlns="http://www.w3.org/2000/svg">
<path d="M11.2483 0.615939C10.8489 0.22131 10.3101 0 9.74872 0H2.125C0.956249 0 0.0106252 0.945 0.0106252 2.1L0 18.9C0 20.055 0.945624 21 2.11437 21H14.875C16.0437 21 17 20.055 17 18.9V7.19106C17 6.62089 16.7717 6.07444 16.3662 5.67367L11.2483 0.615939Z" fill="url(#paint0_linear_1787_30969)"/>
<path d="M15.0987 6.15515L10.3294 1.68394C9.64816 1.04527 8.5332 1.52831 8.5332 2.46211V6.93332C8.5332 7.52242 9.01076 7.99998 9.59987 7.99998H14.3692C15.3361 7.99998 15.8041 6.8165 15.0987 6.15515Z" fill="url(#paint1_linear_1787_30969)"/>
<path d="M5.00809 14.972H5.61386V17.8278C5.61386 18.0861 5.56272 18.307 5.46045 18.4906C5.35948 18.6742 5.21722 18.8145 5.03365 18.9115C4.85009 19.0072 4.63505 19.0551 4.38855 19.0551C4.16171 19.0551 3.95782 19.0138 3.77688 18.9312C3.59725 18.8486 3.45498 18.7286 3.35009 18.5712C3.2465 18.4126 3.19471 18.2198 3.19471 17.993H3.79851C3.79851 18.1045 3.82408 18.2008 3.87522 18.2821C3.92767 18.3634 3.99913 18.427 4.0896 18.4729C4.18138 18.5175 4.28628 18.5398 4.40428 18.5398C4.53278 18.5398 4.64161 18.5129 4.73077 18.4591C4.82124 18.4041 4.89008 18.3234 4.93728 18.2172C4.98448 18.111 5.00809 17.9812 5.00809 17.8278V14.972ZM6.49842 19V14.972H7.93417C8.24754 14.972 8.50716 15.0291 8.71301 15.1431C8.91887 15.2572 9.07294 15.4132 9.17521 15.6112C9.27748 15.8079 9.32862 16.0295 9.32862 16.276C9.32862 16.5238 9.27683 16.7467 9.17324 16.9447C9.07097 17.1414 8.91625 17.2974 8.70908 17.4128C8.50322 17.5269 8.24426 17.5839 7.9322 17.5839H6.94488V17.0686H7.87713C8.07512 17.0686 8.23574 17.0345 8.35899 16.9663C8.48224 16.8969 8.57272 16.8024 8.63041 16.6831C8.6881 16.5638 8.71695 16.4281 8.71695 16.276C8.71695 16.1239 8.6881 15.9889 8.63041 15.8708C8.57272 15.7528 8.48159 15.6604 8.35703 15.5935C8.23377 15.5267 8.07119 15.4932 7.86926 15.4932H7.10615V19H6.49842ZM12.767 16.2445C12.729 16.1252 12.6779 16.0184 12.6136 15.924C12.5507 15.8282 12.4753 15.7469 12.3875 15.6801C12.2996 15.6119 12.1993 15.5601 12.0865 15.5247C11.9751 15.4893 11.8525 15.4716 11.7188 15.4716C11.4919 15.4716 11.2874 15.5299 11.1051 15.6466C10.9229 15.7633 10.7786 15.9344 10.6724 16.16C10.5675 16.3842 10.5151 16.6589 10.5151 16.984C10.5151 17.3105 10.5682 17.5865 10.6744 17.8121C10.7806 18.0376 10.9261 18.2087 11.111 18.3254C11.2959 18.4421 11.5063 18.5004 11.7424 18.5004C11.9613 18.5004 12.1521 18.4559 12.3147 18.3667C12.4786 18.2775 12.6051 18.1517 12.6943 17.9891C12.7847 17.8252 12.83 17.6324 12.83 17.4108L12.9873 17.4403H11.8348V16.9388H13.4181V17.3971C13.4181 17.7354 13.3459 18.0291 13.2017 18.2782C13.0588 18.526 12.8608 18.7174 12.6077 18.8525C12.356 18.9875 12.0675 19.0551 11.7424 19.0551C11.3778 19.0551 11.0579 18.9712 10.7826 18.8033C10.5085 18.6355 10.2948 18.3975 10.1414 18.0894C9.98798 17.7799 9.91128 17.4128 9.91128 16.988C9.91128 16.6667 9.95586 16.3783 10.045 16.1226C10.1342 15.8669 10.2594 15.6499 10.4207 15.4716C10.5833 15.292 10.774 15.1549 10.993 15.0605C11.2133 14.9648 11.4539 14.917 11.7148 14.917C11.9325 14.917 12.1351 14.9491 12.3226 15.0133C12.5114 15.0776 12.6792 15.1687 12.826 15.2867C12.9742 15.4047 13.0968 15.545 13.1938 15.7076C13.2909 15.8689 13.3564 16.0479 13.3905 16.2445H12.767Z" fill="white"/>
<defs>
<linearGradient id="paint0_linear_1787_30969" x1="3.71875" y1="25.2" x2="19.8466" y2="-19.5479" gradientUnits="userSpaceOnUse">
<stop stop-color="#A592DD"/>
<stop offset="1" stop-color="#E6DDFF"/>
</linearGradient>
<linearGradient id="paint1_linear_1787_30969" x1="11.1999" y1="7.99998" x2="13.0986" y2="3.91014" gradientUnits="userSpaceOnUse">
<stop stop-color="#A592DD"/>
<stop offset="1" stop-color="#E6DDFF"/>
</linearGradient>
</defs>
</svg>
