<svg width="16" height="16" viewBox="0 0 16 16" fill="none" xmlns="http://www.w3.org/2000/svg">
<g clip-path="url(#clip0_1130_39371)">
<path d="M8.5005 6.00014V8.6668M8.5005 11.3335H8.50717M7.3605 2.57347L1.71384 12.0001C1.59741 12.2018 1.53581 12.4303 1.53516 12.6631C1.53451 12.896 1.59483 13.1249 1.71012 13.3272C1.82541 13.5294 1.99165 13.698 2.19231 13.816C2.39296 13.9341 2.62104 13.9976 2.85384 14.0001H14.1472C14.38 13.9976 14.608 13.9341 14.8087 13.816C15.0094 13.698 15.1756 13.5294 15.2909 13.3272C15.4062 13.1249 15.4665 12.896 15.4658 12.6631C15.4652 12.4303 15.4036 12.2018 15.2872 12.0001L9.6405 2.57347C9.52166 2.37754 9.35432 2.21555 9.15463 2.10313C8.95495 1.9907 8.72966 1.93164 8.5005 1.93164C8.27135 1.93164 8.04606 1.9907 7.84637 2.10313C7.64669 2.21555 7.47935 2.37754 7.3605 2.57347Z" stroke="url(#paint0_linear_1130_39371)" stroke-width="1.5" stroke-linecap="round" stroke-linejoin="round"/>
</g>
<defs>
<linearGradient id="paint0_linear_1130_39371" x1="4.7254" y1="14.4474" x2="12.4698" y2="3.25104" gradientUnits="userSpaceOnUse">
<stop stop-color="#2E2C2C"/>
<stop offset="0.674628" stop-color="#4B4949"/>
<stop offset="1" stop-color="#131313"/>
<stop offset="1" stop-opacity="0.94"/>
<stop offset="1" stop-color="#434343"/>
</linearGradient>
<clipPath id="clip0_1130_39371">
<rect width="16" height="16" fill="white"/>
</clipPath>
</defs>
</svg>
