<svg width="20" height="20" viewBox="0 0 20 20" fill="none" xmlns="http://www.w3.org/2000/svg">
<g clip-path="url(#clip0_901_21441)">
<path d="M18.8002 13.5829L12.4085 2.98292C12.15 2.5786 11.794 2.24585 11.3731 2.01536C10.9522 1.78488 10.48 1.66406 10.0002 1.66406C9.5203 1.66406 9.04815 1.78488 8.62726 2.01536C8.20637 2.24585 7.85029 2.5786 7.59183 2.98292L1.20016 13.5829C0.974376 13.9593 0.851656 14.3885 0.844341 14.8273C0.837027 15.2662 0.945377 15.6992 1.1585 16.0829C1.4049 16.5148 1.76155 16.8735 2.192 17.1224C2.62245 17.3713 3.11127 17.5015 3.6085 17.4996H16.3918C16.8858 17.5049 17.3724 17.3797 17.8026 17.1369C18.2327 16.894 18.5912 16.5419 18.8418 16.1162C19.0612 15.7286 19.173 15.2893 19.1657 14.8439C19.1584 14.3985 19.0322 13.9632 18.8002 13.5829ZM10.0002 14.1662C9.83535 14.1662 9.67423 14.1174 9.53719 14.0258C9.40015 13.9342 9.29334 13.8041 9.23027 13.6518C9.16719 13.4995 9.15069 13.332 9.18284 13.1703C9.215 13.0087 9.29437 12.8602 9.41091 12.7437C9.52745 12.6271 9.67594 12.5477 9.83759 12.5156C9.99924 12.4834 10.1668 12.4999 10.3191 12.563C10.4713 12.6261 10.6015 12.7329 10.6931 12.8699C10.7846 13.007 10.8335 13.1681 10.8335 13.3329C10.8335 13.5539 10.7457 13.7659 10.5894 13.9222C10.4331 14.0785 10.2212 14.1662 10.0002 14.1662ZM10.8335 10.8329C10.8335 11.0539 10.7457 11.2659 10.5894 11.4222C10.4331 11.5785 10.2212 11.6662 10.0002 11.6662C9.77915 11.6662 9.56719 11.5785 9.41091 11.4222C9.25463 11.2659 9.16683 11.0539 9.16683 10.8329V7.49958C9.16683 7.27857 9.25463 7.06661 9.41091 6.91033C9.56719 6.75405 9.77915 6.66625 10.0002 6.66625C10.2212 6.66625 10.4331 6.75405 10.5894 6.91033C10.7457 7.06661 10.8335 7.27857 10.8335 7.49958V10.8329Z" fill="#3B3B3B"/>
</g>
<defs>
<clipPath id="clip0_901_21441">
<rect width="20" height="20" fill="white"/>
</clipPath>
</defs>
</svg>
