<svg width="21" height="20" viewBox="0 0 21 20" fill="none" xmlns="http://www.w3.org/2000/svg">
<path d="M19.2999 13.5829L12.9083 2.98292C12.6498 2.5786 12.2937 2.24585 11.8728 2.01536C11.4519 1.78488 10.9798 1.66406 10.4999 1.66406C10.0201 1.66406 9.54791 1.78488 9.12702 2.01536C8.70613 2.24585 8.35004 2.5786 8.09159 2.98292L1.69992 13.5829C1.47413 13.9593 1.35141 14.3885 1.3441 14.8273C1.33678 15.2662 1.44513 15.6992 1.65825 16.0829C1.90465 16.5148 2.2613 16.8735 2.69176 17.1224C3.12221 17.3713 3.61103 17.5015 4.10825 17.4996H16.8916C17.3855 17.5049 17.8722 17.3797 18.3023 17.1369C18.7325 16.894 19.091 16.5419 19.3416 16.1162C19.561 15.7286 19.6728 15.2893 19.6655 14.8439C19.6581 14.3985 19.5319 13.9632 19.2999 13.5829V13.5829ZM10.4999 14.1662C10.3351 14.1662 10.174 14.1174 10.0369 14.0258C9.8999 13.9342 9.79309 13.8041 9.73002 13.6518C9.66695 13.4995 9.65045 13.332 9.6826 13.1703C9.71475 13.0087 9.79412 12.8602 9.91067 12.7437C10.0272 12.6271 10.1757 12.5477 10.3373 12.5156C10.499 12.4834 10.6666 12.4999 10.8188 12.563C10.9711 12.6261 11.1012 12.7329 11.1928 12.8699C11.2844 13.007 11.3333 13.1681 11.3333 13.3329C11.3333 13.5539 11.2455 13.7659 11.0892 13.9222C10.9329 14.0785 10.7209 14.1662 10.4999 14.1662ZM11.3333 10.8329C11.3333 11.0539 11.2455 11.2659 11.0892 11.4222C10.9329 11.5785 10.7209 11.6662 10.4999 11.6662C10.2789 11.6662 10.0669 11.5785 9.91067 11.4222C9.75439 11.2659 9.66659 11.0539 9.66659 10.8329V7.49958C9.66659 7.27857 9.75439 7.06661 9.91067 6.91033C10.0669 6.75405 10.2789 6.66625 10.4999 6.66625C10.7209 6.66625 10.9329 6.75405 11.0892 6.91033C11.2455 7.06661 11.3333 7.27857 11.3333 7.49958V10.8329Z" fill="#FF0000"/>
</svg>
