<svg width="142" height="142" viewBox="0 0 142 142" fill="none" xmlns="http://www.w3.org/2000/svg">
<g clip-path="url(#clip0_764_17141)">
<circle cx="71" cy="71" r="71" fill="#F6F4FC"/>
<path d="M92.0938 72.8164V74.8594C92.0938 82.4012 85.4215 89.6555 78.7227 95.0397C82.2113 98.4674 86.654 100.943 86.7127 100.998C86.7127 100.998 98.8288 94.2624 98.8288 87.5656V76.1463L92.0938 72.8164Z" fill="url(#paint0_linear_764_17141)"/>
<path d="M90.1581 74.8613V52.6419L66.5742 41L43 52.6419V74.8613C43 87.8871 66.5742 101 66.5742 101C66.5742 101 67.8902 100.274 69.8935 98.9774C77.8311 93.902 90.1581 84.259 90.1581 74.8613ZM65.0107 75.3366C63.8391 76.5082 61.9395 76.5081 60.768 75.3365L57.5422 72.1105C56.5658 71.1339 56.5658 69.5508 57.5423 68.5743V68.5743C58.5188 67.5978 60.102 67.5978 61.0785 68.5743L62.7479 70.2436C62.826 70.3217 62.9526 70.3217 63.0307 70.2436L72.0774 61.1967C73.0541 60.22 74.6376 60.22 75.6141 61.1968V61.1968C76.5905 62.1734 76.5905 63.7566 75.614 64.7331L65.0107 75.3366Z" fill="url(#paint1_linear_764_17141)"/>
</g>
<defs>
<linearGradient id="paint0_linear_764_17141" x1="83.1209" y1="106.634" x2="106.893" y2="48.5046" gradientUnits="userSpaceOnUse">
<stop stop-color="#A592DD"/>
<stop offset="1" stop-color="#E6DDFF"/>
</linearGradient>
<linearGradient id="paint1_linear_764_17141" x1="53.3158" y1="113" x2="100.447" y2="-13.963" gradientUnits="userSpaceOnUse">
<stop stop-color="#A592DD"/>
<stop offset="1" stop-color="#E6DDFF"/>
</linearGradient>
<clipPath id="clip0_764_17141">
<rect width="142" height="142" fill="white"/>
</clipPath>
</defs>
</svg>
