<svg width="488" height="963" viewBox="0 0 488 963" fill="none" xmlns="http://www.w3.org/2000/svg">
<g opacity="0.6">
<path d="M95.139 22.935C87.7401 32.5202 92.2282 87.1132 95.3971 113.212C84.5585 122.351 56.7749 196.594 70.9732 261.964C115.569 467.286 339.52 430.786 415.262 345.958C435.155 331.708 457.833 332.414 482.453 332.504C479.167 294.793 443.437 274.512 429.321 268.291C407.663 258.748 379.053 262.493 359.148 274.405C300.334 338.984 190.928 340.47 163.784 235.549C151.221 91.3608 310.014 94.5123 348.557 152.843C358.293 145.29 385.944 123.659 399.936 90.2536C408.384 59.8352 403.817 24.0538 396.034 8.34105C384.416 6.82022 345.208 7.58396 316.879 35.8009C277.392 18.1417 189.958 26.2963 161.786 47.0789C143.421 36.6093 102.538 13.3499 95.139 22.935Z" fill="#FDD674" fill-opacity="0.3"/>
<path d="M95.1584 23.0411C87.7258 32.6268 99.1103 78.7108 102.282 104.802C90.346 117.311 56.5724 196.674 70.8039 262.023C111.633 449.506 302.785 435.226 393.564 366.696C320.372 383.849 265.89 341.518 247.798 318.208C210.492 312.8 177.334 286.956 164.003 235.58C151.443 91.4296 310.882 94.5204 349.559 152.823C359.339 145.268 387.11 123.631 401.172 90.2287C409.665 59.8141 405.094 24.0429 397.285 8.33673C385.62 6.82064 346.252 7.59903 317.797 35.8201C278.156 18.18 209.117 22.7761 180.822 43.5646C162.387 33.1044 102.591 13.4554 95.1584 23.0411Z" fill="url(#paint0_linear_901_20284)" fill-opacity="0.3"/>
</g>
<g clip-path="url(#clip0_901_20284)">
<g opacity="0.36">
<path d="M125.084 531.287C83.4309 538.833 -32.7957 691.027 -85.7023 766.181C-135.239 764.513 -381.245 892.114 -497.514 1095.02C-862.706 1732.34 -196.008 2162.18 199.256 2119.44C284.262 2129.05 341.462 2184 405.147 2241.91C484.95 2136.34 439.726 2000.01 417.662 1950.81C383.81 1875.31 300.787 1818.01 221.226 1802.31C-82.6727 1832.14 -370.088 1579.74 -194.775 1243.86C110.356 840.231 515.079 1220.35 478.476 1462.02C521.438 1465.22 643.865 1473.85 758.423 1419.93C851.597 1360.77 923.557 1257.21 940.162 1198.2C913.572 1167.04 810.031 1077.19 670.415 1084.06C609.301 945.742 363.288 762.106 241.496 750.054C218.357 679.867 166.738 523.742 125.084 531.287Z" fill="#FDD674" fill-opacity="0.3"/>
<path d="M124.886 531.608C83.144 539.076 4.7463 685.341 -48.1354 760.483C-108.412 764.988 -381.958 891.847 -498.092 1094.78C-831.275 1676.98 -301.742 2087.65 94.3716 2122.44C-135.757 1995.51 -177.999 1758.04 -170.354 1655.17C-254.505 1553.75 -280.022 1409.01 -194.279 1244.45C110.771 840.93 517.313 1222.41 481.125 1464.31C524.203 1467.61 646.956 1476.51 761.688 1422.76C854.972 1363.72 926.896 1260.18 943.418 1201.12C916.696 1169.87 812.705 1079.67 672.753 1086.26C611.194 947.631 421.256 797.848 299.132 785.524C275.788 715.195 166.629 524.141 124.886 531.608Z" fill="url(#paint1_linear_901_20284)" fill-opacity="0.3"/>
</g>
</g>
<defs>
<linearGradient id="paint0_linear_901_20284" x1="142.992" y1="126.131" x2="601.589" y2="616.229" gradientUnits="userSpaceOnUse">
<stop stop-color="#FDD674"/>
<stop offset="0.608803" stop-color="#EF9422"/>
</linearGradient>
<linearGradient id="paint1_linear_901_20284" x1="7.5565" y1="911.192" x2="49.7577" y2="3257.29" gradientUnits="userSpaceOnUse">
<stop stop-color="#FDD674"/>
<stop offset="0.608803" stop-color="#EF9422"/>
</linearGradient>
<clipPath id="clip0_901_20284">
<rect width="488" height="534" fill="white" transform="translate(0 429)"/>
</clipPath>
</defs>
</svg>
