<svg width="54" height="54" viewBox="0 0 54 54" fill="none" xmlns="http://www.w3.org/2000/svg">
<path fill-rule="evenodd" clip-rule="evenodd" d="M45.5242 16.6216C45.7456 16.76 45.9374 16.9411 46.0886 17.1546C46.2445 17.3698 46.3555 17.6144 46.415 17.8738C46.4744 18.1332 46.4811 18.402 46.4346 18.664L45.3573 25.1601V21.6987C45.3546 20.6515 44.9394 19.648 44.2026 18.9076C43.4658 18.1672 42.4673 17.75 41.4253 17.7473H11.7464L12.5407 12.974C12.631 12.4483 12.9251 11.98 13.3586 11.6719C13.792 11.3637 14.3293 11.2409 14.8527 11.3302L44.7989 16.3485C45.0563 16.3904 45.3028 16.4832 45.5242 16.6216ZM11.0584 24.5118C10.4501 24.5113 9.82464 24.5108 9.41864 24.512V21.6987C9.41823 21.3872 9.47897 21.0787 9.59738 20.7909C9.7158 20.5031 9.88956 20.2415 10.1087 20.0213C10.3279 19.8011 10.5881 19.6264 10.8745 19.5074C11.161 19.3885 11.4679 19.3274 11.7779 19.3278H16.8187V20.1181C16.815 21.2837 16.352 22.4003 15.5311 23.2237C14.7103 24.0472 13.5983 24.5104 12.4384 24.512C12.0913 24.5128 11.5812 24.5123 11.0584 24.5118ZM36.3844 19.328H41.4253C42.0508 19.3284 42.6507 19.5783 43.093 20.0228C43.5354 20.4674 43.7841 21.0702 43.7845 21.6988V24.5122H40.7568C40.1165 24.5022 39.4856 24.3547 38.9066 24.0797C38.3276 23.8046 37.8139 23.4083 37.3998 22.9173C36.9857 22.4264 36.6809 21.8521 36.5058 21.233C36.3306 20.614 36.2893 19.9644 36.3844 19.328ZM38.9066 32.2943C39.4856 32.0192 40.1165 31.8717 40.7568 31.8617C41.1045 31.861 41.6149 31.8615 42.1382 31.8619H42.1407H42.1408H42.141H42.1412H42.1415C42.7511 31.8625 43.3778 31.863 43.7845 31.8617V34.6751C43.7841 35.3038 43.5354 35.9066 43.093 36.3511C42.6507 36.7956 42.0508 37.0455 41.4253 37.0459H36.4579C36.4261 36.9847 36.3938 36.9238 36.3609 36.8632C36.2984 36.2857 36.3474 35.7008 36.5058 35.1409C36.6809 34.5218 36.9857 33.9476 37.3998 33.4566C37.8139 32.9656 38.3276 32.5693 38.9066 32.2943ZM34.9612 34.8673C34.9895 34.7558 35.0209 34.6449 35.0555 34.5349C35.3104 33.7241 35.7314 32.976 36.2915 32.3387C36.8516 31.7015 37.5383 31.1891 38.3073 30.8348C39.0764 30.4804 39.9108 30.2918 40.7568 30.2812H43.7845V26.0927C43.4009 26.0935 42.8338 26.0931 42.2676 26.0927H42.2666H42.2655C41.7004 26.0923 41.1364 26.0919 40.7568 26.0927C39.9108 26.0821 39.0764 25.8935 38.3073 25.5392C37.5383 25.1848 36.8516 24.6725 36.2915 24.0352C35.7314 23.3979 35.3104 22.6498 35.0555 21.8391C34.8006 21.0283 34.7175 20.1729 34.8116 19.328H18.3915C18.485 20.1735 18.4013 21.0293 18.1457 21.8403C17.8901 22.6513 17.4683 23.3995 16.9075 24.0368C16.3467 24.6741 15.6593 25.1862 14.8896 25.5403C14.1199 25.8944 13.2849 26.0826 12.4384 26.0927H9.41864V30.2812H12.4384C14.0146 30.2854 15.5252 30.9159 16.6405 32.0352C17.7558 33.1545 18.3853 34.6717 18.3915 36.2557V36.6405C19.3259 35.0138 20.6675 33.6646 22.2717 32.7421C18.7497 29.3643 20.1941 22.1638 26.6016 21.9201C28.2547 21.9226 29.8395 22.5837 31.0084 23.7584C32.1774 24.9331 32.8352 26.5257 32.8377 28.187C32.8355 29.6761 32.3067 31.1101 31.3552 32.2373C32.7361 32.8406 33.9638 33.7437 34.9612 34.8673ZM29.7336 31.6875C30.6124 30.9135 31.2158 29.7468 31.2649 28.1869C31.0691 21.9903 22.1285 21.999 21.9303 28.1869C21.9877 29.973 22.7731 31.2442 23.8663 32.0001C24.9448 31.6081 26.1052 31.3948 27.314 31.3948C28.1472 31.3948 28.9574 31.4961 29.7336 31.6875ZM9.41864 31.8617H12.4384C13.0793 31.8711 13.7107 32.0181 14.2904 32.2929C14.8701 32.5676 15.3846 32.9638 15.7995 33.4547C16.2143 33.9457 16.5199 34.5202 16.6957 35.1395C16.8715 35.7589 16.9134 36.4089 16.8187 37.0459H11.7779C11.4679 37.0464 11.161 36.9853 10.8745 36.8663C10.5881 36.7473 10.3279 36.5727 10.1087 36.3525C9.88956 36.1322 9.7158 35.8707 9.59738 35.5829C9.47897 35.2951 9.41823 34.9866 9.41864 34.6751V31.8617Z" fill="#A592DD"/>
<path fill-rule="evenodd" clip-rule="evenodd" d="M45.5242 16.6216C45.7456 16.76 45.9374 16.9411 46.0886 17.1546C46.2445 17.3698 46.3555 17.6144 46.415 17.8738C46.4744 18.1332 46.4811 18.402 46.4346 18.664L45.3573 25.1601V21.6987C45.3546 20.6515 44.9394 19.648 44.2026 18.9076C43.4658 18.1672 42.4673 17.75 41.4253 17.7473H11.7464L12.5407 12.974C12.631 12.4483 12.9251 11.98 13.3586 11.6719C13.792 11.3637 14.3293 11.2409 14.8527 11.3302L44.7989 16.3485C45.0563 16.3904 45.3028 16.4832 45.5242 16.6216ZM11.0584 24.5118C10.4501 24.5113 9.82464 24.5108 9.41864 24.512V21.6987C9.41823 21.3872 9.47897 21.0787 9.59738 20.7909C9.7158 20.5031 9.88956 20.2415 10.1087 20.0213C10.3279 19.8011 10.5881 19.6264 10.8745 19.5074C11.161 19.3885 11.4679 19.3274 11.7779 19.3278H16.8187V20.1181C16.815 21.2837 16.352 22.4003 15.5311 23.2237C14.7103 24.0472 13.5983 24.5104 12.4384 24.512C12.0913 24.5128 11.5812 24.5123 11.0584 24.5118ZM36.3844 19.328H41.4253C42.0508 19.3284 42.6507 19.5783 43.093 20.0228C43.5354 20.4674 43.7841 21.0702 43.7845 21.6988V24.5122H40.7568C40.1165 24.5022 39.4856 24.3547 38.9066 24.0797C38.3276 23.8046 37.8139 23.4083 37.3998 22.9173C36.9857 22.4264 36.6809 21.8521 36.5058 21.233C36.3306 20.614 36.2893 19.9644 36.3844 19.328ZM38.9066 32.2943C39.4856 32.0192 40.1165 31.8717 40.7568 31.8617C41.1045 31.861 41.6149 31.8615 42.1382 31.8619H42.1407H42.1408H42.141H42.1412H42.1415C42.7511 31.8625 43.3778 31.863 43.7845 31.8617V34.6751C43.7841 35.3038 43.5354 35.9066 43.093 36.3511C42.6507 36.7956 42.0508 37.0455 41.4253 37.0459H36.4579C36.4261 36.9847 36.3938 36.9238 36.3609 36.8632C36.2984 36.2857 36.3474 35.7008 36.5058 35.1409C36.6809 34.5218 36.9857 33.9476 37.3998 33.4566C37.8139 32.9656 38.3276 32.5693 38.9066 32.2943ZM34.9612 34.8673C34.9895 34.7558 35.0209 34.6449 35.0555 34.5349C35.3104 33.7241 35.7314 32.976 36.2915 32.3387C36.8516 31.7015 37.5383 31.1891 38.3073 30.8348C39.0764 30.4804 39.9108 30.2918 40.7568 30.2812H43.7845V26.0927C43.4009 26.0935 42.8338 26.0931 42.2676 26.0927H42.2666H42.2655C41.7004 26.0923 41.1364 26.0919 40.7568 26.0927C39.9108 26.0821 39.0764 25.8935 38.3073 25.5392C37.5383 25.1848 36.8516 24.6725 36.2915 24.0352C35.7314 23.3979 35.3104 22.6498 35.0555 21.8391C34.8006 21.0283 34.7175 20.1729 34.8116 19.328H18.3915C18.485 20.1735 18.4013 21.0293 18.1457 21.8403C17.8901 22.6513 17.4683 23.3995 16.9075 24.0368C16.3467 24.6741 15.6593 25.1862 14.8896 25.5403C14.1199 25.8944 13.2849 26.0826 12.4384 26.0927H9.41864V30.2812H12.4384C14.0146 30.2854 15.5252 30.9159 16.6405 32.0352C17.7558 33.1545 18.3853 34.6717 18.3915 36.2557V36.6405C19.3259 35.0138 20.6675 33.6646 22.2717 32.7421C18.7497 29.3643 20.1941 22.1638 26.6016 21.9201C28.2547 21.9226 29.8395 22.5837 31.0084 23.7584C32.1774 24.9331 32.8352 26.5257 32.8377 28.187C32.8355 29.6761 32.3067 31.1101 31.3552 32.2373C32.7361 32.8406 33.9638 33.7437 34.9612 34.8673ZM29.7336 31.6875C30.6124 30.9135 31.2158 29.7468 31.2649 28.1869C31.0691 21.9903 22.1285 21.999 21.9303 28.1869C21.9877 29.973 22.7731 31.2442 23.8663 32.0001C24.9448 31.6081 26.1052 31.3948 27.314 31.3948C28.1472 31.3948 28.9574 31.4961 29.7336 31.6875ZM9.41864 31.8617H12.4384C13.0793 31.8711 13.7107 32.0181 14.2904 32.2929C14.8701 32.5676 15.3846 32.9638 15.7995 33.4547C16.2143 33.9457 16.5199 34.5202 16.6957 35.1395C16.8715 35.7589 16.9134 36.4089 16.8187 37.0459H11.7779C11.4679 37.0464 11.161 36.9853 10.8745 36.8663C10.5881 36.7473 10.3279 36.5727 10.1087 36.3525C9.88956 36.1322 9.7158 35.8707 9.59738 35.5829C9.47897 35.2951 9.41823 34.9866 9.41864 34.6751V31.8617Z" fill="url(#paint0_linear_846_18924)"/>
<circle cx="27" cy="42.0691" r="6.90698" fill="#FEBC44"/>
<g clip-path="url(#clip0_846_18924)">
<path d="M31.0291 39.1379V41.3355M31.0291 41.3355H28.8314M31.0291 41.3355L29.3296 39.7386C28.9359 39.3447 28.4489 39.057 27.914 38.9023C27.379 38.7475 26.8136 38.7308 26.2705 38.8537C25.7274 38.9766 25.2242 39.2351 24.808 39.605C24.3918 39.975 24.0761 40.4443 23.8903 40.9693M22.9709 44.9983V42.8007M22.9709 42.8007H25.1686M22.9709 42.8007L24.6705 44.3976C25.0641 44.7915 25.5512 45.0792 26.0861 45.2339C26.621 45.3887 27.1864 45.4054 27.7295 45.2825C28.2727 45.1596 28.7758 44.9011 29.192 44.5312C29.6082 44.1612 29.924 43.6919 30.1097 43.1669" stroke="white" stroke-width="1.06744" stroke-linecap="round" stroke-linejoin="round"/>
</g>
<defs>
<linearGradient id="paint0_linear_846_18924" x1="17.5226" y1="42.1948" x2="29.5935" y2="-17.3407" gradientUnits="userSpaceOnUse">
<stop stop-color="#A592DD"/>
<stop offset="1" stop-color="#E6DDFF"/>
</linearGradient>
<clipPath id="clip0_846_18924">
<rect width="8.7907" height="8.7907" fill="white" transform="translate(22.6047 37.6738)"/>
</clipPath>
</defs>
</svg>
