<svg width="196" height="174" viewBox="0 0 196 174" fill="none" xmlns="http://www.w3.org/2000/svg">
<g clip-path="url(#clip0_2107_47655)">
<path d="M724 125.999C703 139.999 634 149.998 551 113.999C468 77.9987 372 112.999 327.5 132.499C291.9 148.099 258.5 146 224 125.999C198.5 103.166 137.9 61.2996 99.5 76.4996C51.5 95.4996 -24 197.5 -158.5 143.5C-293 89.5001 -427.5 5.00011 -522 84.5001C-616.5 164 -833.5 25.5 -851 0" stroke="#70CA98" stroke-opacity="0.3" stroke-dasharray="19 19"/>
<path d="M377 140.999C356 154.999 287 164.998 204 128.999C121 92.9987 25 127.999 -19.5 147.499C-55.1 163.099 -88.5 161 -123 140.999C-148.5 118.166 -209.1 76.2996 -247.5 91.4996C-295.5 110.5 -371 212.5 -505.5 158.5C-640 104.5 -774.5 20.0001 -869 99.5001C-963.5 179 -1180.5 40.5 -1198 15" stroke="#70CA98" stroke-opacity="0.3" stroke-dasharray="19 19"/>
</g>
<defs>
<clipPath id="clip0_2107_47655">
<rect width="315" height="174" fill="white" transform="translate(-119)"/>
</clipPath>
</defs>
</svg>
