<svg width="262" height="174" viewBox="0 0 262 174" fill="none" xmlns="http://www.w3.org/2000/svg">
<g clip-path="url(#clip0_882_18498)">
<path d="M577 125.999C556 139.999 487 149.998 404 113.999C321 77.9987 225 112.999 180.5 132.499C144.9 148.099 111.5 146 77 125.999C51.5 103.166 -9.1 61.2996 -47.5 76.4996C-95.5 95.4996 -171 197.5 -305.5 143.5C-440 89.5001 -574.5 5.00011 -669 84.5001C-763.5 164 -980.5 25.5 -998 0" stroke="#FF0000" stroke-opacity="0.2" stroke-dasharray="19 19"/>
<path d="M230 140.999C209 154.999 140 164.998 57 128.999C-26 92.9987 -122 127.999 -166.5 147.499C-202.1 163.099 -235.5 161 -270 140.999C-295.5 118.166 -356.1 76.2996 -394.5 91.4996C-442.5 110.5 -518 212.5 -652.5 158.5C-787 104.5 -921.5 20.0001 -1016 99.5001C-1110.5 179 -1327.5 40.5 -1345 15" stroke="#FF0000" stroke-opacity="0.2" stroke-dasharray="19 19"/>
</g>
<defs>
<clipPath id="clip0_882_18498">
<rect width="262" height="174" fill="white"/>
</clipPath>
</defs>
</svg>
