<svg width="539" height="174" viewBox="0 0 539 174" fill="none" xmlns="http://www.w3.org/2000/svg">
<g clip-path="url(#clip0_882_18501)">
<path d="M843 125.999C822 139.999 753 149.998 670 113.999C587 77.9987 491 112.999 446.5 132.499C410.9 148.099 377.5 146 343 125.999C317.5 103.166 256.9 61.2996 218.5 76.4996C170.5 95.4996 95 197.5 -39.5 143.5C-174 89.5001 -308.5 5.00011 -403 84.5001C-497.5 164 -714.5 25.5 -732 0" stroke="#70CA98" stroke-opacity="0.3" stroke-dasharray="19 19"/>
<path d="M496 140.999C475 154.999 406 164.998 323 128.999C240 92.9987 144 127.999 99.5 147.499C63.9 163.099 30.5 161 -4 140.999C-29.5 118.166 -90.1 76.2996 -128.5 91.4996C-176.5 110.5 -252 212.5 -386.5 158.5C-521 104.5 -655.5 20.0001 -750 99.5001C-844.5 179 -1061.5 40.5 -1079 15" stroke="#70CA98" stroke-opacity="0.3" stroke-dasharray="19 19"/>
</g>
<defs>
<clipPath id="clip0_882_18501">
<rect width="539" height="174" fill="white"/>
</clipPath>
</defs>
</svg>
