<svg width="24" height="25" viewBox="0 0 24 25" fill="none" xmlns="http://www.w3.org/2000/svg">
<rect y="24.5" width="24" height="24" rx="10" transform="rotate(-90 0 24.5)" fill="#F4F6F9"/>
<path d="M9.16994 7.5003C8.98369 7.68766 8.87915 7.94111 8.87915 8.2053C8.87915 8.46948 8.98369 8.72293 9.16994 8.9103L12.7099 12.5003L9.16994 16.0403C8.98369 16.2277 8.87915 16.4811 8.87915 16.7453C8.87915 17.0095 8.98369 17.2629 9.16994 17.4503C9.26291 17.544 9.37351 17.6184 9.49537 17.6692C9.61723 17.72 9.74793 17.7461 9.87994 17.7461C10.012 17.7461 10.1427 17.72 10.2645 17.6692C10.3864 17.6184 10.497 17.544 10.5899 17.4503L14.8299 13.2103C14.9237 13.1173 14.9981 13.0067 15.0488 12.8849C15.0996 12.763 15.1257 12.6323 15.1257 12.5003C15.1257 12.3683 15.0996 12.2376 15.0488 12.1157C14.9981 11.9939 14.9237 11.8833 14.8299 11.7903L10.5899 7.5003C10.497 7.40657 10.3864 7.33217 10.2645 7.2814C10.1427 7.23064 10.012 7.2045 9.87994 7.2045C9.74793 7.2045 9.61722 7.23064 9.49537 7.2814C9.37351 7.33217 9.26291 7.40657 9.16994 7.5003Z" fill="#09101D"/>
</svg>
