<svg width="116" height="46" viewBox="0 0 116 46" fill="none" xmlns="http://www.w3.org/2000/svg">
<path d="M2.00397 28.3844C6.85955 33.5625 11.0579 35.6882 14.6239 34.6312C16.6583 34.0281 18.1432 32.7038 21.076 29.3846C21.7099 28.6672 21.7085 28.6689 21.9345 28.4163C24.5235 25.5234 26.1094 24.3313 27.843 24.3313C28.7655 24.3313 29.4973 24.3913 31.1406 24.5724L31.1969 24.5786C36.6406 25.1784 39.3638 24.7243 43.3255 21.5344C44.5306 20.5641 45.599 19.4819 46.6963 18.1717C47.3906 17.3428 49.5458 14.5349 49.4695 14.6314C52.0079 11.4209 53.9076 10.1773 57.1826 10.1773C58.5215 10.1773 59.8109 10.785 61.4596 12.0785C61.821 12.362 62.1987 12.6762 62.6674 13.0798C62.9084 13.2873 63.7637 14.0331 63.9191 14.1674C66.9994 16.8321 69.0376 18.0603 71.7507 18.3894C75.277 18.8171 79.1848 17.2923 83.8244 13.396C93.5227 5.25151 102.866 12.0069 112.058 34.2626C112.194 34.5922 112.562 34.7449 112.88 34.6038C113.198 34.4626 113.345 34.0811 113.209 33.7515C103.74 10.8258 93.6139 3.50426 83.0364 12.3872C78.6377 16.0811 75.0471 17.4821 71.8961 17.0999C69.4922 16.8084 67.6275 15.6847 64.7211 13.1706C64.5688 13.0388 63.7119 12.2917 63.4673 12.081C62.9852 11.666 62.5938 11.3404 62.2151 11.0433C60.3691 9.59491 58.8501 8.87905 57.1826 8.87905C53.4651 8.87905 51.2543 10.3263 48.5012 13.8083C48.5624 13.7309 46.4243 16.5164 45.7509 17.3205C44.7037 18.571 43.6923 19.5954 42.5576 20.509C38.903 23.4516 36.4819 23.8553 31.3292 23.2877L31.2729 23.2815C29.586 23.0956 28.8242 23.0331 27.843 23.0331C25.6289 23.0331 23.8423 24.376 21.0167 27.5332C20.8847 27.6807 20.747 27.8356 20.5841 28.0196C20.4797 28.1376 20.3683 28.2637 20.1528 28.5076C17.3879 31.6368 16.0027 32.8722 14.2797 33.3829C11.2703 34.275 7.46939 32.3506 2.90165 27.4794C2.66063 27.2224 2.26429 27.2166 2.0164 27.4665C1.76851 27.7164 1.76295 28.1274 2.00397 28.3844Z" fill="#5E81F4"/>
<path d="M88 14C91.866 14 95 10.866 95 7C95 3.13401 91.866 0 88 0C84.134 0 81 3.13401 81 7C81 10.866 84.134 14 88 14Z" fill="white"/>
<path d="M88 11C90.2091 11 92 9.20914 92 7C92 4.79086 90.2091 3 88 3C85.7909 3 84 4.79086 84 7C84 9.20914 85.7909 11 88 11Z" fill="#5E81F4"/>
</svg>
