<svg xmlns="http://www.w3.org/2000/svg" width="774" height="774" viewBox="0 0 774 774" fill="none">
<path d="M67.372 170.777C59.721 187.46 85.0017 266.544 98.5984 304.001C85.7158 321.201 70.0546 440.329 113.356 532.009C249.365 819.971 567.603 689.555 650.467 538.409C674.975 510.569 708.704 503.863 745.092 495.584C727.355 441.019 667.662 423.277 644.692 418.915C609.449 412.222 568.48 427.528 543.156 451.92C478.371 567.378 317.318 606.954 241.386 461.291C173.568 252.66 409.135 203.058 485.981 276.027C497.779 261.546 531.219 220.156 540.468 166.046C542.55 118.24 523.581 66.962 506.719 46.4182C489.042 48.1421 431.405 62.666 399.212 114.014C334.868 101.428 208.539 143.344 174.039 183.659C143.342 174.474 75.023 154.095 67.372 170.777Z" fill="#FDD674"/>
<path d="M67.437 170.927C59.7364 187.622 92.2937 251.785 105.892 289.23C92.5399 311.78 69.7829 440.516 113.127 532.155C237.477 795.061 514.873 708.662 625.512 576.446C523.29 626.784 428.372 582.888 393.691 554.648C336.753 559.409 278.958 532.574 241.719 461.261C173.92 252.686 410.419 202.774 487.455 275.655C499.315 261.156 532.932 219.717 542.284 165.587C544.435 117.771 525.462 66.5097 508.564 45.9844C490.82 47.7313 432.952 62.3315 400.574 113.728C336.009 101.223 235.63 131.599 200.95 171.965C170.152 162.818 75.1377 154.232 67.437 170.927Z" fill="url(#paint0_linear_414_5525)" fill-opacity="0.5"/>
<defs>
<linearGradient id="paint0_linear_414_5525" x1="173.296" y1="306.817" x2="1017.96" y2="873.856" gradientUnits="userSpaceOnUse">
<stop stop-color="#FDD674"/>
<stop offset="0.608803" stop-color="#EF9422"/>
</linearGradient>
</defs>
</svg>