<svg width="86" height="86" viewBox="0 0 86 86" fill="none" xmlns="http://www.w3.org/2000/svg">
<g clip-path="url(#clip0_584_9938)">
<circle cx="43" cy="43" r="43" fill="#F6F4FC"/>
<path d="M49.7103 18.4079C48.7976 17.5058 47.566 17 46.2828 17H28.8571C26.1857 17 24.0243 19.16 24.0243 21.8L24 60.2C24 62.84 26.1614 65 28.8329 65H58C60.6714 65 62.8571 62.84 62.8571 60.2V33.4367C62.8571 32.1335 62.3354 30.8844 61.4084 29.9684L49.7103 18.4079Z" fill="url(#paint0_linear_584_9938)"/>
<path d="M58.5114 31.0689L47.6101 20.849C46.053 19.3892 43.5045 20.4933 43.5045 22.6277V32.8476C43.5045 34.1941 44.5961 35.2857 45.9426 35.2857H56.8438C59.0541 35.2857 60.1238 32.5806 58.5114 31.0689Z" fill="url(#paint1_linear_584_9938)"/>
<path d="M31.8687 58.7139V49.5071H35.1504C35.8667 49.5071 36.4601 49.6374 36.9306 49.8982C37.4011 50.1589 37.7533 50.5156 37.987 50.9681C38.2208 51.4177 38.3377 51.9242 38.3377 52.4876C38.3377 53.054 38.2193 53.5635 37.9826 54.0161C37.7488 54.4656 37.3951 54.8223 36.9216 55.086C36.4511 55.3467 35.8592 55.4771 35.1459 55.4771H32.8891V54.2993H35.02C35.4726 54.2993 35.8397 54.2214 36.1214 54.0655C36.4031 53.9067 36.6099 53.6909 36.7418 53.4182C36.8737 53.1454 36.9396 52.8352 36.9396 52.4876C36.9396 52.1399 36.8737 51.8313 36.7418 51.5615C36.6099 51.2918 36.4016 51.0805 36.1169 50.9277C35.8352 50.7748 35.4636 50.6984 35.002 50.6984H33.2578V58.7139H31.8687ZM42.9467 58.7139H39.9662V49.5071H43.0411C43.9432 49.5071 44.7179 49.6914 45.3653 50.06C46.0126 50.4257 46.5087 50.9516 46.8533 51.6379C47.201 52.3213 47.3748 53.1409 47.3748 54.097C47.3748 55.056 47.1995 55.8802 46.8488 56.5695C46.5012 57.2588 45.9977 57.7893 45.3383 58.1609C44.679 58.5296 43.8818 58.7139 42.9467 58.7139ZM41.3553 57.5001H42.8703C43.5716 57.5001 44.1545 57.3682 44.619 57.1045C45.0836 56.8377 45.4312 56.4526 45.662 55.9491C45.8928 55.4426 46.0082 54.8253 46.0082 54.097C46.0082 53.3747 45.8928 52.7618 45.662 52.2583C45.4342 51.7548 45.0941 51.3727 44.6415 51.112C44.189 50.8512 43.627 50.7209 42.9557 50.7209H41.3553V57.5001ZM49.1022 58.7139V49.5071H54.8115V50.7029H50.4913V53.5081H54.4024V54.6994H50.4913V58.7139H49.1022Z" fill="white"/>
</g>
<defs>
<linearGradient id="paint0_linear_584_9938" x1="32.5" y1="74.6" x2="69.3636" y2="-27.6808" gradientUnits="userSpaceOnUse">
<stop stop-color="#A592DD"/>
<stop offset="1" stop-color="#E6DDFF"/>
</linearGradient>
<linearGradient id="paint1_linear_584_9938" x1="49.5997" y1="35.2857" x2="53.9397" y2="25.9375" gradientUnits="userSpaceOnUse">
<stop stop-color="#A592DD"/>
<stop offset="1" stop-color="#E6DDFF"/>
</linearGradient>
<clipPath id="clip0_584_9938">
<rect width="86" height="86" fill="white"/>
</clipPath>
</defs>
</svg>
