<svg width="108" height="108" viewBox="0 0 108 108" fill="none" xmlns="http://www.w3.org/2000/svg">
<g clip-path="url(#clip0_882_18243)">
<circle cx="54" cy="54" r="54" fill="#FFFBF1"/>
<circle cx="54" cy="54" r="54" fill="#F6F4FC"/>
<circle cx="54" cy="54" r="53.75" stroke="black" stroke-opacity="0.04" stroke-width="0.5"/>
<path d="M69.0878 42.5078H38.7326C37.1426 42.5078 35.8417 41.2069 35.8417 39.6168C35.8417 38.0268 37.1426 36.7259 38.7326 36.7259H44.5146C45.3819 36.7259 45.9601 36.1477 45.9601 35.2804C45.9601 34.4131 45.3819 33.8349 44.5146 33.8349H38.7326C35.5526 33.8349 32.9507 36.4368 32.9507 39.6168V62.7446C32.9507 65.9247 35.5526 68.5266 38.7326 68.5266H69.0878C71.5452 68.5266 73.4243 66.6474 73.4243 64.1901V46.8443C73.4243 44.3869 71.5452 42.5078 69.0878 42.5078ZM70.5333 50.8916V60.1427C70.0997 59.9982 69.666 59.8536 69.0878 59.8536H63.3059C60.8486 59.8536 58.9694 57.9745 58.9694 55.5172C58.9694 53.0599 60.8486 51.1807 63.3059 51.1807H69.0878C69.666 51.1807 70.0997 51.0362 70.5333 50.8916Z" fill="url(#paint0_linear_882_18243)"/>
<path d="M40.1781 38.1734C39.3108 38.1734 38.7326 38.7516 38.7326 39.6189C38.7326 40.4862 39.3108 41.0644 40.1781 41.0644H67.6424C68.076 41.0644 68.5096 40.7753 68.7987 40.4862C69.0878 40.0526 69.0878 39.6189 68.9433 39.1853L66.0523 31.9578C65.7632 31.2351 64.8959 30.8015 64.1732 31.0906L45.671 38.1734H40.1781Z" fill="url(#paint1_linear_882_18243)"/>
<path d="M66.1969 54.0717H63.3059C62.4386 54.0717 61.8604 54.6499 61.8604 55.5172C61.8604 56.3845 62.4386 56.9627 63.3059 56.9627H66.1969C67.0642 56.9627 67.6424 56.3845 67.6424 55.5172C67.6424 54.6499 67.0642 54.0717 66.1969 54.0717Z" fill="url(#paint2_linear_882_18243)"/>
</g>
<defs>
<linearGradient id="paint0_linear_882_18243" x1="41.8043" y1="76.929" x2="65.4309" y2="-8.70285" gradientUnits="userSpaceOnUse">
<stop stop-color="#A592DD"/>
<stop offset="1" stop-color="#E6DDFF"/>
</linearGradient>
<linearGradient id="paint1_linear_882_18243" x1="41.8043" y1="76.929" x2="65.4309" y2="-8.70285" gradientUnits="userSpaceOnUse">
<stop stop-color="#A592DD"/>
<stop offset="1" stop-color="#E6DDFF"/>
</linearGradient>
<linearGradient id="paint2_linear_882_18243" x1="41.8043" y1="76.929" x2="65.4309" y2="-8.70285" gradientUnits="userSpaceOnUse">
<stop stop-color="#A592DD"/>
<stop offset="1" stop-color="#E6DDFF"/>
</linearGradient>
<clipPath id="clip0_882_18243">
<rect width="108" height="108" fill="white"/>
</clipPath>
</defs>
</svg>
