<svg width="24" height="24" viewBox="0 0 24 24" fill="none" xmlns="http://www.w3.org/2000/svg">
<path d="M20.3332 16.1014V18.6014C20.3341 18.8335 20.2866 19.0632 20.1936 19.2758C20.1006 19.4885 19.9643 19.6794 19.7933 19.8363C19.6222 19.9932 19.4203 20.1126 19.2005 20.187C18.9806 20.2613 18.7477 20.2889 18.5165 20.268C15.9522 19.9894 13.489 19.1132 11.3249 17.7097C9.31139 16.4303 7.60431 14.7232 6.32486 12.7097C4.91651 10.5357 4.04007 8.06054 3.76653 5.48472C3.7457 5.25427 3.77309 5.02202 3.84695 4.80274C3.9208 4.58346 4.03951 4.38196 4.1955 4.21107C4.3515 4.04018 4.54137 3.90364 4.75302 3.81015C4.96468 3.71666 5.19348 3.66827 5.42486 3.66805H7.92486C8.32928 3.66407 8.72136 3.80728 9.028 4.07099C9.33464 4.33471 9.53493 4.70092 9.59153 5.10138C9.69705 5.90144 9.89274 6.68699 10.1749 7.44305C10.287 7.74132 10.3112 8.06548 10.2448 8.37712C10.1783 8.68875 10.0239 8.97481 9.79986 9.20138L8.74153 10.2597C9.92783 12.346 11.6552 14.0734 13.7415 15.2597L14.7999 14.2014C15.0264 13.9773 15.3125 13.8229 15.6241 13.7565C15.9358 13.69 16.2599 13.7143 16.5582 13.8264C17.3143 14.1085 18.0998 14.3042 18.8999 14.4097C19.3047 14.4668 19.6744 14.6707 19.9386 14.9826C20.2029 15.2945 20.3433 15.6927 20.3332 16.1014Z" stroke="url(#paint0_linear_752_17838)" stroke-width="1.3" stroke-linecap="round" stroke-linejoin="round"/>
<defs>
<linearGradient id="paint0_linear_752_17838" x1="7.55534" y1="20.8903" x2="18.6664" y2="7.00137" gradientUnits="userSpaceOnUse">
<stop stop-color="#2E2C2C"/>
<stop offset="0.674628" stop-color="#4B4949"/>
<stop offset="1" stop-color="#131313"/>
<stop offset="1" stop-opacity="0.94"/>
<stop offset="1" stop-color="#434343"/>
</linearGradient>
</defs>
</svg>
