<svg width="18" height="18" viewBox="0 0 18 18" fill="none" xmlns="http://www.w3.org/2000/svg">
<path d="M8.99935 0.666016C7.35118 0.666016 5.74001 1.15476 4.3696 2.07044C2.99919 2.98611 1.93109 4.2876 1.30036 5.81032C0.669626 7.33304 0.504599 9.00859 0.826142 10.6251C1.14769 12.2416 1.94136 13.7265 3.1068 14.8919C4.27223 16.0573 5.75709 16.851 7.3736 17.1726C8.99011 17.4941 10.6657 17.3291 12.1884 16.6983C13.7111 16.0676 15.0126 14.9995 15.9283 13.6291C16.8439 12.2587 17.3327 10.6475 17.3327 8.99935C17.3327 7.905 17.1171 6.82137 16.6983 5.81032C16.2796 4.79927 15.6657 3.88061 14.8919 3.10679C14.1181 2.33297 13.1994 1.71914 12.1884 1.30035C11.1773 0.881564 10.0937 0.666016 8.99935 0.666016V0.666016ZM9.83269 12.3327C9.83269 12.5537 9.74489 12.7657 9.58861 12.9219C9.43233 13.0782 9.22037 13.166 8.99935 13.166C8.77834 13.166 8.56638 13.0782 8.4101 12.9219C8.25382 12.7657 8.16602 12.5537 8.16602 12.3327V8.16602C8.16602 7.945 8.25382 7.73304 8.4101 7.57676C8.56638 7.42048 8.77834 7.33268 8.99935 7.33268C9.22037 7.33268 9.43233 7.42048 9.58861 7.57676C9.74489 7.73304 9.83269 7.945 9.83269 8.16602V12.3327ZM8.99935 6.49935C8.83453 6.49935 8.67342 6.45048 8.53638 6.35891C8.39934 6.26734 8.29253 6.13719 8.22945 5.98492C8.16638 5.83265 8.14988 5.66509 8.18203 5.50344C8.21419 5.34179 8.29355 5.1933 8.4101 5.07676C8.52664 4.96022 8.67513 4.88085 8.83678 4.84869C8.99843 4.81654 9.16598 4.83304 9.31826 4.89612C9.47053 4.95919 9.60068 5.066 9.69224 5.20304C9.78381 5.34008 9.83269 5.5012 9.83269 5.66602C9.83269 5.88703 9.74489 6.09899 9.58861 6.25527C9.43233 6.41155 9.22037 6.49935 8.99935 6.49935Z" fill="#3B3B3B"/>
</svg>
