<svg width="16" height="14" viewBox="0 0 16 14" fill="none" xmlns="http://www.w3.org/2000/svg">
<path d="M4.51324 2.4497C4.40024 2.4497 4.30778 2.35614 4.30778 2.2418C4.30778 2.12746 4.40024 2.03391 4.51324 2.03391H6.3281C6.4411 2.03391 6.53356 2.12746 6.53356 2.2418C6.53356 2.35614 6.4411 2.4497 6.3281 2.4497H4.51324ZM4.51324 4.45588C4.40024 4.45588 4.30778 4.36233 4.30778 4.24799C4.30778 4.13365 4.40024 4.04009 4.51324 4.04009H9.07094C9.18394 4.04009 9.27639 4.13365 9.27639 4.24799C9.27639 4.36233 9.18394 4.45588 9.07094 4.45588H4.51324ZM8.34842 12.7578C9.98522 14.4141 12.6356 14.4141 14.2724 12.7578C15.9092 11.1016 15.9092 8.41975 14.2724 6.76352C12.6356 5.10729 9.98522 5.10729 8.34842 6.76352C6.71162 8.41629 6.71162 11.1016 8.34842 12.7578ZM6.82462 8.72466C7.0198 7.85843 7.46153 7.06497 8.06421 6.45861H4.51324C4.40024 6.45861 4.30778 6.36505 4.30778 6.25071C4.30778 6.13637 4.40024 6.04282 4.51324 6.04282H8.53675C9.25585 5.49189 10.1427 5.14887 11.105 5.10729V0.755352C11.105 0.339562 10.7694 0 10.3585 0H3.22572C2.8148 0 2.47923 0.339562 2.47923 0.755352V7.96931C2.47923 8.3851 2.8148 8.72466 3.22572 8.72466H6.82462ZM6.82805 10.814C6.70477 10.27 6.67738 9.70177 6.74929 9.14045H3.22572C2.5888 9.14045 2.06831 8.61379 2.06831 7.96931V2.08935H1.24649C0.835578 2.08935 0.5 2.42891 0.5 2.8447V10.0587C0.5 10.4744 0.835578 10.814 1.24649 10.814H6.82805ZM11.5124 12.1134V12.6331C11.5124 12.7474 11.42 12.841 11.307 12.841C11.194 12.841 11.1015 12.7474 11.1015 12.6331V12.1134C10.3996 12.0406 9.7147 11.559 9.7147 10.8383C9.7147 10.7239 9.80716 10.6304 9.92016 10.6304C10.0332 10.6304 10.1256 10.7239 10.1256 10.8383C10.1256 11.5971 11.3926 12.0198 12.1631 11.4377C12.3651 11.2818 12.4884 11.0704 12.4884 10.8383C12.4884 9.4419 9.7147 10.5403 9.7147 8.68308C9.7147 7.96238 10.3996 7.48076 11.1015 7.40799V6.88826C11.1015 6.77391 11.194 6.68036 11.307 6.68036C11.42 6.68036 11.5124 6.77391 11.5124 6.88826V7.40799C12.2144 7.48076 12.8993 7.96238 12.8993 8.68308C12.8993 8.79743 12.8068 8.89098 12.6938 8.89098C12.5808 8.89098 12.4884 8.79743 12.4884 8.68308C12.4884 8.4544 12.3651 8.24304 12.1631 8.08712C11.6939 7.7233 10.92 7.7233 10.4509 8.08712C10.2489 8.24304 10.1256 8.4544 10.1256 8.68308C10.1256 10.0794 12.8993 8.98107 12.8993 10.8383C12.8993 11.2021 12.7144 11.5312 12.413 11.7669C12.1733 11.9505 11.8617 12.0752 11.5124 12.1134Z" fill="#A592DD"/>
</svg>
