<svg width="25" height="24" viewBox="0 0 25 24" fill="none" xmlns="http://www.w3.org/2000/svg">
<g clip-path="url(#clip0_2077_8630)">
<path d="M18.5 14.9985C17.7144 14.9992 16.9604 15.308 16.4 15.8585L8.50003 12.3385V11.9985V11.6685L16.4 8.13853C16.8949 8.62355 17.5423 8.92233 18.2324 8.98414C18.9225 9.04595 19.6128 8.86697 20.1859 8.47759C20.759 8.08822 21.1797 7.51247 21.3765 6.84812C21.5733 6.18377 21.534 5.47178 21.2654 4.83308C20.9968 4.19439 20.5154 3.66836 19.9029 3.34434C19.2905 3.02032 18.5848 2.91829 17.9056 3.05558C17.2265 3.19286 16.6158 3.561 16.1773 4.09746C15.7388 4.63393 15.4995 5.30565 15.5 5.99853V6.33853L7.60003 9.85853C7.17839 9.44428 6.64378 9.16382 6.0633 9.05235C5.48282 8.94089 4.88235 9.00338 4.33726 9.23199C3.79218 9.46061 3.32677 9.84514 2.99947 10.3373C2.67217 10.8295 2.49756 11.4074 2.49756 11.9985C2.49756 12.5896 2.67217 13.1675 2.99947 13.6597C3.32677 14.1519 3.79218 14.5365 4.33726 14.7651C4.88235 14.9937 5.48282 15.0562 6.0633 14.9447C6.64378 14.8332 7.17839 14.5528 7.60003 14.1385L15.5 17.6685V17.9985C15.5 18.5919 15.676 19.1719 16.0056 19.6652C16.3353 20.1586 16.8038 20.5431 17.352 20.7702C17.9002 20.9972 18.5034 21.0566 19.0853 20.9409C19.6672 20.8251 20.2018 20.5394 20.6214 20.1198C21.0409 19.7003 21.3266 19.1657 21.4424 18.5838C21.5581 18.0019 21.4987 17.3987 21.2717 16.8505C21.0446 16.3023 20.6601 15.8338 20.1667 15.5041C19.6734 15.1745 19.0934 14.9985 18.5 14.9985Z" fill="white"/>
</g>
<defs>
<clipPath id="clip0_2077_8630">
<rect width="24" height="24" fill="white" transform="translate(0.5)"/>
</clipPath>
</defs>
</svg>
