<svg width="24" height="24" viewBox="0 0 24 24" fill="none" xmlns="http://www.w3.org/2000/svg">
<path d="M8.143 0.905273C9.08968 4.75198 12.1387 7.72734 16.0073 8.57973L16.286 8.64112L16.0073 8.70252C12.1387 9.55491 9.08968 12.5303 8.143 16.377C7.19633 12.5303 4.14735 9.55491 0.278655 8.70252L0 8.64112L0.278654 8.57973C4.14735 7.72734 7.19633 4.75198 8.143 0.905273Z" fill="white"/>
<path d="M18.8088 13.1196C19.4123 15.5997 21.372 17.5216 23.8633 18.0768L24 18.1072L23.8633 18.1377C21.372 18.6928 19.4123 20.6148 18.8088 23.0948C18.2054 20.6148 16.2456 18.6928 13.7543 18.1377L13.6177 18.1072L13.7543 18.0768C16.2456 17.5216 18.2054 15.5997 18.8088 13.1196Z" fill="white"/>
</svg>
