<svg width="17" height="21" viewBox="0 0 17 21" fill="none" xmlns="http://www.w3.org/2000/svg">
<path d="M11.2483 0.615939C10.8489 0.22131 10.3101 0 9.74872 0H2.125C0.956249 0 0.0106252 0.945 0.0106252 2.1L0 18.9C0 20.055 0.945624 21 2.11437 21H14.875C16.0437 21 17 20.055 17 18.9V7.19106C17 6.62089 16.7717 6.07444 16.3662 5.67367L11.2483 0.615939Z" fill="url(#paint0_linear_1225_51457)"/>
<path d="M15.0987 6.15515L10.3294 1.68394C9.64816 1.04527 8.5332 1.52831 8.5332 2.46211V6.93332C8.5332 7.52242 9.01076 7.99998 9.59987 7.99998H14.3692C15.3361 7.99998 15.8041 6.8165 15.0987 6.15515Z" fill="url(#paint1_linear_1225_51457)"/>
<path d="M3.44253 19V14.972H4.87828C5.19165 14.972 5.45127 15.0291 5.65712 15.1431C5.86298 15.2572 6.01705 15.4132 6.11932 15.6112C6.22159 15.8079 6.27273 16.0295 6.27273 16.276C6.27273 16.5238 6.22094 16.7467 6.11735 16.9447C6.01508 17.1414 5.86036 17.2974 5.65319 17.4128C5.44733 17.5269 5.18837 17.5839 4.87631 17.5839H3.88899V17.0686H4.82124C5.01923 17.0686 5.17985 17.0345 5.3031 16.9663C5.42636 16.8969 5.51683 16.8024 5.57452 16.6831C5.63221 16.5638 5.66106 16.4281 5.66106 16.276C5.66106 16.1239 5.63221 15.9889 5.57452 15.8708C5.51683 15.7528 5.4257 15.6604 5.30114 15.5935C5.17788 15.5267 5.0153 15.4932 4.81337 15.4932H4.05026V19H3.44253ZM8.28917 19H6.98519V14.972H8.33047C8.72514 14.972 9.06408 15.0527 9.3473 15.2139C9.63052 15.3739 9.84752 15.604 9.99831 15.9043C10.1504 16.2032 10.2265 16.5618 10.2265 16.9801C10.2265 17.3997 10.1497 17.7603 9.99634 18.0618C9.84424 18.3634 9.62396 18.5955 9.3355 18.7581C9.04704 18.9194 8.69826 19 8.28917 19ZM7.59293 18.469H8.25574C8.56255 18.469 8.81758 18.4113 9.02082 18.2959C9.22405 18.1792 9.37615 18.0107 9.47711 17.7904C9.57807 17.5688 9.62855 17.2987 9.62855 16.9801C9.62855 16.6641 9.57807 16.396 9.47711 16.1757C9.37746 15.9554 9.22864 15.7882 9.03065 15.6742C8.83266 15.5601 8.58681 15.5031 8.29311 15.5031H7.59293V18.469ZM10.9822 19V14.972H13.48V15.4952H11.5899V16.7225H13.301V17.2437H11.5899V19H10.9822Z" fill="white"/>
<defs>
<linearGradient id="paint0_linear_1225_51457" x1="3.71875" y1="25.2" x2="19.8466" y2="-19.5479" gradientUnits="userSpaceOnUse">
<stop stop-color="#A592DD"/>
<stop offset="1" stop-color="#E6DDFF"/>
</linearGradient>
<linearGradient id="paint1_linear_1225_51457" x1="11.1999" y1="7.99998" x2="13.0986" y2="3.91014" gradientUnits="userSpaceOnUse">
<stop stop-color="#A592DD"/>
<stop offset="1" stop-color="#E6DDFF"/>
</linearGradient>
</defs>
</svg>
