<svg width="142" height="143" viewBox="0 0 142 143" fill="none" xmlns="http://www.w3.org/2000/svg">
<g clip-path="url(#clip0_2001_200779)">
<circle cx="71" cy="71.4999" r="71" fill="#F6F4FC"/>
<g clip-path="url(#clip1_2001_200779)">
<path d="M44.75 47.2956C44.75 35.3488 54.4348 25.6641 66.3815 25.6641C78.3282 25.6641 88.0131 35.3488 88.0131 47.2956C88.0131 59.2423 78.3282 68.9271 66.3815 68.9271C54.4348 68.9271 44.75 59.2423 44.75 47.2956Z" fill="#152C70"/>
<path d="M44.75 47.2956C44.75 35.3488 54.4348 25.6641 66.3815 25.6641C78.3282 25.6641 88.0131 35.3488 88.0131 47.2956C88.0131 59.2423 78.3282 68.9271 66.3815 68.9271C54.4348 68.9271 44.75 59.2423 44.75 47.2956Z" fill="url(#paint0_linear_2001_200779)"/>
<path d="M64.4135 77.5797C66.0143 77.5797 67.5836 77.7143 69.1108 77.973C67.3573 81.8061 66.38 86.0684 66.38 90.5586C66.38 99.0326 69.8605 106.694 75.4696 112.19H38.4556C34.763 112.19 31.7695 109.197 31.7695 105.504C31.7695 105.21 31.7741 104.918 31.7831 104.626C31.7741 104.47 31.7695 104.314 31.7695 104.156C31.7695 89.4784 43.668 77.5797 58.3454 77.5797H64.4135Z" fill="#152C70"/>
<path d="M64.4135 77.5797C66.0143 77.5797 67.5836 77.7143 69.1108 77.973C67.3573 81.8061 66.38 86.0684 66.38 90.5586C66.38 99.0326 69.8605 106.694 75.4696 112.19H38.4556C34.763 112.19 31.7695 109.197 31.7695 105.504C31.7695 105.21 31.7741 104.918 31.7831 104.626C31.7741 104.47 31.7695 104.314 31.7695 104.156C31.7695 89.4784 43.668 77.5797 58.3454 77.5797H64.4135Z" fill="url(#paint1_linear_2001_200779)"/>
<path fill-rule="evenodd" clip-rule="evenodd" d="M118.294 90.5588C118.294 102.505 108.609 112.19 96.6628 112.19C84.7161 112.19 75.0312 102.505 75.0312 90.5588C75.0312 78.6121 84.7161 68.9272 96.6628 68.9272C108.609 68.9272 118.294 78.6121 118.294 90.5588ZM107.61 88.5267L96.7939 99.3425C95.5267 100.61 93.4704 100.607 92.2032 99.3403L87.8791 95.0162C86.6119 93.749 86.6119 91.6949 87.8791 90.4277C89.1463 89.1605 91.2004 89.1605 92.4676 90.4277L94.4996 92.4593L103.021 83.9382C104.288 82.6711 106.342 82.6711 107.61 83.9382C108.877 85.2054 108.877 87.2595 107.61 88.5267Z" fill="#70CA98"/>
</g>
</g>
<defs>
<linearGradient id="paint0_linear_2001_200779" x1="54.2138" y1="77.5797" x2="82.2205" y2="-18.4111" gradientUnits="userSpaceOnUse">
<stop stop-color="#A592DD"/>
<stop offset="1" stop-color="#E6DDFF"/>
</linearGradient>
<linearGradient id="paint1_linear_2001_200779" x1="41.3289" y1="119.112" x2="59.6085" y2="40.0065" gradientUnits="userSpaceOnUse">
<stop stop-color="#A592DD"/>
<stop offset="1" stop-color="#E6DDFF"/>
</linearGradient>
<clipPath id="clip0_2001_200779">
<rect width="142" height="142" fill="white" transform="translate(0 0.5)"/>
</clipPath>
<clipPath id="clip1_2001_200779">
<rect width="113.93" height="112.279" fill="white" transform="translate(14.8613 20.3139)"/>
</clipPath>
</defs>
</svg>
