<svg width="24" height="24" viewBox="0 0 24 24" fill="none" xmlns="http://www.w3.org/2000/svg">
<path d="M11.3209 3.03734C9.46075 3.30559 7.92412 4.59743 7.34041 6.39048C6.59846 8.66708 7.60413 11.1519 9.71744 12.2638C10.4664 12.6591 11.1556 12.832 11.9995 12.832C12.8435 12.832 13.5327 12.6591 14.2816 12.2638C16.0117 11.3531 17.0349 9.50007 16.8837 7.55525C16.8485 7.07169 16.7993 6.81403 16.6551 6.37989C16.0996 4.67861 14.6227 3.38324 12.8821 3.0691C12.4496 2.99145 11.7358 2.97733 11.3209 3.03734Z" fill="#1F1F1F"/>
<path d="M10.5759 13.6663C10.4528 13.7334 10.3825 13.8499 10.3825 13.9946C10.3825 14.0828 10.5337 14.584 10.7763 15.3182L11.1666 16.5006L10.9275 17.7183C10.7974 18.389 10.6779 18.9537 10.6673 18.9784C10.6568 18.9996 10.284 18.0007 9.84098 16.7548C9.39792 15.5088 9.00761 14.4323 8.97245 14.3652C8.83179 14.0758 8.70169 14.0475 8.19182 14.1922C7.03144 14.517 5.11152 15.3358 4.57353 15.7312C3.80345 16.2994 3.32171 17.0195 3.09667 17.9301C3.00876 18.2937 2.97008 19.229 3.02634 19.5996C3.13535 20.2914 3.6839 20.8562 4.35551 20.9656C4.63682 21.0115 19.3632 21.0115 19.6445 20.9656C20.3161 20.8562 20.8647 20.2914 20.9737 19.5996C21.0299 19.229 20.9912 18.2937 20.9033 17.9301C20.6783 17.0195 20.1965 16.2994 19.4265 15.7312C18.8885 15.3358 16.9686 14.517 15.8082 14.1922C15.2983 14.0475 15.1682 14.0758 15.0276 14.3652C14.9924 14.4323 14.6021 15.5088 14.159 16.7548C13.716 18.0007 13.3432 18.9996 13.3327 18.9784C13.3221 18.9537 13.2026 18.389 13.0725 17.7183L12.8334 16.5006L13.2237 15.3182C13.4663 14.584 13.6175 14.0828 13.6175 13.9946C13.6175 13.8463 13.5472 13.7299 13.4171 13.6628C13.3116 13.6099 10.6743 13.6099 10.5759 13.6663Z" fill="#1F1F1F"/>
</svg>
