<svg width="86" height="86" viewBox="0 0 86 86" fill="none" xmlns="http://www.w3.org/2000/svg">
<g clip-path="url(#clip0_577_9136)">
<circle cx="43" cy="43" r="43" fill="#F6F4FC"/>
<path d="M49.7103 18.4079C48.7976 17.5058 47.566 17 46.2828 17H28.8571C26.1857 17 24.0243 19.16 24.0243 21.8L24 60.2C24 62.84 26.1614 65 28.8329 65H58C60.6714 65 62.8571 62.84 62.8571 60.2V33.4367C62.8571 32.1335 62.3354 30.8844 61.4084 29.9684L49.7103 18.4079Z" fill="url(#paint0_linear_577_9136)"/>
<path d="M58.5116 31.0689L47.6104 20.849C46.0532 19.3892 43.5048 20.4933 43.5048 22.6277V32.8476C43.5048 34.1941 44.5963 35.2857 45.9429 35.2857H56.8441C59.0543 35.2857 60.124 32.5806 58.5116 31.0689Z" fill="url(#paint1_linear_577_9136)"/>
<path d="M39.5155 52.5011H38.1129C38.0589 52.2014 37.9585 51.9376 37.8117 51.7099C37.6648 51.4821 37.485 51.2888 37.2722 51.13C37.0594 50.9711 36.8212 50.8512 36.5574 50.7703C36.2967 50.6894 36.0195 50.6489 35.7257 50.6489C35.1953 50.6489 34.7203 50.7823 34.3007 51.049C33.8841 51.3158 33.5544 51.7069 33.3117 52.2224C33.0719 52.7378 32.952 53.3672 32.952 54.1105C32.952 54.8597 33.0719 55.4921 33.3117 56.0076C33.5544 56.5231 33.8856 56.9127 34.3052 57.1764C34.7247 57.4401 35.1968 57.572 35.7213 57.572C36.012 57.572 36.2877 57.533 36.5484 57.4551C36.8122 57.3742 37.0504 57.2558 37.2632 57.1C37.476 56.9441 37.6558 56.7538 37.8027 56.5291C37.9525 56.3013 38.0559 56.0405 38.1129 55.7468L39.5155 55.7513C39.4405 56.2039 39.2952 56.6205 39.0794 57.0011C38.8666 57.3787 38.5924 57.7054 38.2567 57.9811C37.924 58.2538 37.5434 58.4651 37.1149 58.615C36.6863 58.7648 36.2188 58.8397 35.7123 58.8397C34.9151 58.8397 34.2048 58.6509 33.5814 58.2733C32.958 57.8927 32.4665 57.3487 32.1069 56.6414C31.7502 55.9341 31.5719 55.0905 31.5719 54.1105C31.5719 53.1275 31.7517 52.2838 32.1114 51.5795C32.471 50.8722 32.9625 50.3298 33.5859 49.9521C34.2093 49.5715 34.9181 49.3812 35.7123 49.3812C36.2008 49.3812 36.6563 49.4516 37.0789 49.5925C37.5045 49.7304 37.8866 49.9341 38.2252 50.2039C38.5639 50.4706 38.8441 50.7973 39.0659 51.1839C39.2877 51.5675 39.4375 52.0066 39.5155 52.5011ZM41.9824 49.5071L44.5448 57.0056H44.6482L47.2106 49.5071H48.7121L45.3989 58.7139H43.7941L40.4809 49.5071H41.9824ZM55.0632 51.9257C55.0152 51.5001 54.8174 51.1704 54.4698 50.9366C54.1221 50.6999 53.6845 50.5815 53.1571 50.5815C52.7794 50.5815 52.4528 50.6414 52.177 50.7613C51.9013 50.8782 51.687 51.04 51.5342 51.2468C51.3843 51.4506 51.3094 51.6829 51.3094 51.9436C51.3094 52.1624 51.3604 52.3512 51.4623 52.5101C51.5672 52.6689 51.7035 52.8023 51.8714 52.9102C52.0422 53.0151 52.225 53.1035 52.4198 53.1754C52.6146 53.2443 52.8019 53.3013 52.9817 53.3462L53.8808 53.58C54.1745 53.6519 54.4757 53.7493 54.7844 53.8722C55.0931 53.9951 55.3793 54.1569 55.6431 54.3577C55.9068 54.5585 56.1196 54.8073 56.2814 55.104C56.4463 55.4007 56.5287 55.7558 56.5287 56.1694C56.5287 56.6909 56.3938 57.1539 56.1241 57.5585C55.8574 57.9631 55.4693 58.2823 54.9598 58.5161C54.4533 58.7498 53.8404 58.8667 53.1211 58.8667C52.4318 58.8667 51.8354 58.7573 51.3319 58.5385C50.8284 58.3198 50.4343 58.0096 50.1496 57.608C49.8649 57.2034 49.7075 56.7239 49.6775 56.1694H51.0712C51.0981 56.5021 51.206 56.7793 51.3948 57.0011C51.5866 57.2199 51.8309 57.3832 52.1276 57.4911C52.4273 57.596 52.7555 57.6484 53.1121 57.6484C53.5047 57.6484 53.8539 57.587 54.1596 57.4641C54.4683 57.3382 54.711 57.1644 54.8878 56.9426C55.0647 56.7179 55.1531 56.4556 55.1531 56.1559C55.1531 55.8832 55.0751 55.6599 54.9193 55.4861C54.7665 55.3123 54.5582 55.1684 54.2944 55.0545C54.0337 54.9406 53.7385 54.8402 53.4088 54.7533L52.3209 54.4566C51.5836 54.2558 50.9992 53.9606 50.5677 53.571C50.1391 53.1814 49.9248 52.6659 49.9248 52.0246C49.9248 51.4941 50.0687 51.031 50.3564 50.6354C50.6441 50.2398 51.0337 49.9326 51.5252 49.7139C52.0167 49.4921 52.5712 49.3812 53.1885 49.3812C53.8119 49.3812 54.3619 49.4906 54.8384 49.7094C55.3179 49.9282 55.6955 50.2294 55.9713 50.613C56.247 50.9936 56.3908 51.4311 56.4028 51.9257H55.0632Z" fill="white"/>
</g>
<defs>
<linearGradient id="paint0_linear_577_9136" x1="32.5" y1="74.6" x2="69.3636" y2="-27.6808" gradientUnits="userSpaceOnUse">
<stop stop-color="#A592DD"/>
<stop offset="1" stop-color="#E6DDFF"/>
</linearGradient>
<linearGradient id="paint1_linear_577_9136" x1="49.6" y1="35.2857" x2="53.9399" y2="25.9375" gradientUnits="userSpaceOnUse">
<stop stop-color="#A592DD"/>
<stop offset="1" stop-color="#E6DDFF"/>
</linearGradient>
<clipPath id="clip0_577_9136">
<rect width="86" height="86" fill="white"/>
</clipPath>
</defs>
</svg>
