<svg width="86" height="86" viewBox="0 0 86 86" fill="none" xmlns="http://www.w3.org/2000/svg">
<g clip-path="url(#clip0_882_18431)">
<circle cx="43" cy="43" r="43" fill="url(#paint0_linear_882_18431)"/>
<path d="M24.3367 23.2073C24.3367 20.3382 26.676 18 29.544 18C32.412 18 34.7513 20.3393 34.7513 23.2073C34.7513 26.0731 32.412 28.4146 29.544 28.4146C26.676 28.4146 24.3367 26.0731 24.3367 23.2073ZM23.985 45.8747C24.1387 45.5395 24.3079 45.2066 24.496 44.8836C26.0201 42.2402 28.4246 40.413 31.1234 39.5569C31.6632 36.2996 33.9228 33.6097 36.9302 32.4561C35.7323 31.6155 34.2745 31.12 32.7106 31.12H26.3774C22.3204 31.12 19 34.4403 19 38.4973V42.8463C19 44.5109 20.3638 45.8747 22.0284 45.8747H23.985ZM60.364 31.1211H54.0341C52.4669 31.1211 51.0091 31.6166 49.8112 32.4572C53.2721 33.7833 55.743 37.1413 55.743 41.0567V45.4057C55.743 45.5628 55.733 45.7187 55.7175 45.8758H64.713C66.3776 45.8758 67.7414 44.512 67.7414 42.8474V38.4984C67.7414 34.4403 64.421 31.1211 60.364 31.1211ZM57.1974 28.4146C60.0665 28.4146 62.4047 26.0731 62.4047 23.2073C62.4047 20.3382 60.0654 18 57.1974 18C54.3317 18 51.9901 20.3393 51.9901 23.2073C51.989 26.0731 54.3317 28.4146 57.1974 28.4146ZM46.5373 33.6794H40.2074C36.8218 33.6794 33.9494 35.9899 33.09 39.1123C35.5919 38.7672 38.222 39.2162 40.5735 40.5734C43.6118 42.3287 45.5706 45.2387 46.2199 48.433H50.8852C52.5498 48.433 53.9136 47.0692 53.9136 45.4046V41.0556C53.9147 36.9997 50.5943 33.6794 46.5373 33.6794ZM43.3707 30.9729C46.2398 30.9729 48.578 28.6314 48.578 25.7656C48.578 22.8965 46.2387 20.5583 43.3707 20.5583C40.5027 20.5583 38.1634 22.8976 38.1634 25.7656C38.1634 28.6314 40.5016 30.9729 43.3707 30.9729ZM43.3021 55.7384C40.5558 60.4944 34.4736 62.1248 29.7165 59.3784C24.9638 56.6321 23.3335 50.5522 26.0798 45.7961C28.8228 41.0401 34.9061 39.4098 39.6621 42.1561C44.4181 44.9036 46.0484 50.9824 43.3021 55.7384ZM39.9596 47.4397C39.8749 47.3548 39.7742 47.2874 39.6634 47.2414C39.5525 47.1954 39.4337 47.1718 39.3137 47.1718C39.1937 47.1718 39.0749 47.1954 38.9641 47.2414C38.8532 47.2874 38.7525 47.3548 38.6678 47.4397L33.946 52.1615L30.7131 48.9263C30.3558 48.569 29.7751 48.569 29.4212 48.9263C29.3363 49.011 29.2689 49.1117 29.2229 49.2225C29.1769 49.3334 29.1532 49.4522 29.1532 49.5722C29.1532 49.6922 29.1769 49.811 29.2229 49.9218C29.2689 50.0327 29.3363 50.1334 29.4212 50.2181L33.299 54.0959C33.3838 54.1809 33.4844 54.2483 33.5953 54.2943C33.7061 54.3402 33.8249 54.3639 33.9449 54.3639C34.0649 54.3639 34.1838 54.3402 34.2946 54.2943C34.4054 54.2483 34.5061 54.1809 34.5909 54.0959L39.9585 48.7316C40.129 48.5599 40.2248 48.3278 40.225 48.0859C40.2252 47.8439 40.1298 47.6117 39.9596 47.4397ZM29.6103 61.3848C29.3357 61.255 29.0667 61.1137 28.804 60.9612C28.5408 60.8074 28.2831 60.6449 28.0331 60.4756L27.1394 62.0274C27.1328 62.0396 27.1239 62.0529 27.1173 62.065C26.6693 61.9611 26.186 62.1524 25.9449 62.5727L20.4301 71.0163C19.9722 71.8126 20.2487 72.838 21.0418 73.2992C21.8381 73.7571 22.8668 73.4839 23.3247 72.6875L28.8394 64.2439C29.0805 63.8236 29.0053 63.3093 28.6923 62.9742C28.7023 62.9587 28.7078 62.9465 28.7178 62.9333L29.6103 61.3848Z" fill="url(#paint1_linear_882_18431)"/>
</g>
<defs>
<linearGradient id="paint0_linear_882_18431" x1="62.5" y1="6" x2="-53" y2="310.5" gradientUnits="userSpaceOnUse">
<stop stop-color="#F3F7F5"/>
<stop offset="1" stop-color="#BCFFDA"/>
</linearGradient>
<linearGradient id="paint1_linear_882_18431" x1="29.6622" y1="85.9526" x2="71.1138" y2="-36.3348" gradientUnits="userSpaceOnUse">
<stop stop-color="#70CA98"/>
<stop offset="1" stop-color="#E6DDFF"/>
<stop offset="1" stop-color="#70CA98"/>
</linearGradient>
<clipPath id="clip0_882_18431">
<rect width="86" height="86" fill="white"/>
</clipPath>
</defs>
</svg>
