<svg width="20" height="19" viewBox="0 0 20 19" fill="none" xmlns="http://www.w3.org/2000/svg">
<path d="M16.5005 13.0005C15.7149 13.0011 14.9609 13.3099 14.4005 13.8605L6.50052 10.3405V10.0005V9.67048L14.4005 6.14048C14.8953 6.6255 15.5428 6.92428 16.2329 6.98609C16.923 7.0479 17.6133 6.86892 18.1864 6.47955C18.7595 6.09018 19.1802 5.51442 19.377 4.85007C19.5738 4.18572 19.5345 3.47373 19.2659 2.83504C18.9973 2.19634 18.5159 1.67031 17.9034 1.34629C17.291 1.02227 16.5853 0.920243 15.9061 1.05753C15.227 1.19481 14.6163 1.56295 14.1778 2.09942C13.7393 2.63588 13.5 3.3076 13.5005 4.00048V4.34048L5.60052 7.86048C5.17888 7.44623 4.64427 7.16577 4.06379 7.05431C3.48331 6.94284 2.88284 7.00534 2.33775 7.23395C1.79267 7.46256 1.32726 7.8471 0.999959 8.33929C0.672657 8.83148 0.498047 9.4094 0.498047 10.0005C0.498047 10.5916 0.672657 11.1695 0.999959 11.6617C1.32726 12.1539 1.79267 12.5384 2.33775 12.767C2.88284 12.9956 3.48331 13.0581 4.06379 12.9467C4.64427 12.8352 5.17888 12.5547 5.60052 12.1405L13.5005 15.6705V16.0005C13.5005 16.5938 13.6765 17.1738 14.0061 17.6672C14.3358 18.1605 14.8043 18.5451 15.3525 18.7721C15.9006 18.9992 16.5038 19.0586 17.0858 18.9428C17.6677 18.8271 18.2023 18.5414 18.6218 18.1218C19.0414 17.7022 19.3271 17.1677 19.4429 16.5858C19.5586 16.0038 19.4992 15.4006 19.2722 14.8524C19.0451 14.3043 18.6606 13.8357 18.1672 13.5061C17.6739 13.1764 17.0939 13.0005 16.5005 13.0005Z" fill="url(#paint0_linear_2508_8647)"/>
<defs>
<linearGradient id="paint0_linear_2508_8647" x1="4.84977" y1="19.6676" x2="21.5271" y2="-0.92574" gradientUnits="userSpaceOnUse">
<stop stop-color="#2E2C2C"/>
<stop offset="0.674628" stop-color="#4B4949"/>
<stop offset="1" stop-color="#131313"/>
<stop offset="1" stop-opacity="0.94"/>
<stop offset="1" stop-color="#434343"/>
</linearGradient>
</defs>
</svg>
