<svg width="16" height="16" viewBox="0 0 16 16" fill="none" xmlns="http://www.w3.org/2000/svg">
<path d="M7.99992 1.33203C6.68138 1.33203 5.39245 1.72302 4.29612 2.45557C3.19979 3.18811 2.34531 4.2293 1.84072 5.44747C1.33614 6.66565 1.20412 8.00609 1.46135 9.2993C1.71859 10.5925 2.35353 11.7804 3.28588 12.7127C4.21823 13.6451 5.40611 14.28 6.69932 14.5373C7.99253 14.7945 9.33297 14.6625 10.5511 14.1579C11.7693 13.6533 12.8105 12.7988 13.5431 11.7025C14.2756 10.6062 14.6666 9.31724 14.6666 7.9987C14.6666 7.12322 14.4941 6.25631 14.1591 5.44747C13.8241 4.63864 13.333 3.90371 12.714 3.28465C12.0949 2.6656 11.36 2.17453 10.5511 1.8395C9.74231 1.50447 8.8754 1.33203 7.99992 1.33203ZM7.99992 11.9987C7.86807 11.9987 7.73917 11.9596 7.62954 11.8863C7.51991 11.8131 7.43446 11.709 7.384 11.5872C7.33354 11.4653 7.32034 11.3313 7.34606 11.202C7.37179 11.0726 7.43528 10.9539 7.52852 10.8606C7.62175 10.7674 7.74054 10.7039 7.86986 10.6782C7.99918 10.6525 8.13323 10.6657 8.25504 10.7161C8.37686 10.7666 8.48098 10.852 8.55423 10.9617C8.62749 11.0713 8.66659 11.2002 8.66659 11.332C8.66659 11.5088 8.59635 11.6784 8.47133 11.8034C8.3463 11.9285 8.17673 11.9987 7.99992 11.9987ZM8.66659 8.5587V9.33203C8.66659 9.50884 8.59635 9.67841 8.47133 9.80344C8.3463 9.92846 8.17673 9.9987 7.99992 9.9987C7.82311 9.9987 7.65354 9.92846 7.52852 9.80344C7.40349 9.67841 7.33325 9.50884 7.33325 9.33203V7.9987C7.33325 7.82189 7.40349 7.65232 7.52852 7.52729C7.65354 7.40227 7.82311 7.33203 7.99992 7.33203C8.1977 7.33203 8.39104 7.27338 8.55549 7.1635C8.71994 7.05362 8.84811 6.89744 8.9238 6.71472C8.99949 6.53199 9.01929 6.33092 8.98071 6.13694C8.94212 5.94296 8.84688 5.76478 8.70703 5.62492C8.56718 5.48507 8.38899 5.38983 8.19501 5.35125C8.00103 5.31266 7.79996 5.33246 7.61724 5.40815C7.43451 5.48384 7.27833 5.61201 7.16845 5.77646C7.05857 5.94091 6.99992 6.13425 6.99992 6.33203C6.99992 6.50884 6.92968 6.67841 6.80466 6.80344C6.67964 6.92846 6.51007 6.9987 6.33325 6.9987C6.15644 6.9987 5.98687 6.92846 5.86185 6.80344C5.73683 6.67841 5.66659 6.50884 5.66659 6.33203C5.66484 5.8989 5.78369 5.47383 6.00983 5.10441C6.23597 4.735 6.56047 4.43582 6.947 4.24037C7.33353 4.04492 7.76683 3.96091 8.1984 3.99776C8.62996 4.03461 9.04276 4.19085 9.39056 4.449C9.73836 4.70714 10.0074 5.057 10.1677 5.45941C10.3279 5.86181 10.373 6.30088 10.2979 6.72745C10.2227 7.15401 10.0303 7.55125 9.74221 7.87467C9.45411 8.19809 9.08167 8.43494 8.66659 8.5587Z" fill="#2E3A59"/>
</svg>
