<svg width="17" height="15" viewBox="0 0 17 15" fill="none" xmlns="http://www.w3.org/2000/svg">
<path d="M13.5933 14.0123H3.40667C3.15628 14.0123 2.90834 13.963 2.67702 13.8672C2.44569 13.7714 2.2355 13.6309 2.05845 13.4539C1.70088 13.0963 1.5 12.6114 1.5 12.1057V1.05683C1.5 0.891204 1.6898 0.797355 1.82142 0.897908L3.04737 1.83453C3.11805 1.88854 3.2159 1.88937 3.28749 1.83657L4.77347 0.74074C4.8446 0.688283 4.94173 0.688737 5.01237 0.741856L6.4667 1.83547C6.53778 1.88892 6.63562 1.88901 6.7068 1.83569L8.16653 0.742328C8.23771 0.689011 8.33555 0.689103 8.40663 0.742554L9.86003 1.83547C9.93112 1.88892 10.029 1.88901 10.1001 1.83569L11.3601 0.891955C11.492 0.793187 11.68 0.887279 11.68 1.05203V12.1057C11.6818 12.612 11.8841 13.0969 12.2428 13.4543C12.6014 13.8117 13.087 14.0123 13.5933 14.0123Z" stroke="#A592DD" stroke-width="1.27333" stroke-miterlimit="10" stroke-linecap="square"/>
<path d="M12.9449 5.73828H15.1248C15.3457 5.73828 15.5248 5.91737 15.5248 6.13828V12.1878C15.4956 12.6812 15.279 13.1448 14.9194 13.4839C14.5597 13.8229 14.0842 14.0117 13.5899 14.0117C13.0956 14.0117 12.6201 13.8229 12.2604 13.4839C11.9007 13.1448 11.6842 12.6812 11.655 12.1878V5.73828H12.9449Z" stroke="#A592DD" stroke-width="1.27333" stroke-miterlimit="10"/>
<path d="M3.5 2L2 1.5V12.5V13.5H11.5V1.5L10.5 2L8.5 1L6.5 2L5 1L3.5 2Z" fill="#A592DD"/>
<path d="M4.04663 5.10547H5.9533" stroke="white" stroke-width="1.27333" stroke-miterlimit="10" stroke-linecap="round"/>
<path d="M4.04663 7.65234H9.1333" stroke="white" stroke-width="1.27333" stroke-miterlimit="10" stroke-linecap="round"/>
<path d="M4.04663 10.1992H9.1333" stroke="white" stroke-width="1.27333" stroke-miterlimit="10" stroke-linecap="round"/>
</svg>
