<svg width="64" height="64" viewBox="0 0 64 64" fill="none" xmlns="http://www.w3.org/2000/svg">
<path d="M64 32C64 49.6731 49.6731 64 32 64C14.3269 64 0 49.6731 0 32C0 14.3269 14.3269 0 32 0C49.6731 0 64 14.3269 64 32ZM6.4 32C6.4 46.1385 17.8615 57.6 32 57.6C46.1385 57.6 57.6 46.1385 57.6 32C57.6 17.8615 46.1385 6.4 32 6.4C17.8615 6.4 6.4 17.8615 6.4 32Z" fill="#E8EBED"/>
<path d="M64 32C64 38.329 62.1232 44.5159 58.607 49.7782C55.0908 55.0406 50.0931 59.1421 44.2459 61.5641C38.3986 63.9861 31.9645 64.6199 25.7571 63.3851C19.5497 62.1504 13.8479 59.1027 9.37258 54.6274C4.8973 50.1521 1.8496 44.4503 0.614871 38.2429C-0.619856 32.0355 0.0138508 25.6014 2.43586 19.7541C4.85786 13.9069 8.95938 8.90918 14.2218 5.39297C19.4841 1.87677 25.671 -7.54726e-08 32 0V6.4C26.9368 6.4 21.9873 7.90141 17.7774 10.7144C13.5675 13.5273 10.2863 17.5255 8.34868 22.2033C6.41108 26.8811 5.90411 32.0284 6.8919 36.9943C7.87968 41.9602 10.3178 46.5217 13.8981 50.1019C17.4783 53.6822 22.0398 56.1203 27.0057 57.1081C31.9716 58.0959 37.1189 57.5889 41.7967 55.6513C46.4745 53.7137 50.4727 50.4325 53.2856 46.2226C56.0986 42.0127 57.6 37.0632 57.6 32H64Z" fill="#FAD674"/>
</svg>
