<svg width="10" height="11" viewBox="0 0 10 11" fill="none" xmlns="http://www.w3.org/2000/svg">
<path d="M9.5 7.49995V3.49995C9.49982 3.32459 9.45353 3.15236 9.36577 3.00053C9.27801 2.84871 9.15187 2.72263 9 2.63495L5.5 0.634951C5.34798 0.547183 5.17554 0.500977 5 0.500977C4.82446 0.500977 4.65202 0.547183 4.5 0.634951L1 2.63495C0.848131 2.72263 0.72199 2.84871 0.634231 3.00053C0.546471 3.15236 0.50018 3.32459 0.5 3.49995V7.49995C0.50018 7.67531 0.546471 7.84755 0.634231 7.99937C0.72199 8.15119 0.848131 8.27727 1 8.36495L4.5 10.365C4.65202 10.4527 4.82446 10.4989 5 10.4989C5.17554 10.4989 5.34798 10.4527 5.5 10.365L9 8.36495C9.15187 8.27727 9.27801 8.15119 9.36577 7.99937C9.45353 7.84755 9.49982 7.67531 9.5 7.49995Z" stroke="url(#paint0_linear_2404_24958)" stroke-linecap="round" stroke-linejoin="round"/>
<defs>
<linearGradient id="paint0_linear_2404_24958" x1="2.56108" y1="10.8694" x2="9.36857" y2="3.19424" gradientUnits="userSpaceOnUse">
<stop stop-color="#2E2C2C"/>
<stop offset="0.674628" stop-color="#4B4949"/>
<stop offset="1" stop-color="#131313"/>
<stop offset="1" stop-opacity="0.94"/>
<stop offset="1" stop-color="#434343"/>
</linearGradient>
</defs>
</svg>
