<svg width="87" height="86" viewBox="0 0 87 86" fill="none" xmlns="http://www.w3.org/2000/svg">
<g clip-path="url(#clip0_1173_44000)">
<circle cx="43.5" cy="43" r="43" fill="#F6F4FC"/>
<path fill-rule="evenodd" clip-rule="evenodd" d="M73.0014 26.4724C73.354 26.6927 73.6596 26.9812 73.9003 27.3211C74.1486 27.6639 74.3254 28.0535 74.4201 28.4666C74.5148 28.8797 74.5254 29.3077 74.4514 29.725L72.7356 40.0706V34.558C72.7313 32.8904 72.0702 31.2922 70.8967 30.113C69.7233 28.9338 68.133 28.2694 66.4735 28.2651H19.2072L20.4721 20.6632C20.616 19.8259 21.0844 19.0802 21.7747 18.5894C22.4649 18.0987 23.3206 17.903 24.1542 18.0454L71.8464 26.0374C72.2562 26.1041 72.6488 26.252 73.0014 26.4724ZM18.1111 39.0383H18.1104H18.1096H18.1087H18.1077C17.1402 39.0374 16.1458 39.0366 15.5 39.0386V34.558C15.4993 34.062 15.5961 33.5707 15.7847 33.1123C15.9733 32.6539 16.25 32.2374 16.599 31.8867C16.948 31.5359 17.3625 31.2578 17.8186 31.0683C18.2748 30.8788 18.7637 30.7816 19.2573 30.7823H27.2853V32.0408C27.2793 33.8971 26.542 35.6754 25.2347 36.9868C23.9274 38.2982 22.1565 39.0359 20.3093 39.0386C19.7575 39.0397 18.9471 39.039 18.1162 39.0383H18.1147H18.1134H18.1122H18.1111ZM58.4455 30.7825H66.4735C67.4698 30.7832 68.4251 31.1812 69.1296 31.8891C69.834 32.5971 70.2301 33.5571 70.2308 34.5583V39.0388H65.4089C64.3891 39.0229 63.3845 38.7881 62.4624 38.35C61.5403 37.9119 60.722 37.2808 60.0626 36.4989C59.4031 35.7169 58.9176 34.8024 58.6387 33.8165C58.3598 32.8305 58.2939 31.7961 58.4455 30.7825ZM62.4624 51.4325C63.3845 50.9944 64.3891 50.7596 65.4089 50.7437C65.9637 50.7425 66.7787 50.7432 67.6137 50.744C68.5848 50.7448 69.583 50.7457 70.2308 50.7437V55.2242C70.2301 56.2254 69.834 57.1854 69.1296 57.8934C68.4251 58.6013 67.4698 58.9993 66.4735 59H58.5624C58.5118 58.9025 58.4604 58.8056 58.408 58.7092C58.3085 57.7894 58.3865 56.8578 58.6387 55.966C58.9176 54.9801 59.4031 54.0656 60.0626 53.2837C60.722 52.5017 61.5403 51.8706 62.4624 51.4325ZM56.1789 55.5305C56.2239 55.3528 56.2739 55.1762 56.3291 55.0009C56.735 53.7097 57.4055 52.5183 58.2975 51.5033C59.1895 50.4884 60.2831 49.6725 61.5079 49.1081C62.7327 48.5437 64.0616 48.2434 65.4089 48.2265H70.2308V41.556C69.621 41.5573 68.7199 41.5566 67.8197 41.556H67.8178H67.8162H67.8147C66.9137 41.5554 66.0142 41.5547 65.4089 41.556C64.0616 41.5391 62.7327 41.2388 61.5079 40.6744C60.2831 40.11 59.1895 39.2941 58.2975 38.2792C57.4055 37.2642 56.735 36.0728 56.3291 34.7817C55.9231 33.4905 55.7908 32.1282 55.9406 30.7825H29.7901C29.939 32.1291 29.8057 33.492 29.3986 34.7836C28.9916 36.0752 28.3199 37.2668 27.4268 38.2817C26.5336 39.2966 25.4389 40.1123 24.213 40.6762C22.9872 41.2402 21.6574 41.5399 20.3093 41.556H15.5V48.2265H20.3093C22.8196 48.2331 25.2253 49.2373 27.0015 51.0199C28.7778 52.8025 29.7802 55.2188 29.7901 57.7414V58.3546C31.2783 55.7637 33.415 53.6151 35.9699 52.1458C30.3606 46.7664 32.6608 35.2988 42.8654 34.9107C45.4982 34.9147 48.0221 35.9675 49.8838 37.8383C51.7454 39.7092 52.7931 42.2455 52.7971 44.8913C52.7935 47.263 51.9513 49.5467 50.4358 51.342C52.6352 52.3027 54.5903 53.741 56.1789 55.5305ZM47.8533 50.4663C49.2529 49.2337 50.214 47.3755 50.2922 44.8911C49.9804 35.0225 35.7416 35.0364 35.426 44.8911C35.5175 47.7358 36.7684 49.7604 38.5094 50.9641C40.227 50.3399 42.075 50.0002 44 50.0002C45.3268 50.0002 46.6171 50.1616 47.8533 50.4663ZM15.5 50.7437H20.3093C21.3299 50.7586 22.3356 50.9927 23.2588 51.4303C24.182 51.8678 25.0014 52.4987 25.6621 53.2807C26.3228 54.0626 26.8094 54.9775 27.0893 55.9639C27.3693 56.9503 27.4361 57.9855 27.2853 59H19.2573C18.7637 59.0007 18.2748 58.9035 17.8186 58.7139C17.3625 58.5244 16.948 58.2463 16.599 57.8956C16.25 57.5448 15.9733 57.1283 15.7847 56.67C15.5961 56.2116 15.4993 55.7203 15.5 55.2242V50.7437Z" fill="#A592DD"/>
<path fill-rule="evenodd" clip-rule="evenodd" d="M73.0014 26.4724C73.354 26.6927 73.6596 26.9812 73.9003 27.3211C74.1486 27.6639 74.3254 28.0535 74.4201 28.4666C74.5148 28.8797 74.5254 29.3077 74.4514 29.725L72.7356 40.0706V34.558C72.7313 32.8904 72.0702 31.2922 70.8967 30.113C69.7233 28.9338 68.133 28.2694 66.4735 28.2651H19.2072L20.4721 20.6632C20.616 19.8259 21.0844 19.0802 21.7747 18.5894C22.4649 18.0987 23.3206 17.903 24.1542 18.0454L71.8464 26.0374C72.2562 26.1041 72.6488 26.252 73.0014 26.4724ZM18.1111 39.0383H18.1104H18.1096H18.1087H18.1077C17.1402 39.0374 16.1458 39.0366 15.5 39.0386V34.558C15.4993 34.062 15.5961 33.5707 15.7847 33.1123C15.9733 32.6539 16.25 32.2374 16.599 31.8867C16.948 31.5359 17.3625 31.2578 17.8186 31.0683C18.2748 30.8788 18.7637 30.7816 19.2573 30.7823H27.2853V32.0408C27.2793 33.8971 26.542 35.6754 25.2347 36.9868C23.9274 38.2982 22.1565 39.0359 20.3093 39.0386C19.7575 39.0397 18.9471 39.039 18.1162 39.0383H18.1147H18.1134H18.1122H18.1111ZM58.4455 30.7825H66.4735C67.4698 30.7832 68.4251 31.1812 69.1296 31.8891C69.834 32.5971 70.2301 33.5571 70.2308 34.5583V39.0388H65.4089C64.3891 39.0229 63.3845 38.7881 62.4624 38.35C61.5403 37.9119 60.722 37.2808 60.0626 36.4989C59.4031 35.7169 58.9176 34.8024 58.6387 33.8165C58.3598 32.8305 58.2939 31.7961 58.4455 30.7825ZM62.4624 51.4325C63.3845 50.9944 64.3891 50.7596 65.4089 50.7437C65.9637 50.7425 66.7787 50.7432 67.6137 50.744C68.5848 50.7448 69.583 50.7457 70.2308 50.7437V55.2242C70.2301 56.2254 69.834 57.1854 69.1296 57.8934C68.4251 58.6013 67.4698 58.9993 66.4735 59H58.5624C58.5118 58.9025 58.4604 58.8056 58.408 58.7092C58.3085 57.7894 58.3865 56.8578 58.6387 55.966C58.9176 54.9801 59.4031 54.0656 60.0626 53.2837C60.722 52.5017 61.5403 51.8706 62.4624 51.4325ZM56.1789 55.5305C56.2239 55.3528 56.2739 55.1762 56.3291 55.0009C56.735 53.7097 57.4055 52.5183 58.2975 51.5033C59.1895 50.4884 60.2831 49.6725 61.5079 49.1081C62.7327 48.5437 64.0616 48.2434 65.4089 48.2265H70.2308V41.556C69.621 41.5573 68.7199 41.5566 67.8197 41.556H67.8178H67.8162H67.8147C66.9137 41.5554 66.0142 41.5547 65.4089 41.556C64.0616 41.5391 62.7327 41.2388 61.5079 40.6744C60.2831 40.11 59.1895 39.2941 58.2975 38.2792C57.4055 37.2642 56.735 36.0728 56.3291 34.7817C55.9231 33.4905 55.7908 32.1282 55.9406 30.7825H29.7901C29.939 32.1291 29.8057 33.492 29.3986 34.7836C28.9916 36.0752 28.3199 37.2668 27.4268 38.2817C26.5336 39.2966 25.4389 40.1123 24.213 40.6762C22.9872 41.2402 21.6574 41.5399 20.3093 41.556H15.5V48.2265H20.3093C22.8196 48.2331 25.2253 49.2373 27.0015 51.0199C28.7778 52.8025 29.7802 55.2188 29.7901 57.7414V58.3546C31.2783 55.7637 33.415 53.6151 35.9699 52.1458C30.3606 46.7664 32.6608 35.2988 42.8654 34.9107C45.4982 34.9147 48.0221 35.9675 49.8838 37.8383C51.7454 39.7092 52.7931 42.2455 52.7971 44.8913C52.7935 47.263 51.9513 49.5467 50.4358 51.342C52.6352 52.3027 54.5903 53.741 56.1789 55.5305ZM47.8533 50.4663C49.2529 49.2337 50.214 47.3755 50.2922 44.8911C49.9804 35.0225 35.7416 35.0364 35.426 44.8911C35.5175 47.7358 36.7684 49.7604 38.5094 50.9641C40.227 50.3399 42.075 50.0002 44 50.0002C45.3268 50.0002 46.6171 50.1616 47.8533 50.4663ZM15.5 50.7437H20.3093C21.3299 50.7586 22.3356 50.9927 23.2588 51.4303C24.182 51.8678 25.0014 52.4987 25.6621 53.2807C26.3228 54.0626 26.8094 54.9775 27.0893 55.9639C27.3693 56.9503 27.4361 57.9855 27.2853 59H19.2573C18.7637 59.0007 18.2748 58.9035 17.8186 58.7139C17.3625 58.5244 16.948 58.2463 16.599 57.8956C16.25 57.5448 15.9733 57.1283 15.7847 56.67C15.5961 56.2116 15.4993 55.7203 15.5 55.2242V50.7437Z" fill="url(#paint0_linear_1173_44000)"/>
<circle cx="43.5" cy="67" r="11" fill="#FEBC44"/>
<g clip-path="url(#clip1_1173_44000)">
<path d="M49.9173 62.3339V65.8339M49.9173 65.8339H46.4173M49.9173 65.8339L47.2107 63.2906C46.5837 62.6633 45.8081 62.2051 44.9562 61.9587C44.1043 61.7123 43.2038 61.6857 42.3388 61.8814C41.4738 62.0771 40.6725 62.4887 40.0097 63.0779C39.3468 63.6671 38.844 64.4145 38.5482 65.2506M37.084 71.6672V68.1672M37.084 68.1672H40.584M37.084 68.1672L39.7907 70.7106C40.4176 71.3378 41.1932 71.796 42.0451 72.0425C42.897 72.2889 43.7975 72.3155 44.6625 72.1198C45.5275 71.924 46.3288 71.5124 46.9916 70.9232C47.6545 70.3341 48.1573 69.5866 48.4532 68.7506" stroke="white" stroke-width="1.7" stroke-linecap="round" stroke-linejoin="round"/>
</g>
</g>
<defs>
<linearGradient id="paint0_linear_1173_44000" x1="28.4062" y1="67.2" x2="47.6303" y2="-27.6158" gradientUnits="userSpaceOnUse">
<stop stop-color="#A592DD"/>
<stop offset="1" stop-color="#E6DDFF"/>
</linearGradient>
<clipPath id="clip0_1173_44000">
<rect width="86" height="86" fill="white" transform="translate(0.5)"/>
</clipPath>
<clipPath id="clip1_1173_44000">
<rect width="14" height="14" fill="white" transform="translate(36.5 60)"/>
</clipPath>
</defs>
</svg>
