<svg width="109" height="108" viewBox="0 0 109 108" fill="none" xmlns="http://www.w3.org/2000/svg">
<g clip-path="url(#clip0_803_19448)">
<circle cx="54.5" cy="54" r="54" fill="#F6F4FC"/>
<path d="M35.7241 37.1526C35.7241 34.2835 38.0634 31.9453 40.9314 31.9453C43.7994 31.9453 46.1387 34.2846 46.1387 37.1526C46.1387 40.0184 43.7994 42.3599 40.9314 42.3599C38.0634 42.3599 35.7241 40.0184 35.7241 37.1526ZM35.3724 59.82C35.5262 59.4848 35.6954 59.1519 35.8834 58.829C37.4075 56.1855 39.8121 54.3583 42.5109 53.5022C43.0506 50.2449 45.3103 47.555 48.3176 46.4014C47.1198 45.5608 45.662 45.0653 44.098 45.0653H37.7648C33.7078 45.0653 30.3875 48.3856 30.3875 52.4426V56.7916C30.3875 58.4562 31.7512 59.82 33.4158 59.82H35.3724ZM71.7515 45.0664H65.4216C63.8543 45.0664 62.3965 45.5619 61.1987 46.4025C64.6595 47.7286 67.1304 51.0866 67.1304 55.002V59.351C67.1304 59.5081 67.1205 59.664 67.105 59.8211H76.1005C77.7651 59.8211 79.1288 58.4573 79.1288 56.7927V52.4437C79.1288 48.3856 75.8085 45.0664 71.7515 45.0664ZM68.5849 42.3599C71.454 42.3599 73.7922 40.0184 73.7922 37.1526C73.7922 34.2835 71.4529 31.9453 68.5849 31.9453C65.7191 31.9453 63.3776 34.2846 63.3776 37.1526C63.3765 40.0184 65.7191 42.3599 68.5849 42.3599ZM57.9248 47.6247H51.5948C48.2092 47.6247 45.3368 49.9352 44.4774 53.0576C46.9793 52.7125 49.6095 53.1616 51.961 54.5187C54.9993 56.274 56.9581 59.184 57.6073 62.3783H62.2727C63.9373 62.3783 65.301 61.0145 65.301 59.3499V55.0009C65.3021 50.945 61.9818 47.6247 57.9248 47.6247ZM54.7582 44.9182C57.6272 44.9182 59.9654 42.5767 59.9654 39.7109C59.9654 36.8418 57.6261 34.5036 54.7582 34.5036C51.8902 34.5036 49.5509 36.8429 49.5509 39.7109C49.5509 42.5767 51.8891 44.9182 54.7582 44.9182ZM54.6896 69.6837C51.9433 74.4397 45.8611 76.0701 41.104 73.3237C36.3513 70.5774 34.721 64.4975 37.4673 59.7415C40.2103 54.9854 46.2936 53.3551 51.0496 56.1014C55.8056 58.8489 57.4359 64.9277 54.6896 69.6837ZM51.3471 61.385C51.2623 61.3001 51.1617 61.2327 51.0508 61.1867C50.94 61.1407 50.8212 61.1171 50.7012 61.1171C50.5812 61.1171 50.4623 61.1407 50.3515 61.1867C50.2407 61.2327 50.14 61.3001 50.0552 61.385L45.3335 66.1068L42.1005 62.8716C41.7433 62.5143 41.1626 62.5143 40.8087 62.8716C40.7237 62.9563 40.6563 63.057 40.6103 63.1679C40.5644 63.2787 40.5407 63.3975 40.5407 63.5175C40.5407 63.6375 40.5644 63.7563 40.6103 63.8672C40.6563 63.978 40.7237 64.0787 40.8087 64.1634L44.6865 68.0412C44.7712 68.1262 44.8719 68.1936 44.9827 68.2396C45.0936 68.2855 45.2124 68.3092 45.3324 68.3092C45.4524 68.3092 45.5712 68.2855 45.682 68.2396C45.7929 68.1936 45.8936 68.1262 45.9783 68.0412L51.346 62.6769C51.5164 62.5052 51.6122 62.2731 51.6124 62.0312C51.6126 61.7893 51.5173 61.557 51.3471 61.385ZM40.9978 75.3301C40.7232 75.2003 40.4542 75.059 40.1915 74.9065C39.9282 74.7528 39.6705 74.5902 39.4206 74.4209L38.5269 75.9727C38.5202 75.9849 38.5114 75.9982 38.5048 76.0103C38.0568 75.9064 37.5735 76.0977 37.3323 76.518L31.8176 84.9616C31.3597 85.758 31.6362 86.7833 32.4292 87.2445C33.2256 87.7024 34.2542 87.4292 34.7121 86.6328L40.2269 78.1893C40.468 77.769 40.3928 77.2546 40.0798 76.9195C40.0897 76.904 40.0952 76.8919 40.1052 76.8786L40.9978 75.3301Z" fill="url(#paint0_linear_803_19448)"/>
</g>
<defs>
<linearGradient id="paint0_linear_803_19448" x1="41.0496" y1="99.8979" x2="82.5013" y2="-22.3895" gradientUnits="userSpaceOnUse">
<stop stop-color="#A592DD"/>
<stop offset="1" stop-color="#E6DDFF"/>
</linearGradient>
<clipPath id="clip0_803_19448">
<rect width="108" height="108" fill="white" transform="translate(0.5)"/>
</clipPath>
</defs>
</svg>
