<svg width="21" height="18" viewBox="0 0 21 18" fill="none" xmlns="http://www.w3.org/2000/svg">
<path d="M7.37113 0V0C8.13906 3.12041 10.6124 5.53398 13.7506 6.22543L13.9766 6.27523L13.7506 6.32503C10.6124 7.01648 8.13906 9.43005 7.37113 12.5505V12.5505V12.5505C6.6032 9.43005 4.1299 7.01648 0.991664 6.32503L0.765625 6.27523L0.991664 6.22543C4.1299 5.53398 6.6032 3.12041 7.37113 0V0Z" fill="white"/>
<path d="M16.023 9.90894V9.90894C16.5126 11.9207 18.1023 13.4798 20.1232 13.9301L20.234 13.9548L20.1232 13.9795C18.1023 14.4298 16.5126 15.9889 16.023 18.0007V18.0007V18.0007C15.5335 15.9889 13.9438 14.4298 11.9229 13.9795L11.812 13.9548L11.9229 13.9301C13.9438 13.4798 15.5335 11.9207 16.023 9.90894V9.90894Z" fill="white"/>
</svg>
