<svg width="86" height="86" viewBox="0 0 86 86" fill="none" xmlns="http://www.w3.org/2000/svg">
<g clip-path="url(#clip0_1091_46070)">
<circle cx="43" cy="43" r="43" fill="#F6F4FC"/>
<path fill-rule="evenodd" clip-rule="evenodd" d="M27.4291 22.8743C26.3919 23.6213 25.689 24.7561 25.4746 26.0296L24.2735 33.3646C23.3724 33.7992 22.6109 34.4846 22.0776 35.3413C21.5442 36.198 21.2609 37.1909 21.2603 38.2047V44.2976L20.1014 44.4903C19.4005 44.6037 18.6839 44.4309 18.1077 44.0097C17.5315 43.5886 17.1423 42.9531 17.025 42.2416L14.0328 23.9201C13.9225 23.2078 14.0929 22.4801 14.5071 21.8947C14.9213 21.3094 15.5459 20.9136 16.2453 20.7933L56.3864 14.0365C56.7338 13.978 57.0891 13.9899 57.4319 14.0714C57.7748 14.1529 58.0984 14.3024 58.3842 14.5113C58.6701 14.7203 58.9125 14.9845 59.0976 15.2889C59.2827 15.5933 59.4068 15.9319 59.4629 16.2852L61.2434 27.1753L31.0059 22.0461C29.7527 21.8295 28.4662 22.1274 27.4291 22.8743ZM40.9659 50.2128C40.4752 49.3303 40.1699 48.258 40.1298 46.996C40.3953 38.6116 52.3734 38.5998 52.6357 46.996C52.5696 49.1206 51.7531 50.7069 50.566 51.7555C48.4471 50.6333 46.0452 50 43.5 50C42.637 50 41.7905 50.0728 40.9659 50.2128ZM38.8742 50.7247C36.6271 45.7967 39.1326 38.7837 46.388 38.5047C48.6028 38.5081 50.726 39.4038 52.2921 40.9955C53.8582 42.5873 54.7395 44.7451 54.7429 46.9962C54.7396 49.1988 53.8957 51.3122 52.3923 52.8933C54.4955 54.4166 56.2154 56.4656 57.3727 58.8555C57.2711 57.7577 57.387 56.6498 57.7141 55.5975C58.0556 54.499 58.6196 53.4853 59.37 52.6218C60.1203 51.7583 61.0403 51.0641 62.0707 50.5839C63.101 50.1038 64.2189 49.8482 65.3523 49.8339H69.4086V44.1585C68.8946 44.1596 68.1346 44.1591 67.3757 44.1585C66.618 44.158 65.8614 44.1575 65.3523 44.1585C64.2189 44.1442 63.101 43.8886 62.0707 43.4085C61.0403 42.9283 60.1203 42.2341 59.37 41.3706C58.6196 40.5071 58.0556 39.4934 57.7141 38.3949C57.3726 37.2964 57.2613 36.1373 57.3873 34.9924H35.3887C35.514 36.138 35.4018 37.2977 35.0594 38.3966C34.717 39.4955 34.1519 40.5093 33.4006 41.3728C32.6493 42.2363 31.7283 42.9302 30.6971 43.41C29.6659 43.8898 28.5472 44.1448 27.4132 44.1585H23.3675V49.8339H27.4132C29.5249 49.8395 31.5487 50.6939 33.0429 52.2105C33.3949 52.5678 33.7107 52.9549 33.988 53.3661C35.4339 52.2045 37.0843 51.3016 38.8742 50.7247ZM32.4124 54.8194C32.2632 54.5801 32.0974 54.351 31.9161 54.134C31.3603 53.4687 30.671 52.9319 29.8944 52.5596C29.1177 52.1874 28.2718 51.9882 27.4132 51.9755H23.3675V55.7876C23.3669 56.2096 23.4483 56.6276 23.6069 57.0176C23.7656 57.4076 23.9984 57.7619 24.292 58.0604C24.5856 58.3588 24.9342 58.5954 25.318 58.7566C25.7017 58.9179 26.113 59.0006 26.5282 59H29.5582C30.2901 57.4497 31.2575 56.0396 32.4124 54.8194ZM71.7394 31.3253C72.036 31.5128 72.293 31.7582 72.4956 32.0474C72.7044 32.339 72.8531 32.6705 72.9328 33.022C73.0124 33.3734 73.0214 33.7376 72.9591 34.0927L71.5157 42.8948V38.2046C71.5121 36.7858 70.956 35.4261 69.9688 34.4228C68.9817 33.4195 67.6439 32.8542 66.2479 32.8506H26.486L27.5501 26.3829C27.6712 25.6705 28.0652 25.036 28.6459 24.6184C29.2266 24.2009 29.9464 24.0345 30.6476 24.1556L70.7677 30.9552C71.1125 31.012 71.4428 31.1378 71.7394 31.3253ZM25.5641 42.0165H25.5637H25.5632H25.5626H25.5619C24.7477 42.0157 23.9109 42.015 23.3675 42.0167V38.2046C23.3669 37.7826 23.4483 37.3646 23.6069 36.9746C23.7656 36.5846 23.9984 36.2302 24.292 35.9318C24.5856 35.6334 24.9342 35.3968 25.318 35.2356C25.7017 35.0743 26.113 34.9916 26.5282 34.9922H33.2816V36.063C33.2766 37.6423 32.6563 39.1553 31.5566 40.2711C30.4568 41.3868 28.9671 42.0145 27.4132 42.0167C26.9481 42.0177 26.2646 42.0171 25.5641 42.0165ZM59.4945 34.9924H66.2479C67.086 34.993 67.8896 35.3316 68.4822 35.9339C69.0749 36.5362 69.408 37.353 69.4086 38.2048V42.0169H65.3523C64.4944 42.0034 63.6493 41.8036 62.8736 41.4309C62.0979 41.0581 61.4096 40.5211 60.8548 39.8559C60.3 39.1906 59.8917 38.4125 59.657 37.5737C59.4224 36.7349 59.367 35.8548 59.4945 34.9924ZM62.8736 52.5615C63.6493 52.1888 64.4944 51.989 65.3523 51.9755C65.819 51.9745 66.5046 51.9751 67.2071 51.9757H67.2099C68.0259 51.9765 68.8643 51.9772 69.4086 51.9755V55.7876C69.408 56.6394 69.0749 57.4561 68.4822 58.0585C67.8896 58.6608 67.086 58.9994 66.2479 59H59.4945C59.367 58.1376 59.4224 57.2575 59.657 56.4187C59.8917 55.5799 60.3 54.8018 60.8548 54.1365C61.4096 53.4712 62.0979 52.9343 62.8736 52.5615Z" fill="#A592DD"/>
<path fill-rule="evenodd" clip-rule="evenodd" d="M27.4291 22.8743C26.3919 23.6213 25.689 24.7561 25.4746 26.0296L24.2735 33.3646C23.3724 33.7992 22.6109 34.4846 22.0776 35.3413C21.5442 36.198 21.2609 37.1909 21.2603 38.2047V44.2976L20.1014 44.4903C19.4005 44.6037 18.6839 44.4309 18.1077 44.0097C17.5315 43.5886 17.1423 42.9531 17.025 42.2416L14.0328 23.9201C13.9225 23.2078 14.0929 22.4801 14.5071 21.8947C14.9213 21.3094 15.5459 20.9136 16.2453 20.7933L56.3864 14.0365C56.7338 13.978 57.0891 13.9899 57.4319 14.0714C57.7748 14.1529 58.0984 14.3024 58.3842 14.5113C58.6701 14.7203 58.9125 14.9845 59.0976 15.2889C59.2827 15.5933 59.4068 15.9319 59.4629 16.2852L61.2434 27.1753L31.0059 22.0461C29.7527 21.8295 28.4662 22.1274 27.4291 22.8743ZM40.9659 50.2128C40.4752 49.3303 40.1699 48.258 40.1298 46.996C40.3953 38.6116 52.3734 38.5998 52.6357 46.996C52.5696 49.1206 51.7531 50.7069 50.566 51.7555C48.4471 50.6333 46.0452 50 43.5 50C42.637 50 41.7905 50.0728 40.9659 50.2128ZM38.8742 50.7247C36.6271 45.7967 39.1326 38.7837 46.388 38.5047C48.6028 38.5081 50.726 39.4038 52.2921 40.9955C53.8582 42.5873 54.7395 44.7451 54.7429 46.9962C54.7396 49.1988 53.8957 51.3122 52.3923 52.8933C54.4955 54.4166 56.2154 56.4656 57.3727 58.8555C57.2711 57.7577 57.387 56.6498 57.7141 55.5975C58.0556 54.499 58.6196 53.4853 59.37 52.6218C60.1203 51.7583 61.0403 51.0641 62.0707 50.5839C63.101 50.1038 64.2189 49.8482 65.3523 49.8339H69.4086V44.1585C68.8946 44.1596 68.1346 44.1591 67.3757 44.1585C66.618 44.158 65.8614 44.1575 65.3523 44.1585C64.2189 44.1442 63.101 43.8886 62.0707 43.4085C61.0403 42.9283 60.1203 42.2341 59.37 41.3706C58.6196 40.5071 58.0556 39.4934 57.7141 38.3949C57.3726 37.2964 57.2613 36.1373 57.3873 34.9924H35.3887C35.514 36.138 35.4018 37.2977 35.0594 38.3966C34.717 39.4955 34.1519 40.5093 33.4006 41.3728C32.6493 42.2363 31.7283 42.9302 30.6971 43.41C29.6659 43.8898 28.5472 44.1448 27.4132 44.1585H23.3675V49.8339H27.4132C29.5249 49.8395 31.5487 50.6939 33.0429 52.2105C33.3949 52.5678 33.7107 52.9549 33.988 53.3661C35.4339 52.2045 37.0843 51.3016 38.8742 50.7247ZM32.4124 54.8194C32.2632 54.5801 32.0974 54.351 31.9161 54.134C31.3603 53.4687 30.671 52.9319 29.8944 52.5596C29.1177 52.1874 28.2718 51.9882 27.4132 51.9755H23.3675V55.7876C23.3669 56.2096 23.4483 56.6276 23.6069 57.0176C23.7656 57.4076 23.9984 57.7619 24.292 58.0604C24.5856 58.3588 24.9342 58.5954 25.318 58.7566C25.7017 58.9179 26.113 59.0006 26.5282 59H29.5582C30.2901 57.4497 31.2575 56.0396 32.4124 54.8194ZM71.7394 31.3253C72.036 31.5128 72.293 31.7582 72.4956 32.0474C72.7044 32.339 72.8531 32.6705 72.9328 33.022C73.0124 33.3734 73.0214 33.7376 72.9591 34.0927L71.5157 42.8948V38.2046C71.5121 36.7858 70.956 35.4261 69.9688 34.4228C68.9817 33.4195 67.6439 32.8542 66.2479 32.8506H26.486L27.5501 26.3829C27.6712 25.6705 28.0652 25.036 28.6459 24.6184C29.2266 24.2009 29.9464 24.0345 30.6476 24.1556L70.7677 30.9552C71.1125 31.012 71.4428 31.1378 71.7394 31.3253ZM25.5641 42.0165H25.5637H25.5632H25.5626H25.5619C24.7477 42.0157 23.9109 42.015 23.3675 42.0167V38.2046C23.3669 37.7826 23.4483 37.3646 23.6069 36.9746C23.7656 36.5846 23.9984 36.2302 24.292 35.9318C24.5856 35.6334 24.9342 35.3968 25.318 35.2356C25.7017 35.0743 26.113 34.9916 26.5282 34.9922H33.2816V36.063C33.2766 37.6423 32.6563 39.1553 31.5566 40.2711C30.4568 41.3868 28.9671 42.0145 27.4132 42.0167C26.9481 42.0177 26.2646 42.0171 25.5641 42.0165ZM59.4945 34.9924H66.2479C67.086 34.993 67.8896 35.3316 68.4822 35.9339C69.0749 36.5362 69.408 37.353 69.4086 38.2048V42.0169H65.3523C64.4944 42.0034 63.6493 41.8036 62.8736 41.4309C62.0979 41.0581 61.4096 40.5211 60.8548 39.8559C60.3 39.1906 59.8917 38.4125 59.657 37.5737C59.4224 36.7349 59.367 35.8548 59.4945 34.9924ZM62.8736 52.5615C63.6493 52.1888 64.4944 51.989 65.3523 51.9755C65.819 51.9745 66.5046 51.9751 67.2071 51.9757H67.2099C68.0259 51.9765 68.8643 51.9772 69.4086 51.9755V55.7876C69.408 56.6394 69.0749 57.4561 68.4822 58.0585C67.8896 58.6608 67.086 58.9994 66.2479 59H59.4945C59.367 58.1376 59.4224 57.2575 59.657 56.4187C59.8917 55.5799 60.3 54.8018 60.8548 54.1365C61.4096 53.4712 62.0979 52.9343 62.8736 52.5615Z" fill="url(#paint0_linear_1091_46070)"/>
<g clip-path="url(#clip1_1091_46070)">
<path d="M43.5007 56.084C41.4404 56.084 39.4265 56.6949 37.7135 57.8395C36.0005 58.9841 34.6653 60.611 33.8769 62.5144C33.0885 64.4178 32.8822 66.5122 33.2841 68.5328C33.6861 70.5535 34.6782 72.4095 36.135 73.8663C37.5918 75.3231 39.4478 76.3152 41.4685 76.7172C43.4891 77.1191 45.5835 76.9128 47.4869 76.1244C49.3903 75.336 51.0172 74.0009 52.1618 72.2878C53.3064 70.5748 53.9173 68.5609 53.9173 66.5007C53.9173 65.1327 53.6479 63.7782 53.1244 62.5144C52.6009 61.2506 51.8336 60.1022 50.8664 59.135C49.8991 58.1677 48.7508 57.4004 47.4869 56.8769C46.2231 56.3534 44.8686 56.084 43.5007 56.084ZM47.9798 64.0111L43.2194 70.2611C43.1224 70.3871 42.9977 70.4893 42.8551 70.5597C42.7125 70.6301 42.5556 70.6669 42.3965 70.6673C42.2383 70.6682 42.0819 70.633 41.9393 70.5644C41.7968 70.4958 41.6717 70.3956 41.5736 70.2715L39.0319 67.0319C38.9478 66.9238 38.8858 66.8003 38.8494 66.6682C38.813 66.5362 38.803 66.3983 38.8199 66.2624C38.8369 66.1265 38.8804 65.9952 38.948 65.8762C39.0157 65.7571 39.1061 65.6525 39.2142 65.5684C39.4324 65.3985 39.7093 65.3222 39.9837 65.3564C40.1196 65.3733 40.2509 65.4169 40.3699 65.4845C40.489 65.5521 40.5936 65.6426 40.6777 65.7507L42.3757 67.9173L46.3132 62.709C46.3966 62.5995 46.5008 62.5076 46.6198 62.4384C46.7387 62.3693 46.8702 62.3242 47.0065 62.3058C47.1429 62.2875 47.2816 62.2961 47.4146 62.3313C47.5477 62.3666 47.6725 62.4276 47.7819 62.5111C47.8913 62.5945 47.9833 62.6987 48.0524 62.8177C48.1216 62.9366 48.1667 63.0681 48.1851 63.2045C48.2034 63.3408 48.1948 63.4795 48.1596 63.6125C48.1243 63.7456 48.0633 63.8704 47.9798 63.9798V64.0111Z" fill="#70CA98"/>
</g>
</g>
<defs>
<linearGradient id="paint0_linear_1091_46070" x1="26.9062" y1="68" x2="49.8787" y2="-35.232" gradientUnits="userSpaceOnUse">
<stop stop-color="#A592DD"/>
<stop offset="1" stop-color="#E6DDFF"/>
</linearGradient>
<clipPath id="clip0_1091_46070">
<rect width="86" height="86" fill="white"/>
</clipPath>
<clipPath id="clip1_1091_46070">
<rect width="25" height="25" fill="white" transform="translate(31 54)"/>
</clipPath>
</defs>
</svg>
