<svg width="86" height="87" viewBox="0 0 86 87" fill="none" xmlns="http://www.w3.org/2000/svg">
<g clip-path="url(#clip0_945_21924)">
<circle cx="43" cy="43.6094" r="43" fill="#F6F4FC"/>
<path fill-rule="evenodd" clip-rule="evenodd" d="M72.5014 27.0817C72.854 27.3021 73.1596 27.5906 73.4003 27.9305C73.6486 28.2732 73.8254 28.6629 73.9201 29.0759C74.0148 29.489 74.0254 29.9171 73.9514 30.3344L72.2356 40.68V35.1674C72.2313 33.4997 71.5702 31.9016 70.3967 30.7224C69.2233 29.5432 67.633 28.8788 65.9735 28.8745H18.7072L19.9721 21.2726C20.116 20.4353 20.5844 19.6895 21.2747 19.1988C21.9649 18.708 22.8206 18.5124 23.6542 18.6547L71.3464 26.6468C71.7562 26.7135 72.1488 26.8614 72.5014 27.0817ZM17.6111 39.6477H17.6104H17.6096H17.6087H17.6077C16.6402 39.6468 15.6458 39.6459 15 39.648V35.1674C14.9993 34.6714 15.0961 34.1801 15.2847 33.7217C15.4733 33.2633 15.75 32.8468 16.099 32.496C16.448 32.1453 16.8625 31.8672 17.3186 31.6777C17.7748 31.4882 18.2637 31.391 18.7573 31.3916H26.7853V32.6502C26.7793 34.5065 26.042 36.2848 24.7347 37.5962C23.4274 38.9076 21.6565 39.6453 19.8093 39.648C19.2575 39.6491 18.4471 39.6484 17.6162 39.6477H17.6147H17.6134H17.6122H17.6111ZM57.9455 31.3919H65.9735C66.9698 31.3926 67.9251 31.7906 68.6296 32.4985C69.334 33.2065 69.7301 34.1665 69.7308 35.1676V39.6482H64.9089C63.8891 39.6323 62.8845 39.3974 61.9624 38.9594C61.0403 38.5213 60.222 37.8901 59.5626 37.1082C58.9031 36.3263 58.4176 35.4117 58.1387 34.4258C57.8598 33.4399 57.7939 32.4055 57.9455 31.3919ZM61.9624 52.0419C62.8845 51.6038 63.8891 51.369 64.9089 51.3531C65.4637 51.3519 66.2787 51.3526 67.1137 51.3533C68.0848 51.3542 69.083 51.3551 69.7308 51.3531V55.8336C69.7301 56.8348 69.334 57.7948 68.6296 58.5028C67.9251 59.2107 66.9698 59.6087 65.9735 59.6094H58.0624C58.0118 59.5119 57.9604 59.4149 57.908 59.3186C57.8085 58.3987 57.8865 57.4672 58.1387 56.5754C58.4176 55.5895 58.9031 54.6749 59.5626 53.893C60.222 53.1111 61.0403 52.48 61.9624 52.0419ZM55.6789 56.1399C55.7239 55.9622 55.7739 55.7856 55.8291 55.6102C56.235 54.3191 56.9055 53.1276 57.7975 52.1127C58.6895 51.0978 59.7831 50.2819 61.0079 49.7175C62.2327 49.1531 63.5616 48.8528 64.9089 48.8359H69.7308V42.1654C69.121 42.1666 68.2199 42.166 67.3197 42.1654H67.3178H67.3162H67.3147C66.4137 42.1647 65.5142 42.1641 64.9089 42.1654C63.5616 42.1485 62.2327 41.8481 61.0079 41.2838C59.7831 40.7194 58.6895 39.9035 57.7975 38.8885C56.9055 37.8736 56.235 36.6822 55.8291 35.391C55.4231 34.0999 55.2908 32.7376 55.4406 31.3919H29.2901C29.439 32.7384 29.3057 34.1014 28.8986 35.393C28.4916 36.6846 27.8199 37.8762 26.9268 38.8911C26.0336 39.906 24.9389 40.7217 23.713 41.2856C22.4872 41.8496 21.1574 42.1492 19.8093 42.1654H15V48.8359H19.8093C22.3196 48.8425 24.7253 49.8467 26.5015 51.6293C28.2778 53.4119 29.2802 55.8282 29.2901 58.3508V58.964C30.7783 56.3731 32.915 54.2244 35.4699 52.7552C29.8606 47.3758 32.1608 35.9082 42.3654 35.52C44.9982 35.524 47.5221 36.5768 49.3838 38.4477C51.2454 40.3186 52.2931 42.8548 52.2971 45.5006C52.2935 47.8723 51.4513 50.1561 49.9358 51.9513C52.1352 52.9121 54.0903 54.3504 55.6789 56.1399ZM47.3533 51.0757C48.7529 49.8431 49.714 47.9849 49.7922 45.5005C49.4804 35.6319 35.2416 35.6457 34.926 45.5005C35.0175 48.3452 36.2684 50.3698 38.0094 51.5735C39.727 50.9492 41.575 50.6096 43.5 50.6096C44.8268 50.6096 46.1171 50.771 47.3533 51.0757ZM15 51.3531H19.8093C20.8299 51.368 21.8356 51.6021 22.7588 52.0397C23.682 52.4772 24.5014 53.1081 25.1621 53.89C25.8228 54.672 26.3094 55.5868 26.5893 56.5733C26.8693 57.5597 26.9361 58.5949 26.7853 59.6094H18.7573C18.2637 59.61 17.7748 59.5128 17.3186 59.3233C16.8625 59.1338 16.448 58.8557 16.099 58.505C15.75 58.1542 15.4733 57.7377 15.2847 57.2793C15.0961 56.8209 14.9993 56.3296 15 55.8336V51.3531Z" fill="#A592DD"/>
<path fill-rule="evenodd" clip-rule="evenodd" d="M72.5014 27.0817C72.854 27.3021 73.1596 27.5906 73.4003 27.9305C73.6486 28.2732 73.8254 28.6629 73.9201 29.0759C74.0148 29.489 74.0254 29.9171 73.9514 30.3344L72.2356 40.68V35.1674C72.2313 33.4997 71.5702 31.9016 70.3967 30.7224C69.2233 29.5432 67.633 28.8788 65.9735 28.8745H18.7072L19.9721 21.2726C20.116 20.4353 20.5844 19.6895 21.2747 19.1988C21.9649 18.708 22.8206 18.5124 23.6542 18.6547L71.3464 26.6468C71.7562 26.7135 72.1488 26.8614 72.5014 27.0817ZM17.6111 39.6477H17.6104H17.6096H17.6087H17.6077C16.6402 39.6468 15.6458 39.6459 15 39.648V35.1674C14.9993 34.6714 15.0961 34.1801 15.2847 33.7217C15.4733 33.2633 15.75 32.8468 16.099 32.496C16.448 32.1453 16.8625 31.8672 17.3186 31.6777C17.7748 31.4882 18.2637 31.391 18.7573 31.3916H26.7853V32.6502C26.7793 34.5065 26.042 36.2848 24.7347 37.5962C23.4274 38.9076 21.6565 39.6453 19.8093 39.648C19.2575 39.6491 18.4471 39.6484 17.6162 39.6477H17.6147H17.6134H17.6122H17.6111ZM57.9455 31.3919H65.9735C66.9698 31.3926 67.9251 31.7906 68.6296 32.4985C69.334 33.2065 69.7301 34.1665 69.7308 35.1676V39.6482H64.9089C63.8891 39.6323 62.8845 39.3974 61.9624 38.9594C61.0403 38.5213 60.222 37.8901 59.5626 37.1082C58.9031 36.3263 58.4176 35.4117 58.1387 34.4258C57.8598 33.4399 57.7939 32.4055 57.9455 31.3919ZM61.9624 52.0419C62.8845 51.6038 63.8891 51.369 64.9089 51.3531C65.4637 51.3519 66.2787 51.3526 67.1137 51.3533C68.0848 51.3542 69.083 51.3551 69.7308 51.3531V55.8336C69.7301 56.8348 69.334 57.7948 68.6296 58.5028C67.9251 59.2107 66.9698 59.6087 65.9735 59.6094H58.0624C58.0118 59.5119 57.9604 59.4149 57.908 59.3186C57.8085 58.3987 57.8865 57.4672 58.1387 56.5754C58.4176 55.5895 58.9031 54.6749 59.5626 53.893C60.222 53.1111 61.0403 52.48 61.9624 52.0419ZM55.6789 56.1399C55.7239 55.9622 55.7739 55.7856 55.8291 55.6102C56.235 54.3191 56.9055 53.1276 57.7975 52.1127C58.6895 51.0978 59.7831 50.2819 61.0079 49.7175C62.2327 49.1531 63.5616 48.8528 64.9089 48.8359H69.7308V42.1654C69.121 42.1666 68.2199 42.166 67.3197 42.1654H67.3178H67.3162H67.3147C66.4137 42.1647 65.5142 42.1641 64.9089 42.1654C63.5616 42.1485 62.2327 41.8481 61.0079 41.2838C59.7831 40.7194 58.6895 39.9035 57.7975 38.8885C56.9055 37.8736 56.235 36.6822 55.8291 35.391C55.4231 34.0999 55.2908 32.7376 55.4406 31.3919H29.2901C29.439 32.7384 29.3057 34.1014 28.8986 35.393C28.4916 36.6846 27.8199 37.8762 26.9268 38.8911C26.0336 39.906 24.9389 40.7217 23.713 41.2856C22.4872 41.8496 21.1574 42.1492 19.8093 42.1654H15V48.8359H19.8093C22.3196 48.8425 24.7253 49.8467 26.5015 51.6293C28.2778 53.4119 29.2802 55.8282 29.2901 58.3508V58.964C30.7783 56.3731 32.915 54.2244 35.4699 52.7552C29.8606 47.3758 32.1608 35.9082 42.3654 35.52C44.9982 35.524 47.5221 36.5768 49.3838 38.4477C51.2454 40.3186 52.2931 42.8548 52.2971 45.5006C52.2935 47.8723 51.4513 50.1561 49.9358 51.9513C52.1352 52.9121 54.0903 54.3504 55.6789 56.1399ZM47.3533 51.0757C48.7529 49.8431 49.714 47.9849 49.7922 45.5005C49.4804 35.6319 35.2416 35.6457 34.926 45.5005C35.0175 48.3452 36.2684 50.3698 38.0094 51.5735C39.727 50.9492 41.575 50.6096 43.5 50.6096C44.8268 50.6096 46.1171 50.771 47.3533 51.0757ZM15 51.3531H19.8093C20.8299 51.368 21.8356 51.6021 22.7588 52.0397C23.682 52.4772 24.5014 53.1081 25.1621 53.89C25.8228 54.672 26.3094 55.5868 26.5893 56.5733C26.8693 57.5597 26.9361 58.5949 26.7853 59.6094H18.7573C18.2637 59.61 17.7748 59.5128 17.3186 59.3233C16.8625 59.1338 16.448 58.8557 16.099 58.505C15.75 58.1542 15.4733 57.7377 15.2847 57.2793C15.0961 56.8209 14.9993 56.3296 15 55.8336V51.3531Z" fill="url(#paint0_linear_945_21924)"/>
<circle cx="43" cy="67.6094" r="11" fill="#70CA98"/>
<g clip-path="url(#clip1_945_21924)">
<path d="M49.4167 62.9413V66.4413M49.4167 66.4413H45.9167M49.4167 66.4413L46.71 63.898C46.0831 63.2707 45.3075 62.8125 44.4556 62.5661C43.6036 62.3197 42.7032 62.2931 41.8382 62.4888C40.9732 62.6845 40.1719 63.0962 39.5091 63.6853C38.8462 64.2745 38.3434 65.022 38.0475 65.858M36.5834 72.2747V68.7747M36.5834 68.7747H40.0834M36.5834 68.7747L39.29 71.318C39.917 71.9452 40.6926 72.4035 41.5445 72.6499C42.3964 72.8963 43.2969 72.9229 44.1619 72.7272C45.0269 72.5315 45.8282 72.1198 46.491 71.5307C47.1539 70.9415 47.6567 70.194 47.9525 69.358" stroke="white" stroke-width="1.7" stroke-linecap="round" stroke-linejoin="round"/>
</g>
</g>
<defs>
<linearGradient id="paint0_linear_945_21924" x1="27.9062" y1="67.8094" x2="47.1303" y2="-27.0064" gradientUnits="userSpaceOnUse">
<stop stop-color="#A592DD"/>
<stop offset="1" stop-color="#E6DDFF"/>
</linearGradient>
<clipPath id="clip0_945_21924">
<rect width="86" height="86" fill="white" transform="translate(0 0.609375)"/>
</clipPath>
<clipPath id="clip1_945_21924">
<rect width="14" height="14" fill="white" transform="translate(36 60.6094)"/>
</clipPath>
</defs>
</svg>
