<svg width="86" height="86" viewBox="0 0 86 86" fill="none" xmlns="http://www.w3.org/2000/svg">
<g clip-path="url(#clip0_913_22037)">
<circle cx="43" cy="43" r="43" fill="#F6F4FC"/>
<path d="M66.5697 20H20.4303C19.4251 20.0023 18.4619 20.3974 17.752 21.0988C17.0422 21.8002 16.6436 22.7504 16.6439 23.7411V27.7467H70.354V23.74C70.354 22.7503 69.9559 21.8009 69.247 21.0999C68.5381 20.3989 67.5761 20.0034 66.5719 20H66.5697Z" fill="#A592DD"/>
<path d="M66.5697 20H20.4303C19.4251 20.0023 18.4619 20.3974 17.752 21.0988C17.0422 21.8002 16.6436 22.7504 16.6439 23.7411V27.7467H70.354V23.74C70.354 22.7503 69.9559 21.8009 69.247 21.0999C68.5381 20.3989 67.5761 20.0034 66.5719 20H66.5697Z" fill="url(#paint0_linear_913_22037)"/>
<path d="M16.6439 54.292C16.6433 55.2828 17.0417 56.2334 17.7516 56.935C18.4615 57.6366 19.4249 58.0319 20.4303 58.0342H30.0429C31.454 55.7652 33.4322 53.891 35.7883 52.5908C38.1444 51.2905 40.7997 50.6078 43.5 50.6078C46.2004 50.6078 48.8556 51.2905 51.2117 52.5908C53.5678 53.891 55.546 55.7652 56.9572 58.0342H66.5697C67.5749 58.0316 68.538 57.6362 69.2477 56.9346C69.9574 56.233 70.3556 55.2827 70.355 54.292V30.0352H16.645L16.6439 54.292ZM55.5049 48.8H63.5165C63.8244 48.8 64.1198 48.9205 64.3375 49.1351C64.5553 49.3497 64.6776 49.6408 64.6776 49.9443C64.6776 50.2478 64.5553 50.5388 64.3375 50.7534C64.1198 50.968 63.8244 51.0886 63.5165 51.0886H55.506C55.1981 51.0886 54.9027 50.968 54.685 50.7534C54.4672 50.5388 54.3449 50.2478 54.3449 49.9443C54.3449 49.6408 54.4672 49.3497 54.685 49.1351C54.9027 48.9205 55.1981 48.8 55.506 48.8H55.5049ZM23.4835 35.5155H39.4937C39.8017 35.5155 40.097 35.6361 40.3148 35.8507C40.5325 36.0653 40.6548 36.3564 40.6548 36.6598C40.6548 36.9633 40.5325 37.2544 40.3148 37.469C40.097 37.6836 39.8017 37.8042 39.4937 37.8042H23.4835C23.1756 37.8042 22.8803 37.6836 22.6625 37.469C22.4447 37.2544 22.3224 36.9633 22.3224 36.6598C22.3224 36.3564 22.4447 36.0653 22.6625 35.8507C22.8803 35.6361 23.1756 35.5155 23.4835 35.5155ZM23.4835 42.1296L36.5688 42.1179C36.8767 42.1179 37.172 42.2385 37.3898 42.4531C37.6076 42.6677 37.7299 42.9587 37.7299 43.2622C37.7299 43.5657 37.6076 43.8568 37.3898 44.0714C37.172 44.286 36.8767 44.4065 36.5688 44.4065L23.4835 44.4172C23.3282 44.4218 23.1734 44.3957 23.0285 44.3403C22.8835 44.2849 22.7513 44.2014 22.6397 44.0948C22.5281 43.9881 22.4394 43.8604 22.3788 43.7193C22.3182 43.5782 22.287 43.4266 22.287 43.2734C22.287 43.1202 22.3182 42.9685 22.3788 42.8274C22.4394 42.6863 22.5281 42.5587 22.6397 42.452C22.7513 42.3453 22.8835 42.2618 23.0285 42.2064C23.1734 42.1511 23.3282 42.1249 23.4835 42.1296Z" fill="#A592DD"/>
<path d="M16.6439 54.292C16.6433 55.2828 17.0417 56.2334 17.7516 56.935C18.4615 57.6366 19.4249 58.0319 20.4303 58.0342H30.0429C31.454 55.7652 33.4322 53.891 35.7883 52.5908C38.1444 51.2905 40.7997 50.6078 43.5 50.6078C46.2004 50.6078 48.8556 51.2905 51.2117 52.5908C53.5678 53.891 55.546 55.7652 56.9572 58.0342H66.5697C67.5749 58.0316 68.538 57.6362 69.2477 56.9346C69.9574 56.233 70.3556 55.2827 70.355 54.292V30.0352H16.645L16.6439 54.292ZM55.5049 48.8H63.5165C63.8244 48.8 64.1198 48.9205 64.3375 49.1351C64.5553 49.3497 64.6776 49.6408 64.6776 49.9443C64.6776 50.2478 64.5553 50.5388 64.3375 50.7534C64.1198 50.968 63.8244 51.0886 63.5165 51.0886H55.506C55.1981 51.0886 54.9027 50.968 54.685 50.7534C54.4672 50.5388 54.3449 50.2478 54.3449 49.9443C54.3449 49.6408 54.4672 49.3497 54.685 49.1351C54.9027 48.9205 55.1981 48.8 55.506 48.8H55.5049ZM23.4835 35.5155H39.4937C39.8017 35.5155 40.097 35.6361 40.3148 35.8507C40.5325 36.0653 40.6548 36.3564 40.6548 36.6598C40.6548 36.9633 40.5325 37.2544 40.3148 37.469C40.097 37.6836 39.8017 37.8042 39.4937 37.8042H23.4835C23.1756 37.8042 22.8803 37.6836 22.6625 37.469C22.4447 37.2544 22.3224 36.9633 22.3224 36.6598C22.3224 36.3564 22.4447 36.0653 22.6625 35.8507C22.8803 35.6361 23.1756 35.5155 23.4835 35.5155ZM23.4835 42.1296L36.5688 42.1179C36.8767 42.1179 37.172 42.2385 37.3898 42.4531C37.6076 42.6677 37.7299 42.9587 37.7299 43.2622C37.7299 43.5657 37.6076 43.8568 37.3898 44.0714C37.172 44.286 36.8767 44.4065 36.5688 44.4065L23.4835 44.4172C23.3282 44.4218 23.1734 44.3957 23.0285 44.3403C22.8835 44.2849 22.7513 44.2014 22.6397 44.0948C22.5281 43.9881 22.4394 43.8604 22.3788 43.7193C22.3182 43.5782 22.287 43.4266 22.287 43.2734C22.287 43.1202 22.3182 42.9685 22.3788 42.8274C22.4394 42.6863 22.5281 42.5587 22.6397 42.452C22.7513 42.3453 22.8835 42.2618 23.0285 42.2064C23.1734 42.1511 23.3282 42.1249 23.4835 42.1296Z" fill="url(#paint1_linear_913_22037)"/>
<g clip-path="url(#clip1_913_22037)">
<path d="M43.5 55.082C41.4398 55.082 39.4259 55.693 37.7129 56.8376C35.9998 57.9822 34.6647 59.609 33.8763 61.5124C33.0879 63.4158 32.8816 65.5103 33.2835 67.5309C33.6855 69.5515 34.6776 71.4076 36.1344 72.8644C37.5911 74.3212 39.4472 75.3133 41.4679 75.7152C43.4885 76.1171 45.5829 75.9109 47.4863 75.1224C49.3897 74.334 51.0166 72.9989 52.1612 71.2859C53.3058 69.5729 53.9167 67.5589 53.9167 65.4987C53.9167 64.1308 53.6473 62.7762 53.1238 61.5124C52.6003 60.2486 51.833 59.1003 50.8657 58.133C49.8985 57.1657 48.7501 56.3984 47.4863 55.875C46.2225 55.3515 44.868 55.082 43.5 55.082V55.082ZM47.9792 63.0091L43.2188 69.2591C43.1218 69.3852 42.9971 69.4873 42.8545 69.5577C42.7118 69.6282 42.555 69.665 42.3959 69.6654C42.2377 69.6662 42.0813 69.631 41.9387 69.5624C41.7961 69.4938 41.6711 69.3937 41.573 69.2695L39.0313 66.0299C38.9472 65.9219 38.8851 65.7983 38.8488 65.6663C38.8124 65.5342 38.8024 65.3963 38.8193 65.2604C38.8363 65.1245 38.8798 64.9933 38.9474 64.8742C39.0151 64.7551 39.1055 64.6505 39.2136 64.5664C39.4318 64.3965 39.7086 64.3203 39.9831 64.3544C40.119 64.3714 40.2503 64.4149 40.3693 64.4825C40.4884 64.5502 40.593 64.6406 40.6771 64.7487L42.375 66.9154L46.3125 61.707C46.396 61.5976 46.5002 61.5057 46.6191 61.4365C46.7381 61.3673 46.8695 61.3223 47.0059 61.3039C47.1423 61.2855 47.281 61.2942 47.414 61.3294C47.5471 61.3646 47.6719 61.4257 47.7813 61.5091C47.8907 61.5926 47.9827 61.6967 48.0518 61.8157C48.121 61.9347 48.1661 62.0661 48.1844 62.2025C48.2028 62.3389 48.1942 62.4776 48.1589 62.6106C48.1237 62.7436 48.0627 62.8684 47.9792 62.9779V63.0091Z" fill="#70CA98"/>
</g>
</g>
<defs>
<linearGradient id="paint0_linear_913_22037" x1="28.393" y1="29.296" x2="29.1765" y2="10.6777" gradientUnits="userSpaceOnUse">
<stop stop-color="#A592DD"/>
<stop offset="1" stop-color="#E6DDFF"/>
</linearGradient>
<linearGradient id="paint1_linear_913_22037" x1="28.3932" y1="63.634" x2="38.4143" y2="-2.25361" gradientUnits="userSpaceOnUse">
<stop stop-color="#A592DD"/>
<stop offset="1" stop-color="#E6DDFF"/>
</linearGradient>
<clipPath id="clip0_913_22037">
<rect width="86" height="86" fill="white"/>
</clipPath>
<clipPath id="clip1_913_22037">
<rect width="25" height="25" fill="white" transform="translate(31 53)"/>
</clipPath>
</defs>
</svg>
