<svg width="142" height="142" viewBox="0 0 142 142" fill="none" xmlns="http://www.w3.org/2000/svg">
<g clip-path="url(#clip0_1928_190776)">
<circle cx="71" cy="71" r="71" fill="#F6F4FC"/>
<path fill-rule="evenodd" clip-rule="evenodd" d="M45.2898 37.7692C43.5773 39.0025 42.4166 40.8763 42.0627 42.979L40.0795 55.0903C38.5915 55.8079 37.3343 56.9397 36.4536 58.3542C35.573 59.7688 35.1051 61.4082 35.1042 63.0821V73.1425L33.1906 73.4607C32.0332 73.6478 30.85 73.3626 29.8986 72.6672C28.9472 71.9718 28.3047 70.9225 28.1109 69.7478L23.1704 39.4958C22.9882 38.3198 23.2696 37.1182 23.9535 36.1517C24.6374 35.1852 25.6687 34.5317 26.8236 34.333L93.1031 23.1764C93.6767 23.08 94.2633 23.0996 94.8294 23.2341C95.3955 23.3687 95.9298 23.6155 96.4018 23.9605C96.8738 24.3055 97.274 24.7418 97.5797 25.2444C97.8853 25.747 98.0903 26.3061 98.1828 26.8894L101.123 44.8708L51.1957 36.4017C49.1265 36.044 47.0023 36.5359 45.2898 37.7692ZM67.6413 82.9095C66.8311 81.4524 66.327 79.6818 66.2608 77.5981C66.6992 63.754 86.4769 63.7345 86.9101 77.5981C86.8009 81.106 85.4527 83.7253 83.4925 85.4566C79.994 83.6037 76.0281 82.5581 71.8256 82.5581C70.4006 82.5581 69.0028 82.6784 67.6413 82.9095ZM64.1876 83.7547C60.4772 75.6179 64.6141 64.0382 76.5941 63.5774C80.2511 63.583 83.7568 65.062 86.3427 67.6902C88.9286 70.3184 90.3838 73.8815 90.3893 77.5983C90.3839 81.2351 88.9906 84.7247 86.5082 87.3353C89.9809 89.8505 92.8206 93.2338 94.7316 97.1798C94.5638 95.3672 94.7552 93.538 95.2953 91.8005C95.8591 89.9866 96.7905 88.3129 98.0294 86.8871C99.2684 85.4613 100.787 84.3151 102.489 83.5222C104.19 82.7294 106.036 82.3075 107.907 82.2837H114.605V72.9129C113.756 72.9147 112.502 72.9138 111.249 72.9129C109.997 72.912 108.748 72.9111 107.907 72.9129C106.036 72.8891 104.19 72.4672 102.489 71.6744C100.787 70.8815 99.2684 69.7353 98.0294 68.3095C96.7905 66.8837 95.8591 65.21 95.2953 63.3962C94.7314 61.5823 94.5477 59.6685 94.7558 57.7781H58.4325C58.6393 59.6697 58.4541 61.5844 57.8887 63.3989C57.3233 65.2134 56.3903 66.8874 55.1498 68.3131C53.9092 69.7389 52.3886 70.8848 50.6859 71.677C48.9832 72.4692 47.1361 72.8902 45.2636 72.9129H38.5834V82.2837H45.2636C48.7503 82.293 52.092 83.7037 54.5591 86.208C55.1403 86.7979 55.6618 87.4372 56.1198 88.1162C58.5071 86.1982 61.2322 84.7073 64.1876 83.7547ZM53.5181 90.5158C53.2717 90.1206 52.998 89.7423 52.6986 89.3839C51.781 88.2855 50.6428 87.3991 49.3604 86.7845C48.0781 86.1698 46.6812 85.8409 45.2636 85.8199H38.5834V92.1143C38.5825 92.8111 38.7169 93.5013 38.9788 94.1452C39.2408 94.7892 39.6251 95.3743 40.1099 95.867C40.5947 96.3598 41.1704 96.7504 41.804 97.0167C42.4376 97.2829 43.1167 97.4195 43.8023 97.4185H48.8054C50.0139 94.8587 51.6112 92.5305 53.5181 90.5158ZM118.453 51.7231C118.943 52.0327 119.367 52.438 119.702 52.9155C120.047 53.397 120.292 53.9443 120.424 54.5246C120.555 55.1049 120.57 55.7063 120.467 56.2925L118.084 70.8262V63.082C118.078 60.7392 117.16 58.4941 115.53 56.8376C113.9 55.181 111.691 54.2476 109.386 54.2416H43.7327L45.4897 43.5623C45.6896 42.3861 46.3402 41.3384 47.299 40.649C48.2577 39.9596 49.4464 39.6847 50.6042 39.8847L116.849 51.112C117.418 51.2058 117.964 51.4135 118.453 51.7231ZM42.2109 69.376H42.2106H42.2103H42.21H42.2096C40.8644 69.3747 39.4813 69.3735 38.5834 69.3764V63.082C38.5825 62.3852 38.7169 61.695 38.9788 61.051C39.2408 60.4071 39.6251 59.822 40.1099 59.3292C40.5947 58.8365 41.1704 58.4458 41.804 58.1796C42.4376 57.9134 43.1167 57.7768 43.8023 57.7777H54.9532V59.5458C54.945 62.1535 53.9209 64.6517 52.105 66.494C50.2891 68.3363 47.8293 69.3726 45.2636 69.3764C44.4957 69.378 43.3673 69.377 42.2109 69.376ZM98.235 57.7781H109.386C110.77 57.779 112.097 58.3382 113.075 59.3327C114.054 60.3272 114.604 61.6758 114.605 63.0823V69.3767H107.907C106.491 69.3544 105.095 69.0244 103.814 68.409C102.534 67.7936 101.397 66.9069 100.481 65.8085C99.5651 64.7101 98.8908 63.4252 98.5034 62.0402C98.116 60.6552 98.0245 59.202 98.235 57.7781ZM103.814 86.7876C105.095 86.1722 106.491 85.8422 107.907 85.8199C108.678 85.8183 109.809 85.8193 110.969 85.8203H110.969H110.97H110.971H110.972C112.32 85.8215 113.705 85.8228 114.605 85.8199V92.1143C114.604 93.5208 114.054 94.8694 113.075 95.8639C112.097 96.8585 110.77 97.4176 109.386 97.4185H98.235C98.0245 95.9946 98.116 94.5414 98.5034 93.1564C98.8908 91.7714 99.5651 90.4865 100.481 89.3881C101.397 88.2897 102.534 87.403 103.814 86.7876Z" fill="#A592DD"/>
<path fill-rule="evenodd" clip-rule="evenodd" d="M45.2898 37.7692C43.5773 39.0025 42.4166 40.8763 42.0627 42.979L40.0795 55.0903C38.5915 55.8079 37.3343 56.9397 36.4536 58.3542C35.573 59.7688 35.1051 61.4082 35.1042 63.0821V73.1425L33.1906 73.4607C32.0332 73.6478 30.85 73.3626 29.8986 72.6672C28.9472 71.9718 28.3047 70.9225 28.1109 69.7478L23.1704 39.4958C22.9882 38.3198 23.2696 37.1182 23.9535 36.1517C24.6374 35.1852 25.6687 34.5317 26.8236 34.333L93.1031 23.1764C93.6767 23.08 94.2633 23.0996 94.8294 23.2341C95.3955 23.3687 95.9298 23.6155 96.4018 23.9605C96.8738 24.3055 97.274 24.7418 97.5797 25.2444C97.8853 25.747 98.0903 26.3061 98.1828 26.8894L101.123 44.8708L51.1957 36.4017C49.1265 36.044 47.0023 36.5359 45.2898 37.7692ZM67.6413 82.9095C66.8311 81.4524 66.327 79.6818 66.2608 77.5981C66.6992 63.754 86.4769 63.7345 86.9101 77.5981C86.8009 81.106 85.4527 83.7253 83.4925 85.4566C79.994 83.6037 76.0281 82.5581 71.8256 82.5581C70.4006 82.5581 69.0028 82.6784 67.6413 82.9095ZM64.1876 83.7547C60.4772 75.6179 64.6141 64.0382 76.5941 63.5774C80.2511 63.583 83.7568 65.062 86.3427 67.6902C88.9286 70.3184 90.3838 73.8815 90.3893 77.5983C90.3839 81.2351 88.9906 84.7247 86.5082 87.3353C89.9809 89.8505 92.8206 93.2338 94.7316 97.1798C94.5638 95.3672 94.7552 93.538 95.2953 91.8005C95.8591 89.9866 96.7905 88.3129 98.0294 86.8871C99.2684 85.4613 100.787 84.3151 102.489 83.5222C104.19 82.7294 106.036 82.3075 107.907 82.2837H114.605V72.9129C113.756 72.9147 112.502 72.9138 111.249 72.9129C109.997 72.912 108.748 72.9111 107.907 72.9129C106.036 72.8891 104.19 72.4672 102.489 71.6744C100.787 70.8815 99.2684 69.7353 98.0294 68.3095C96.7905 66.8837 95.8591 65.21 95.2953 63.3962C94.7314 61.5823 94.5477 59.6685 94.7558 57.7781H58.4325C58.6393 59.6697 58.4541 61.5844 57.8887 63.3989C57.3233 65.2134 56.3903 66.8874 55.1498 68.3131C53.9092 69.7389 52.3886 70.8848 50.6859 71.677C48.9832 72.4692 47.1361 72.8902 45.2636 72.9129H38.5834V82.2837H45.2636C48.7503 82.293 52.092 83.7037 54.5591 86.208C55.1403 86.7979 55.6618 87.4372 56.1198 88.1162C58.5071 86.1982 61.2322 84.7073 64.1876 83.7547ZM53.5181 90.5158C53.2717 90.1206 52.998 89.7423 52.6986 89.3839C51.781 88.2855 50.6428 87.3991 49.3604 86.7845C48.0781 86.1698 46.6812 85.8409 45.2636 85.8199H38.5834V92.1143C38.5825 92.8111 38.7169 93.5013 38.9788 94.1452C39.2408 94.7892 39.6251 95.3743 40.1099 95.867C40.5947 96.3598 41.1704 96.7504 41.804 97.0167C42.4376 97.2829 43.1167 97.4195 43.8023 97.4185H48.8054C50.0139 94.8587 51.6112 92.5305 53.5181 90.5158ZM118.453 51.7231C118.943 52.0327 119.367 52.438 119.702 52.9155C120.047 53.397 120.292 53.9443 120.424 54.5246C120.555 55.1049 120.57 55.7063 120.467 56.2925L118.084 70.8262V63.082C118.078 60.7392 117.16 58.4941 115.53 56.8376C113.9 55.181 111.691 54.2476 109.386 54.2416H43.7327L45.4897 43.5623C45.6896 42.3861 46.3402 41.3384 47.299 40.649C48.2577 39.9596 49.4464 39.6847 50.6042 39.8847L116.849 51.112C117.418 51.2058 117.964 51.4135 118.453 51.7231ZM42.2109 69.376H42.2106H42.2103H42.21H42.2096C40.8644 69.3747 39.4813 69.3735 38.5834 69.3764V63.082C38.5825 62.3852 38.7169 61.695 38.9788 61.051C39.2408 60.4071 39.6251 59.822 40.1099 59.3292C40.5947 58.8365 41.1704 58.4458 41.804 58.1796C42.4376 57.9134 43.1167 57.7768 43.8023 57.7777H54.9532V59.5458C54.945 62.1535 53.9209 64.6517 52.105 66.494C50.2891 68.3363 47.8293 69.3726 45.2636 69.3764C44.4957 69.378 43.3673 69.377 42.2109 69.376ZM98.235 57.7781H109.386C110.77 57.779 112.097 58.3382 113.075 59.3327C114.054 60.3272 114.604 61.6758 114.605 63.0823V69.3767H107.907C106.491 69.3544 105.095 69.0244 103.814 68.409C102.534 67.7936 101.397 66.9069 100.481 65.8085C99.5651 64.7101 98.8908 63.4252 98.5034 62.0402C98.116 60.6552 98.0245 59.202 98.235 57.7781ZM103.814 86.7876C105.095 86.1722 106.491 85.8422 107.907 85.8199C108.678 85.8183 109.809 85.8193 110.969 85.8203H110.969H110.97H110.971H110.972C112.32 85.8215 113.705 85.8228 114.605 85.8199V92.1143C114.604 93.5208 114.054 94.8694 113.075 95.8639C112.097 96.8585 110.77 97.4176 109.386 97.4185H98.235C98.0245 95.9946 98.116 94.5414 98.5034 93.1564C98.8908 91.7714 99.5651 90.4865 100.481 89.3881C101.397 88.2897 102.534 87.403 103.814 86.7876Z" fill="url(#paint0_linear_1928_190776)"/>
<g clip-path="url(#clip1_1928_190776)">
<path d="M71.8246 92.6023C68.4229 92.6023 65.0975 93.611 62.269 95.501C59.4406 97.3909 57.236 100.077 55.9343 103.22C54.6325 106.363 54.2918 109.821 54.9555 113.157C55.6191 116.494 57.2572 119.558 59.6627 121.964C62.0681 124.369 65.1327 126.007 68.4691 126.671C71.8055 127.335 75.2638 126.994 78.4066 125.692C81.5494 124.39 84.2357 122.186 86.1256 119.358C88.0155 116.529 89.0242 113.204 89.0242 109.802C89.0242 107.543 88.5794 105.307 87.715 103.22C86.8506 101.133 85.5837 99.2371 83.9866 97.6399C82.3895 96.0428 80.4934 94.7759 78.4066 93.9115C76.3199 93.0472 74.0833 92.6023 71.8246 92.6023V92.6023ZM79.2205 105.691L71.3602 116.011C71.2 116.219 70.9942 116.388 70.7587 116.504C70.5232 116.62 70.2641 116.681 70.0015 116.682C69.7402 116.683 69.4821 116.625 69.2466 116.512C69.0112 116.399 68.8047 116.233 68.6427 116.028L64.446 110.679C64.3071 110.501 64.2047 110.297 64.1446 110.079C64.0846 109.861 64.0681 109.633 64.096 109.408C64.124 109.184 64.1958 108.967 64.3075 108.771C64.4192 108.574 64.5685 108.401 64.747 108.263C65.1073 107.982 65.5644 107.856 66.0176 107.913C66.242 107.941 66.4587 108.012 66.6553 108.124C66.8519 108.236 67.0246 108.385 67.1635 108.564L69.9671 112.141L76.4685 103.541C76.6063 103.361 76.7783 103.209 76.9748 103.095C77.1712 102.98 77.3882 102.906 77.6134 102.876C77.8386 102.845 78.0676 102.86 78.2872 102.918C78.5069 102.976 78.713 103.077 78.8937 103.214C79.0744 103.352 79.2261 103.524 79.3404 103.721C79.4546 103.917 79.529 104.134 79.5593 104.359C79.5897 104.585 79.5754 104.814 79.5172 105.033C79.4591 105.253 79.3582 105.459 79.2205 105.64V105.691Z" fill="#70CA98"/>
</g>
</g>
<defs>
<linearGradient id="paint0_linear_1928_190776" x1="44.4265" y1="112.279" x2="82.3578" y2="-58.1738" gradientUnits="userSpaceOnUse">
<stop stop-color="#A592DD"/>
<stop offset="1" stop-color="#E6DDFF"/>
</linearGradient>
<clipPath id="clip0_1928_190776">
<rect width="142" height="142" fill="white"/>
</clipPath>
<clipPath id="clip1_1928_190776">
<rect width="41.2791" height="41.2791" fill="white" transform="translate(51.1865 89.1628)"/>
</clipPath>
</defs>
</svg>
