<svg width="24" height="24" viewBox="0 0 24 24" fill="none" xmlns="http://www.w3.org/2000/svg">
<g clip-path="url(#clip0_939_20698)">
<rect width="24" height="24" transform="translate(24) rotate(90)" fill="white"/>
<path d="M15 4L15 17L13.8 15.4C13.7212 15.2949 13.6225 15.2064 13.5095 15.1395C13.3965 15.0726 13.2714 15.0286 13.1414 15.0101C13.0114 14.9915 12.879 14.9987 12.7518 15.0313C12.6246 15.0639 12.5051 15.1212 12.4 15.2C12.2758 15.2931 12.175 15.4139 12.1056 15.5528C12.0361 15.6916 12 15.8448 12 16C12 16.2164 12.0702 16.4269 12.2 16.6L15.2 20.6C15.2933 20.7223 15.4136 20.8214 15.5515 20.8897C15.6894 20.9579 15.8411 20.9934 15.995 20.9934C16.1488 20.9934 16.3006 20.9579 16.4385 20.8897C16.5764 20.8214 16.6967 20.7223 16.79 20.6L19.79 16.74C19.9531 16.5305 20.0263 16.2647 19.9935 16.0013C19.9607 15.7378 19.8245 15.4981 19.615 15.335C19.4055 15.1719 19.1397 15.0987 18.8763 15.1315C18.6128 15.1643 18.3731 15.3005 18.21 15.51L17 17.08L17 4C17 3.73478 16.8946 3.48043 16.7071 3.29289C16.5196 3.10536 16.2652 3 16 3C15.7348 3 15.4804 3.10536 15.2929 3.29289C15.1054 3.48043 15 3.73478 15 4V4Z" fill="#2E3A59"/>
<path d="M8 20.0012L8 7.0012L9.2 8.6012C9.35913 8.81338 9.59602 8.95364 9.85857 8.99115C10.1211 9.02866 10.3878 8.96033 10.6 8.8012C10.8122 8.64207 10.9524 8.40518 10.9899 8.14262C11.0275 7.88007 10.9591 7.61338 10.8 7.4012L7.8 3.4012C7.70667 3.2789 7.58639 3.17977 7.4485 3.11154C7.31061 3.04331 7.15884 3.00781 7.005 3.00781C6.85115 3.00781 6.69938 3.04331 6.56149 3.11154C6.42361 3.17977 6.30332 3.2789 6.21 3.4012L3.21 7.2612C3.07453 7.43575 3.00068 7.65025 3 7.8712C3.00036 8.02392 3.0357 8.17453 3.10331 8.31147C3.17091 8.44841 3.26898 8.56804 3.39 8.6612C3.59847 8.82359 3.86274 8.89687 4.12507 8.86502C4.38739 8.83316 4.62645 8.69877 4.79 8.4912L6 6.9212L6 20.0012C6 20.2664 6.10535 20.5208 6.29289 20.7083C6.48042 20.8958 6.73478 21.0012 7 21.0012C7.26521 21.0012 7.51957 20.8958 7.7071 20.7083C7.89464 20.5208 8 20.2664 8 20.0012Z" fill="#2E3A59"/>
</g>
<defs>
<clipPath id="clip0_939_20698">
<rect width="24" height="24" fill="white" transform="translate(24) rotate(90)"/>
</clipPath>
</defs>
</svg>
