<svg width="18" height="18" viewBox="0 0 18 18" fill="none" xmlns="http://www.w3.org/2000/svg">
<path d="M8.29269 15.3126C8.68324 15.7032 9.31645 15.7032 9.70696 15.3126L12.9771 12.0419C13.2699 11.749 13.2699 11.2743 12.977 10.9814C12.6842 10.6886 12.2094 10.6886 11.9165 10.9814L9.27991 13.618C9.12362 13.7743 8.87019 13.7742 8.71401 13.6178L6.08221 10.982C5.78955 10.6889 5.31462 10.6887 5.02173 10.9816C4.729 11.2743 4.729 11.749 5.02173 12.0417L8.29269 15.3126Z" fill="url(#paint0_linear_1606_30891)"/>
<path d="M9.70696 2.68758C9.31644 2.29705 8.68327 2.29705 8.29275 2.68758L5.02269 5.95764C4.72984 6.25048 4.72984 6.72527 5.02269 7.01812C5.31553 7.31096 5.79032 7.31096 6.08316 7.01812L8.72001 4.38127C8.87622 4.22506 9.12949 4.22506 9.2857 4.38127L11.9225 7.01811C12.2151 7.31071 12.6898 7.31004 12.9815 7.01661C13.2721 6.72436 13.2715 6.25206 12.98 5.96064L9.70696 2.68758Z" fill="url(#paint1_linear_1606_30891)"/>
<defs>
<linearGradient id="paint0_linear_1606_30891" x1="4.15758" y1="11.7264" x2="8.78739" y2="17.711" gradientUnits="userSpaceOnUse">
<stop stop-color="#2E2C2C"/>
<stop offset="0.674628" stop-color="#4B4949"/>
<stop offset="1" stop-color="#131313"/>
<stop offset="1" stop-opacity="0.94"/>
<stop offset="1" stop-color="#434343"/>
</linearGradient>
<linearGradient id="paint1_linear_1606_30891" x1="4.15836" y1="3.25556" x2="8.78748" y2="9.23959" gradientUnits="userSpaceOnUse">
<stop stop-color="#2E2C2C"/>
<stop offset="0.674628" stop-color="#4B4949"/>
<stop offset="1" stop-color="#131313"/>
<stop offset="1" stop-opacity="0.94"/>
<stop offset="1" stop-color="#434343"/>
</linearGradient>
</defs>
</svg>
