<svg width="25" height="24" viewBox="0 0 25 24" fill="none" xmlns="http://www.w3.org/2000/svg">
<g clip-path="url(#clip0_1606_13902)">
<path d="M18.5 15C17.7144 15.0006 16.9604 15.3094 16.4 15.86L8.50003 12.34V12V11.67L16.4 8.13999C16.8949 8.62501 17.5423 8.9238 18.2324 8.9856C18.9225 9.04741 19.6128 8.86843 20.1859 8.47906C20.759 8.08969 21.1797 7.51393 21.3765 6.84958C21.5733 6.18523 21.534 5.47325 21.2654 4.83455C20.9968 4.19585 20.5154 3.66982 19.9029 3.3458C19.2905 3.02179 18.5848 2.91975 17.9056 3.05704C17.2265 3.19433 16.6158 3.56246 16.1773 4.09893C15.7388 4.63539 15.4995 5.30711 15.5 5.99999V6.33999L7.60003 9.85999C7.17839 9.44575 6.64378 9.16529 6.0633 9.05382C5.48282 8.94235 4.88235 9.00485 4.33726 9.23346C3.79218 9.46207 3.32677 9.84661 2.99947 10.3388C2.67217 10.831 2.49756 11.4089 2.49756 12C2.49756 12.5911 2.67217 13.169 2.99947 13.6612C3.32677 14.1534 3.79218 14.5379 4.33726 14.7665C4.88235 14.9951 5.48282 15.0576 6.0633 14.9462C6.64378 14.8347 7.17839 14.5542 7.60003 14.14L15.5 17.67V18C15.5 18.5933 15.676 19.1734 16.0056 19.6667C16.3353 20.16 16.8038 20.5446 17.352 20.7716C17.9002 20.9987 18.5034 21.0581 19.0853 20.9423C19.6672 20.8266 20.2018 20.5409 20.6214 20.1213C21.0409 19.7018 21.3266 19.1672 21.4424 18.5853C21.5581 18.0033 21.4987 17.4001 21.2717 16.8519C21.0446 16.3038 20.6601 15.8352 20.1667 15.5056C19.6734 15.1759 19.0934 15 18.5 15Z" fill="url(#paint0_linear_1606_13902)"/>
</g>
<defs>
<linearGradient id="paint0_linear_1606_13902" x1="6.84929" y1="21.6672" x2="23.5266" y2="1.07377" gradientUnits="userSpaceOnUse">
<stop stop-color="#2E2C2C"/>
<stop offset="0.674628" stop-color="#4B4949"/>
<stop offset="1" stop-color="#131313"/>
<stop offset="1" stop-opacity="0.94"/>
<stop offset="1" stop-color="#434343"/>
</linearGradient>
<clipPath id="clip0_1606_13902">
<rect width="24" height="24" fill="white" transform="translate(0.5)"/>
</clipPath>
</defs>
</svg>
