<svg width="458" height="429" viewBox="0 0 458 429" fill="none" xmlns="http://www.w3.org/2000/svg">
<path d="M70.139 22.937C62.7401 32.5221 67.2282 87.1151 70.3971 113.213C59.5585 122.353 31.7749 196.596 45.9732 261.966C90.5693 467.288 314.52 430.788 390.262 345.96C410.155 331.71 432.833 332.416 457.453 332.506C454.167 294.795 418.437 274.514 404.321 268.293C382.663 258.75 354.053 262.495 334.148 274.407C275.334 338.986 165.928 340.472 138.784 235.551C126.221 91.3627 285.014 94.5142 323.557 152.845C333.293 145.292 360.944 123.66 374.936 90.2556C383.384 59.8371 378.817 24.0558 371.034 8.34301C359.416 6.82217 320.208 7.58591 291.879 35.8028C252.392 18.1437 164.958 26.2983 136.786 47.0809C118.421 36.6113 77.5379 13.3518 70.139 22.937Z" fill="#FDD674" fill-opacity="0.3"/>
<path d="M70.1584 23.043C62.7258 32.6288 74.1103 78.7127 77.2823 104.804C65.346 117.313 31.5724 196.676 45.8039 262.025C86.6331 449.508 277.785 435.228 368.564 366.698C295.372 383.851 240.89 341.52 222.798 318.21C185.492 312.802 152.334 286.958 139.003 235.582C126.443 91.4316 285.882 94.5223 324.559 152.825C334.339 145.27 362.11 123.633 376.172 90.2307C384.665 59.8161 380.094 24.0448 372.285 8.33868C360.62 6.82259 321.252 7.60098 292.797 35.822C253.156 18.1819 184.117 22.7781 155.822 43.5665C137.387 33.1063 77.5911 13.4573 70.1584 23.043Z" fill="url(#paint0_linear_747_15925)" fill-opacity="0.3"/>
<defs>
<linearGradient id="paint0_linear_747_15925" x1="117.992" y1="126.133" x2="576.589" y2="616.231" gradientUnits="userSpaceOnUse">
<stop stop-color="#FDD674"/>
<stop offset="0.608803" stop-color="#EF9422"/>
</linearGradient>
</defs>
</svg>
