<svg width="24" height="24" viewBox="0 0 24 24" fill="none" xmlns="http://www.w3.org/2000/svg">
<path d="M20.3333 16.0994V18.5994C20.3343 18.8315 20.2867 19.0612 20.1937 19.2739C20.1008 19.4865 19.9644 19.6774 19.7934 19.8343C19.6224 19.9912 19.4205 20.1107 19.2006 20.185C18.9808 20.2594 18.7478 20.287 18.5167 20.2661C15.9523 19.9875 13.4891 19.1112 11.325 17.7078C9.31151 16.4283 7.60443 14.7212 6.32498 12.7078C4.91663 10.5338 4.04019 8.05859 3.76665 5.48276C3.74583 5.25232 3.77321 5.02006 3.84707 4.80078C3.92092 4.5815 4.03963 4.38 4.19562 4.20911C4.35162 4.03822 4.54149 3.90169 4.75314 3.8082C4.9648 3.71471 5.1936 3.66631 5.42499 3.6661H7.92498C8.32941 3.66212 8.72148 3.80533 9.02812 4.06904C9.33476 4.33275 9.53505 4.69897 9.59165 5.09943C9.69717 5.89948 9.89286 6.68504 10.175 7.4411C10.2871 7.73937 10.3114 8.06352 10.2449 8.37516C10.1784 8.6868 10.024 8.97286 9.79998 9.19943L8.74165 10.2578C9.92795 12.3441 11.6554 14.0715 13.7417 15.2578L14.8 14.1994C15.0266 13.9754 15.3126 13.821 15.6242 13.7545C15.9359 13.688 16.26 13.7123 16.5583 13.8244C17.3144 14.1066 18.0999 14.3022 18.9 14.4078C19.3048 14.4649 19.6745 14.6688 19.9388 14.9807C20.203 15.2926 20.3435 15.6907 20.3333 16.0994Z" stroke="url(#paint0_linear_747_15651)" stroke-width="1.3" stroke-linecap="round" stroke-linejoin="round"/>
<defs>
<linearGradient id="paint0_linear_747_15651" x1="7.55546" y1="20.8883" x2="18.6666" y2="6.99942" gradientUnits="userSpaceOnUse">
<stop stop-color="#2E2C2C"/>
<stop offset="0.674628" stop-color="#4B4949"/>
<stop offset="1" stop-color="#131313"/>
<stop offset="1" stop-opacity="0.94"/>
<stop offset="1" stop-color="#434343"/>
</linearGradient>
</defs>
</svg>
