<svg width="25" height="24" viewBox="0 0 25 24" fill="none" xmlns="http://www.w3.org/2000/svg">
<path d="M21.5 11.5C21.5034 12.8199 21.1951 14.1219 20.6 15.3C19.8944 16.7118 18.8098 17.8992 17.4674 18.7293C16.1251 19.5594 14.5782 19.9994 13 20C11.6801 20.0035 10.3781 19.6951 9.2 19.1L3.5 21L5.4 15.3C4.80493 14.1219 4.49656 12.8199 4.5 11.5C4.50061 9.92179 4.94061 8.37488 5.77072 7.03258C6.60083 5.69028 7.78825 4.6056 9.2 3.90003C10.3781 3.30496 11.6801 2.99659 13 3.00003H13.5C15.5843 3.11502 17.553 3.99479 19.0291 5.47089C20.5052 6.94699 21.385 8.91568 21.5 11V11.5Z" stroke="url(#paint0_linear_1878_2486)" stroke-width="2" stroke-linecap="round" stroke-linejoin="round"/>
<path d="M21.5 11.5C21.5034 12.8199 21.1951 14.1219 20.6 15.3C19.8944 16.7118 18.8098 17.8992 17.4674 18.7293C16.1251 19.5594 14.5782 19.9994 13 20C11.6801 20.0035 10.3781 19.6951 9.2 19.1L3.5 21L5.4 15.3C4.80493 14.1219 4.49656 12.8199 4.5 11.5C4.50061 9.92179 4.94061 8.37488 5.77072 7.03258C6.60083 5.69028 7.78825 4.6056 9.2 3.90003C10.3781 3.30496 11.6801 2.99659 13 3.00003H13.5C15.5843 3.11502 17.553 3.99479 19.0291 5.47089C20.5052 6.94699 21.385 8.91568 21.5 11V11.5Z" stroke="url(#paint1_linear_1878_2486)" stroke-width="2" stroke-linecap="round" stroke-linejoin="round"/>
<circle cx="10.4714" cy="11.4023" r="0.5" fill="#2E3A59" stroke="url(#paint2_linear_1878_2486)" stroke-width="0.5"/>
<circle cx="12.9714" cy="11.4023" r="0.5" fill="#2E3A59" stroke="url(#paint3_linear_1878_2486)" stroke-width="0.5"/>
<circle cx="15.4714" cy="11.4023" r="0.5" fill="#2E3A59" stroke="url(#paint4_linear_1878_2486)" stroke-width="0.5"/>
<defs>
<linearGradient id="paint0_linear_1878_2486" x1="7.62216" y1="21.6671" x2="31.928" y2="-15.547" gradientUnits="userSpaceOnUse">
<stop stop-color="#2E3A59"/>
<stop offset="0.674628" stop-color="#4B4949"/>
<stop offset="1" stop-color="#131313"/>
<stop offset="1" stop-opacity="0.94"/>
<stop offset="1" stop-color="#434343"/>
</linearGradient>
<linearGradient id="paint1_linear_1878_2486" x1="7.62216" y1="21.6671" x2="31.928" y2="-15.547" gradientUnits="userSpaceOnUse">
<stop stop-color="#2C56C0"/>
<stop offset="0.674628" stop-color="#4B4949"/>
<stop offset="1" stop-color="#131313"/>
<stop offset="1" stop-opacity="0.94"/>
<stop offset="1" stop-color="#434343"/>
</linearGradient>
<linearGradient id="paint2_linear_1878_2486" x1="10.0649" y1="12.2079" x2="12.0904" y2="9.10676" gradientUnits="userSpaceOnUse">
<stop stop-color="#2C56C0"/>
<stop offset="0.674628" stop-color="#4B4949"/>
<stop offset="1" stop-color="#131313"/>
<stop offset="1" stop-opacity="0.94"/>
<stop offset="1" stop-color="#434343"/>
</linearGradient>
<linearGradient id="paint3_linear_1878_2486" x1="12.5649" y1="12.2079" x2="14.5904" y2="9.10676" gradientUnits="userSpaceOnUse">
<stop stop-color="#2C56C0"/>
<stop offset="0.674628" stop-color="#4B4949"/>
<stop offset="1" stop-color="#131313"/>
<stop offset="1" stop-opacity="0.94"/>
<stop offset="1" stop-color="#434343"/>
</linearGradient>
<linearGradient id="paint4_linear_1878_2486" x1="15.0649" y1="12.2079" x2="17.0904" y2="9.10676" gradientUnits="userSpaceOnUse">
<stop stop-color="#2C56C0"/>
<stop offset="0.674628" stop-color="#4B4949"/>
<stop offset="1" stop-color="#131313"/>
<stop offset="1" stop-opacity="0.94"/>
<stop offset="1" stop-color="#434343"/>
</linearGradient>
</defs>
</svg>
