<svg width="402" height="402" viewBox="0 0 402 402" fill="none" xmlns="http://www.w3.org/2000/svg">
<path d="M27.956 144.865C26.683 153.408 48.4692 185.842 59.5214 200.992C55.9515 210.454 64.4774 266.351 96.0591 302.118C195.255 414.461 322.016 313.827 339.672 234.654C347.102 218.86 361.47 211.411 376.832 202.902C361.668 180.562 332.363 180.362 321.408 181.399C304.602 182.99 288.089 195.275 279.838 209.618C265.679 270.291 198.067 309.276 144.665 253.383C86.6827 167.965 186.662 114.688 230.954 137.604C234.39 129.513 244.083 106.424 241.176 80.7549C235.854 58.8741 220.564 38.1811 210.251 31.1041C202.487 34.1988 178.338 48.3135 170.512 75.7396C139.78 78.4794 88.1702 113.973 77.8568 136.715C62.7787 136.584 29.229 136.322 27.956 144.865Z" fill="#FDD674"/>
<path d="M28.005 144.924C26.7112 153.479 49.8318 178.216 60.8834 193.36C57.8019 205.301 64.3791 266.471 95.9743 302.214C186.619 404.759 300.685 329.37 333.375 255.116C293.764 291.259 245.111 283.851 225.736 275.63C200.624 285.24 170.985 280.681 144.812 253.326C86.8449 167.931 187.205 114.391 231.572 137.243C235.033 129.136 244.8 106.001 241.937 80.3095C236.645 58.4152 221.355 37.7302 211.028 30.6663C203.237 33.7802 178.993 47.9596 171.091 75.4323C140.269 78.2375 98.8765 105.116 88.4888 127.904C73.3698 127.804 29.2988 136.369 28.005 144.924Z" fill="url(#paint0_linear_344_5067)" fill-opacity="0.7"/>
<defs>
<linearGradient id="paint0_linear_344_5067" x1="93.6537" y1="192.48" x2="549.72" y2="338.138" gradientUnits="userSpaceOnUse">
<stop stop-color="#FDD674"/>
<stop offset="0.608803" stop-color="#EF9422"/>
</linearGradient>
</defs>
</svg>
