<svg width="350" height="350" viewBox="0 0 350 350" fill="none" xmlns="http://www.w3.org/2000/svg">
<path d="M36.7134 26.2085C30.826 33.8355 34.3973 77.276 36.9188 98.0428C28.2944 105.315 6.18662 164.392 17.4844 216.407C52.9701 379.785 231.171 350.742 291.44 283.242C307.269 271.903 325.314 272.465 344.905 272.537C342.29 242.53 313.859 226.392 302.626 221.442C285.393 213.848 262.628 216.828 246.789 226.307C199.99 277.693 112.934 278.876 91.3354 195.389C81.3389 80.6558 207.693 83.1635 238.361 129.578C246.109 123.568 268.111 106.356 279.245 79.7749C285.967 55.5705 282.333 27.0987 276.14 14.5959C266.895 13.3857 235.697 13.9934 213.155 36.446C181.735 22.3944 112.162 28.8831 89.7451 45.4201C75.1319 37.0893 42.6008 18.5815 36.7134 26.2085Z" fill="#FDD674" fill-opacity="0.3"/>
<path d="M36.7289 26.2929C30.8146 33.9204 39.8735 70.59 42.3975 91.3511C32.8996 101.304 6.02549 164.455 17.3496 216.454C49.838 365.637 201.94 354.274 274.175 299.744C215.935 313.393 172.582 279.709 158.186 261.161C128.501 256.858 102.117 236.294 91.5095 195.413C81.5156 80.7106 208.383 83.17 239.159 129.563C246.941 123.55 269.039 106.334 280.228 79.755C286.986 55.5537 283.349 27.09 277.135 14.5924C267.853 13.3861 236.528 14.0054 213.885 36.4613C182.342 22.4249 127.407 26.0821 104.893 42.6237C90.2234 34.3004 42.6432 18.6654 36.7289 26.2929Z" fill="url(#paint0_linear_415_5536)" fill-opacity="0.3"/>
<defs>
<linearGradient id="paint0_linear_415_5536" x1="74.7907" y1="108.323" x2="439.702" y2="498.301" gradientUnits="userSpaceOnUse">
<stop stop-color="#FDD674"/>
<stop offset="0.608803" stop-color="#EF9422"/>
</linearGradient>
</defs>
</svg>
