<svg width="16" height="12" viewBox="0 0 16 12" fill="none" xmlns="http://www.w3.org/2000/svg">
<path fill-rule="evenodd" clip-rule="evenodd" d="M8.33045 2.60802C10.5463 2.60811 12.6775 3.45955 14.2835 4.98635C14.4044 5.10422 14.5977 5.10274 14.7168 4.98302L15.8728 3.81635C15.9331 3.75563 15.9667 3.67338 15.9662 3.5878C15.9657 3.50221 15.9311 3.42036 15.8701 3.36035C11.655 -0.679198 5.00522 -0.679198 0.79012 3.36035C0.729062 3.42032 0.694418 3.50215 0.693855 3.58773C0.693292 3.67331 0.726856 3.75558 0.78712 3.81635L1.94345 4.98302C2.06248 5.10292 2.25593 5.10441 2.37679 4.98635C3.98294 3.45945 6.11434 2.60801 8.33045 2.60802ZM8.33026 6.40368C9.54775 6.4036 10.7218 6.85614 11.6243 7.67335C11.7463 7.78933 11.9386 7.78681 12.0576 7.66768L13.2123 6.50101C13.2731 6.43982 13.3068 6.3568 13.3059 6.27054C13.3051 6.18427 13.2696 6.10196 13.2076 6.04201C10.4594 3.48563 6.20346 3.48563 3.45526 6.04201C3.39318 6.10196 3.35776 6.18431 3.35695 6.2706C3.35613 6.3569 3.38999 6.43991 3.45093 6.50101L4.60526 7.66768C4.72425 7.78681 4.91653 7.78933 5.03859 7.67335C5.94046 6.85668 7.11357 6.40418 8.33026 6.40368ZM10.6433 8.95749C10.6451 9.044 10.6111 9.1274 10.5493 9.18801L8.55199 11.2037C8.49344 11.2629 8.41361 11.2963 8.33032 11.2963C8.24703 11.2963 8.16721 11.2629 8.10866 11.2037L6.11099 9.18801C6.04928 9.12736 6.01533 9.04393 6.01716 8.95742C6.01899 8.87091 6.05644 8.78899 6.12066 8.73101C7.39623 7.65212 9.26442 7.65212 10.54 8.73101C10.6042 8.78904 10.6416 8.87099 10.6433 8.95749Z" fill="#1C1C1C"/>
</svg>
