<svg width="20" height="20" viewBox="0 0 20 20" fill="none" xmlns="http://www.w3.org/2000/svg">
<path d="M11.4417 17.5013C11.2952 17.7539 11.0849 17.9635 10.8319 18.1092C10.5788 18.255 10.292 18.3317 10 18.3317C9.70802 18.3317 9.42116 18.255 9.16814 18.1092C8.91513 17.9635 8.70484 17.7539 8.55833 17.5013M15 6.66797C15 5.34189 14.4732 4.07012 13.5355 3.13243C12.5979 2.19475 11.3261 1.66797 10 1.66797C8.67392 1.66797 7.40215 2.19475 6.46447 3.13243C5.52678 4.07012 5 5.34189 5 6.66797C5 12.5013 2.5 14.168 2.5 14.168H17.5C17.5 14.168 15 12.5013 15 6.66797Z" stroke="#8181A5" stroke-width="1.25" stroke-linecap="round" stroke-linejoin="round"/>
</svg>
