<svg width="141" height="46" viewBox="0 0 141 46" fill="none" xmlns="http://www.w3.org/2000/svg">
<path d="M3.25512 28.3844C9.12228 33.5625 14.1953 35.6882 18.5042 34.6312C20.9625 34.0281 22.7567 32.7038 26.3005 29.3846C27.0664 28.6672 27.0647 28.6689 27.3378 28.4163C30.4662 25.5234 32.3825 24.3313 34.4772 24.3313C35.592 24.3313 36.4762 24.3913 38.4619 24.5724L38.5299 24.5786C45.1077 25.1784 48.3982 24.7243 53.1854 21.5344C54.6415 20.5641 55.9325 19.4819 57.2583 18.1717C58.0973 17.3428 60.7015 14.5349 60.6093 14.6314C63.6765 11.4209 65.972 10.1773 69.9294 10.1773C71.5471 10.1773 73.1052 10.785 75.0974 12.0785C75.534 12.362 75.9904 12.6762 76.5568 13.0798C76.848 13.2873 77.8815 14.0331 78.0692 14.1674C81.7913 16.8321 84.2542 18.0603 87.5324 18.3894C91.7933 18.8171 96.5153 17.2923 102.121 13.396C113.84 5.25151 125.13 12.0069 136.237 34.2626C136.402 34.5922 136.846 34.7449 137.23 34.6038C137.615 34.4626 137.793 34.0811 137.628 33.7515C126.186 10.8258 113.95 3.50426 101.169 12.3872C95.8542 16.0811 91.5156 17.4821 87.7082 17.0999C84.8034 16.8084 82.5503 15.6847 79.0384 13.1706C78.8543 13.0388 77.8189 12.2917 77.5233 12.081C76.9408 11.666 76.4679 11.3404 76.0103 11.0433C73.7796 9.59491 71.9443 8.87905 69.9294 8.87905C65.4373 8.87905 62.7659 10.3263 59.4393 13.8083C59.5132 13.7309 56.9297 16.5164 56.116 17.3205C54.8506 18.571 53.6285 19.5954 52.2575 20.509C47.8414 23.4516 44.9159 23.8553 38.6898 23.2877L38.6217 23.2815C36.5835 23.0956 35.6629 23.0331 34.4772 23.0331C31.8019 23.0331 29.643 24.376 26.2288 27.5332C26.0694 27.6807 25.903 27.8356 25.7061 28.0196C25.5799 28.1376 25.4454 28.2637 25.185 28.5076C21.8441 31.6368 20.1703 32.8722 18.0883 33.3829C14.452 34.275 9.85917 32.3506 4.33982 27.4794C4.04858 27.2224 3.56967 27.2166 3.27014 27.4665C2.97061 27.7164 2.96388 28.1274 3.25512 28.3844Z" fill="#5E81F4"/>
<path d="M100.833 20C104.699 20 107.833 16.866 107.833 13C107.833 9.13401 104.699 6 100.833 6C96.9675 6 93.8335 9.13401 93.8335 13C93.8335 16.866 96.9675 20 100.833 20Z" fill="white"/>
<path d="M100.833 17C103.043 17 104.833 15.2091 104.833 13C104.833 10.7909 103.043 9 100.833 9C98.6244 9 96.8335 10.7909 96.8335 13C96.8335 15.2091 98.6244 17 100.833 17Z" fill="#5E81F4"/>
</svg>
