<svg width="22" height="22" viewBox="0 0 22 22" fill="none" xmlns="http://www.w3.org/2000/svg">
<path fill-rule="evenodd" clip-rule="evenodd" d="M6.04174 0.966006C7.4126 0.661352 9.07565 0.556641 11.0556 0.556641C13.0355 0.556641 14.6985 0.661352 16.0693 0.966006C17.4522 1.27333 18.6015 1.79797 19.4856 2.68209C20.3698 3.5662 20.8944 4.71555 21.2018 6.09838C21.5064 7.46924 21.6111 9.13229 21.6111 11.1122C21.6111 13.0921 21.5064 14.7551 21.2018 16.126C20.8944 17.5089 20.3698 18.6582 19.4856 19.5423C18.6015 20.4264 17.4522 20.951 16.0693 21.2584C14.6985 21.563 13.0355 21.6678 11.0556 21.6678C9.07565 21.6678 7.4126 21.563 6.04174 21.2584C4.65891 20.951 3.50956 20.4264 2.62545 19.5423C1.74133 18.6582 1.21669 17.5089 0.909366 16.126C0.604711 14.7551 0.5 13.0921 0.5 11.1122C0.5 9.13229 0.604711 7.46924 0.909366 6.09838C1.21669 4.71555 1.74133 3.5662 2.62545 2.68209C3.50956 1.79797 4.65891 1.27333 6.04174 0.966006ZM11.0556 4.77886C8.72369 4.77886 6.83333 6.66922 6.83333 9.00109C6.83333 11.3329 8.72369 13.2233 11.0556 13.2233C13.3874 13.2233 15.2778 11.3329 15.2778 9.00109C15.2778 6.66922 13.3874 4.77886 11.0556 4.77886ZM17.7874 16.7005C18.1598 17.3078 18.028 18.1105 17.4278 18.4942C16.8821 18.8432 16.2445 19.0568 15.6112 19.1975C14.4673 19.4517 12.9871 19.5566 11.0553 19.5566C9.12368 19.5566 7.64341 19.4517 6.49958 19.1975C5.87822 19.0595 5.25216 18.8514 4.71305 18.5138C4.10205 18.1311 3.96774 17.3174 4.34934 16.7057C4.78875 16.0013 5.39436 15.4479 6.20931 15.0541C7.44579 14.4566 9.06657 14.2789 11.0551 14.2789C13.0369 14.2789 14.656 14.4423 15.8907 15.0227C16.7267 15.4157 17.3437 15.9771 17.7874 16.7005Z" fill="#353240"/>
</svg>
