<svg xmlns="http://www.w3.org/2000/svg" width="18" height="18" viewBox="0 0 18 18" fill="none">
<g clip-path="url(#clip0_1583_27425)">
<path d="M3.53264 2.46739C3.46271 2.39747 3.37969 2.342 3.28833 2.30415C3.19696 2.2663 3.09903 2.24683 3.00014 2.24683C2.90124 2.24683 2.80332 2.2663 2.71195 2.30415C2.62059 2.342 2.53757 2.39747 2.46764 2.46739C2.32641 2.60862 2.24707 2.80017 2.24707 2.99989C2.24707 3.19962 2.32641 3.39117 2.46764 3.5324L6.69014 7.7549C6.42299 8.25186 6.32308 8.82167 6.40521 9.37988C6.48733 9.93809 6.74713 10.455 7.14609 10.8539C7.54505 11.2529 8.06195 11.5127 8.62015 11.5948C9.17836 11.677 9.74817 11.577 10.2451 11.3099L14.4676 15.5324C14.5374 15.6027 14.6203 15.6585 14.7117 15.6966C14.8031 15.7346 14.9011 15.7542 15.0001 15.7542C15.0991 15.7542 15.1972 15.7346 15.2886 15.6966C15.38 15.6585 15.4629 15.6027 15.5326 15.5324C15.6029 15.4627 15.6587 15.3797 15.6968 15.2883C15.7349 15.1969 15.7545 15.0989 15.7545 14.9999C15.7545 14.9009 15.7349 14.8029 15.6968 14.7115C15.6587 14.6201 15.6029 14.5371 15.5326 14.4674L3.53264 2.46739ZM9.00014 10.1249C8.70177 10.1249 8.41562 10.0064 8.20464 9.79539C7.99367 9.58441 7.87514 9.29826 7.87514 8.99989V8.94739L9.04514 10.1174L9.00014 10.1249Z" fill="#2E3A59"/>
<path d="M9.16853 12.85L9.16738 12.8501C7.52415 12.8883 6.16682 12.202 5.14056 11.3777C4.11472 10.5538 3.414 9.58784 3.08022 9.05303L3.0471 8.99997L3.08032 8.94697C3.53614 8.21988 4.08033 7.55227 4.70035 6.95937L3.74948 6.04105C2.93968 6.8165 2.24424 7.70336 1.68419 8.67503L1.68415 8.67509C1.6271 8.7739 1.59707 8.88599 1.59707 9.00009C1.59707 9.11417 1.6271 9.22624 1.68413 9.32505L9.16853 12.85ZM9.16853 12.85C9.5874 12.8355 10.0035 12.7763 10.4097 12.6737L11.4457 13.7097C10.727 13.9783 9.9687 14.1272 9.20109 14.1501H9.01505C6.83892 14.1501 5.12545 13.1511 3.89375 12.0448M9.16853 12.85L3.89375 12.0448M3.89375 12.0448C2.66176 10.9382 1.91794 9.72958 1.68415 9.32509L3.89375 12.0448Z" fill="#2E3A59" stroke="white" stroke-width="0.2"/>
<path d="M16.4025 8.62503C15.9225 7.79253 13.275 3.61503 8.7975 3.75003C7.96684 3.77467 7.14693 3.94474 6.375 4.25253L7.56 5.43753C7.97672 5.3279 8.40436 5.26501 8.835 5.25003C12.0525 5.16753 14.1675 7.94253 14.835 9.00003C14.3535 9.75175 13.7762 10.4375 13.1175 11.04L14.25 12.0975C15.1071 11.302 15.8425 10.3847 16.4325 9.37503C16.4938 9.2584 16.5233 9.12767 16.5181 8.996C16.5128 8.86434 16.4729 8.73638 16.4025 8.62503Z" fill="#2E3A59" stroke="white" stroke-width="0.2"/>
</g>
<defs>
<clipPath id="clip0_1583_27425">
<rect width="18" height="18" fill="white"/>
</clipPath>
</defs>
</svg>