<svg width="24" height="24" viewBox="0 0 24 24" fill="none" xmlns="http://www.w3.org/2000/svg">
<path d="M20.3333 16.1V18.6C20.3343 18.8321 20.2867 19.0618 20.1937 19.2744C20.1008 19.4871 19.9644 19.678 19.7934 19.8349C19.6224 19.9918 19.4205 20.1112 19.2006 20.1856C18.9808 20.2599 18.7478 20.2875 18.5167 20.2666C15.9523 19.988 13.4891 19.1118 11.325 17.7083C9.31151 16.4289 7.60443 14.7218 6.32498 12.7083C4.91663 10.5343 4.04019 8.05914 3.76665 5.48331C3.74583 5.25287 3.77321 5.02061 3.84707 4.80133C3.92092 4.58205 4.03963 4.38055 4.19562 4.20966C4.35162 4.03877 4.54149 3.90224 4.75314 3.80875C4.9648 3.71526 5.1936 3.66686 5.42499 3.66665H7.92498C8.32941 3.66267 8.72148 3.80588 9.02812 4.06959C9.33476 4.3333 9.53505 4.69952 9.59165 5.09998C9.69717 5.90003 9.89286 6.68558 10.175 7.44165C10.2871 7.73992 10.3114 8.06407 10.2449 8.37571C10.1784 8.68735 10.024 8.9734 9.79998 9.19998L8.74165 10.2583C9.92795 12.3446 11.6554 14.072 13.7417 15.2583L14.8 14.2C15.0266 13.9759 15.3126 13.8215 15.6242 13.7551C15.9359 13.6886 16.26 13.7129 16.5583 13.825C17.3144 14.1071 18.0999 14.3028 18.9 14.4083C19.3048 14.4654 19.6745 14.6693 19.9388 14.9812C20.203 15.2931 20.3435 15.6913 20.3333 16.1Z" stroke="url(#paint0_linear_1553_47010)" stroke-width="1.3" stroke-linecap="round" stroke-linejoin="round"/>
<defs>
<linearGradient id="paint0_linear_1553_47010" x1="7.55546" y1="20.8889" x2="18.6666" y2="6.99997" gradientUnits="userSpaceOnUse">
<stop stop-color="#2E2C2C"/>
<stop offset="0.674628" stop-color="#4B4949"/>
<stop offset="1" stop-color="#131313"/>
<stop offset="1" stop-opacity="0.94"/>
<stop offset="1" stop-color="#434343"/>
</linearGradient>
</defs>
</svg>
