<svg width="18" height="18" viewBox="0 0 18 18" fill="none" xmlns="http://www.w3.org/2000/svg">
<g clip-path="url(#clip0_1606_24328)">
<path d="M8.80056 3.84998L8.80008 3.84999C6.7569 3.90172 5.1417 4.82511 3.9533 5.87982C2.76451 6.93487 2.00768 8.11724 1.68412 8.67508C1.62709 8.77388 1.59707 8.88595 1.59707 9.00003C1.59707 9.11411 1.6271 9.22618 1.68413 9.32499L8.80056 3.84998ZM8.80056 3.84998C11.0092 3.7835 12.7667 4.77837 14.0357 5.89965C15.3051 7.02124 16.0787 8.26355 16.3159 8.67498L16.3159 8.67503C16.373 8.77384 16.403 8.88593 16.403 9.00003C16.403 9.11412 16.373 9.22621 16.3159 9.32503L16.3158 9.32529M8.80056 3.84998L16.3158 9.32529M16.3158 9.32529C15.9963 9.88264 15.2395 11.0651 14.0496 12.1202C12.8606 13.1747 11.2439 14.0979 9.2013 14.15H9.01505C6.83892 14.15 5.12545 13.151 3.89375 12.0447M16.3158 9.32529L3.89375 12.0447M3.04725 9.00015L3.0801 8.94726C3.83309 7.73495 5.81564 5.22645 8.86999 5.15006C8.87001 5.15006 8.87003 5.15006 8.87005 5.15006L8.87255 5.25003L3.04725 9.00015ZM3.04725 9.00015L3.08022 9.05297M3.04725 9.00015L3.08022 9.05297M3.08022 9.05297C3.41394 9.58768 4.11277 10.5537 5.13771 11.3777C6.1631 12.2019 7.52043 12.8882 9.16737 12.85L9.16505 12.75L3.08022 9.05297ZM3.89375 12.0447C2.66176 10.9381 1.91794 9.72952 1.68415 9.32503L3.89375 12.0447Z" fill="#2E3A59" stroke="white" stroke-width="0.2"/>
<path d="M7.59719 6.90054C8.01242 6.62309 8.5006 6.475 9 6.475C9.66967 6.475 10.3119 6.74103 10.7854 7.21456C11.259 7.68808 11.525 8.33033 11.525 9C11.525 9.4994 11.3769 9.98758 11.0995 10.4028C10.822 10.818 10.4277 11.1417 9.96628 11.3328C9.50489 11.5239 8.9972 11.5739 8.5074 11.4765C8.0176 11.3791 7.56768 11.1386 7.21456 10.7854C6.86143 10.4323 6.62095 9.98241 6.52352 9.4926C6.42609 9.0028 6.47609 8.49511 6.66721 8.03372C6.85832 7.57234 7.18195 7.17799 7.59719 6.90054ZM8.31943 10.0186C8.52088 10.1532 8.75772 10.225 9 10.225C9.32489 10.225 9.63648 10.0959 9.86621 9.86621C10.0959 9.63647 10.225 9.32489 10.225 9C10.225 8.75772 10.1532 8.52088 10.0186 8.31943C9.88395 8.11798 9.69263 7.96096 9.46879 7.86825C9.24495 7.77553 8.99864 7.75127 8.76102 7.79854C8.52339 7.8458 8.30511 7.96247 8.1338 8.13379C7.96248 8.30511 7.84581 8.52339 7.79854 8.76101C7.75127 8.99864 7.77553 9.24495 7.86825 9.46879C7.96097 9.69263 8.11798 9.88395 8.31943 10.0186Z" fill="#2E3A59" stroke="white" stroke-width="0.2"/>
</g>
<defs>
<clipPath id="clip0_1606_24328">
<rect width="18" height="18" fill="white"/>
</clipPath>
</defs>
</svg>
