<svg width="20" height="20" viewBox="0 0 20 20" fill="none" xmlns="http://www.w3.org/2000/svg">
<g clip-path="url(#clip0_1583_10194)">
<path d="M18.5417 8.33325H11.4583C11.0716 8.33325 10.7006 8.4869 10.4271 8.76039C10.1536 9.03388 10 9.40481 10 9.79159V18.5416C10 19.3466 10.6533 19.9999 11.4583 19.9999H18.5417C18.9284 19.9999 19.2994 19.8463 19.5729 19.5728C19.8464 19.2993 20 18.9284 20 18.5416V9.79159C20 9.40481 19.8464 9.03388 19.5729 8.76039C19.2994 8.4869 18.9284 8.33325 18.5417 8.33325ZM16.7708 16.6666H13.0208C12.8551 16.6666 12.6961 16.6007 12.5789 16.4835C12.4617 16.3663 12.3958 16.2073 12.3958 16.0416C12.3958 15.8758 12.4617 15.7169 12.5789 15.5996C12.6961 15.4824 12.8551 15.4166 13.0208 15.4166H16.7708C16.9366 15.4166 17.0956 15.4824 17.2128 15.5996C17.33 15.7169 17.3958 15.8758 17.3958 16.0416C17.3958 16.2073 17.33 16.3663 17.2128 16.4835C17.0956 16.6007 16.9366 16.6666 16.7708 16.6666ZM16.7708 14.1666H13.0208C12.8551 14.1666 12.6961 14.1007 12.5789 13.9835C12.4617 13.8663 12.3958 13.7073 12.3958 13.5416C12.3958 13.3758 12.4617 13.2169 12.5789 13.0996C12.6961 12.9824 12.8551 12.9166 13.0208 12.9166H16.7708C16.9366 12.9166 17.0956 12.9824 17.2128 13.0996C17.33 13.2169 17.3958 13.3758 17.3958 13.5416C17.3958 13.7073 17.33 13.8663 17.2128 13.9835C17.0956 14.1007 16.9366 14.1666 16.7708 14.1666Z" fill="url(#paint0_linear_1583_10194)"/>
<path d="M11.875 2.5H10.8333V2.29167C10.8333 2.12591 10.7675 1.96694 10.6503 1.84972C10.5331 1.73251 10.3741 1.66667 10.2083 1.66667H9.28833C9.015 0.705833 8.13083 0 7.08333 0C6.03583 0 5.15167 0.705833 4.87833 1.66667H3.95833C3.79257 1.66667 3.6336 1.73251 3.51639 1.84972C3.39918 1.96694 3.33333 2.12591 3.33333 2.29167V2.5H2.29167C1.68401 2.50044 1.10138 2.74203 0.671701 3.1717C0.242026 3.60138 0.000441448 4.18401 0 4.79167L0 15.2083C0.000441448 15.816 0.242026 16.3986 0.671701 16.8283C1.10138 17.258 1.68401 17.4996 2.29167 17.5H8.75V9.79167C8.75088 9.07364 9.03651 8.38528 9.54423 7.87756C10.0519 7.36984 10.7403 7.08422 11.4583 7.08333H14.1667V4.79167C14.1662 4.18401 13.9246 3.60138 13.495 3.1717C13.0653 2.74203 12.4827 2.50044 11.875 2.5ZM4.58333 2.91667H5.41667C5.58243 2.91667 5.7414 2.85082 5.85861 2.73361C5.97582 2.6164 6.04167 2.45743 6.04167 2.29167C6.04167 1.7175 6.50917 1.25 7.08333 1.25C7.6575 1.25 8.125 1.7175 8.125 2.29167C8.125 2.63667 8.405 2.91667 8.75 2.91667H9.58333V3.95833C9.58333 4.01359 9.56139 4.06658 9.52232 4.10565C9.48325 4.14472 9.43025 4.16667 9.375 4.16667H4.79167C4.73641 4.16667 4.68342 4.14472 4.64435 4.10565C4.60528 4.06658 4.58333 4.01359 4.58333 3.95833V2.91667Z" fill="url(#paint1_linear_1583_10194)"/>
</g>
<defs>
<linearGradient id="paint0_linear_1583_10194" x1="12.2901" y1="20.4323" x2="20.2709" y2="11.8644" gradientUnits="userSpaceOnUse">
<stop stop-color="#2E2C2C"/>
<stop offset="0.674628" stop-color="#4B4949"/>
<stop offset="1" stop-color="#131313"/>
<stop offset="1" stop-opacity="0.94"/>
<stop offset="1" stop-color="#434343"/>
</linearGradient>
<linearGradient id="paint1_linear_1583_10194" x1="3.24429" y1="18.1485" x2="15.2446" y2="5.98131" gradientUnits="userSpaceOnUse">
<stop stop-color="#2E2C2C"/>
<stop offset="0.674628" stop-color="#4B4949"/>
<stop offset="1" stop-color="#131313"/>
<stop offset="1" stop-opacity="0.94"/>
<stop offset="1" stop-color="#434343"/>
</linearGradient>
<clipPath id="clip0_1583_10194">
<rect width="20" height="20" fill="white"/>
</clipPath>
</defs>
</svg>
