<svg width="18" height="18" viewBox="0 0 18 18" fill="none" xmlns="http://www.w3.org/2000/svg">
<path d="M13.4568 5.70309C13.2156 4.88543 12.0568 4.88543 11.8156 5.70309L11.7572 5.90166C11.7212 6.02408 11.6582 6.13687 11.5729 6.23177C11.4876 6.32667 11.3821 6.40128 11.2642 6.45012C11.1463 6.49895 11.019 6.52078 10.8916 6.51401C10.7642 6.50723 10.6399 6.47202 10.5278 6.41095L10.3468 6.31166C9.59743 5.904 8.77802 6.72341 9.18627 7.47215L9.28497 7.65379C9.54546 8.13271 9.2984 8.72901 8.77569 8.8832L8.57711 8.94161C7.75945 9.18282 7.75945 10.3416 8.57711 10.5828L8.77569 10.6412C8.8981 10.6772 9.01089 10.7402 9.10579 10.8255C9.2007 10.9108 9.2753 11.0163 9.32414 11.1342C9.37298 11.2521 9.39481 11.3794 9.38803 11.5068C9.38125 11.6342 9.34604 11.7585 9.28497 11.8706L9.18568 12.0516C8.77802 12.801 9.59743 13.6204 10.3462 13.2121L10.5278 13.1134C10.6399 13.0524 10.7642 13.0171 10.8916 13.0104C11.019 13.0036 11.1463 13.0254 11.2642 13.0743C11.3821 13.1231 11.4876 13.1977 11.5729 13.2926C11.6582 13.3875 11.7212 13.5003 11.7572 13.6227L11.8156 13.8213C12.0568 14.6389 13.2156 14.6389 13.4568 13.8213L13.5152 13.6227C13.5512 13.5003 13.6142 13.3875 13.6995 13.2926C13.7848 13.1977 13.8903 13.1231 14.0082 13.0743C14.1261 13.0254 14.2534 13.0036 14.3808 13.0104C14.5083 13.0171 14.6326 13.0524 14.7446 13.1134L14.9257 13.2127C15.675 13.6204 16.4944 12.801 16.0861 12.0522L15.9874 11.8706C15.9264 11.7585 15.8912 11.6342 15.8844 11.5068C15.8776 11.3794 15.8994 11.2521 15.9483 11.1342C15.9971 11.0163 16.0717 10.9108 16.1666 10.8255C16.2615 10.7402 16.3743 10.6772 16.4967 10.6412L16.6953 10.5828C17.513 10.3416 17.513 9.18282 16.6953 8.94161L16.4967 8.8832C16.3743 8.84716 16.2615 8.78418 16.1666 8.69887C16.0717 8.61357 15.9971 8.5081 15.9483 8.39021C15.8994 8.27232 15.8776 8.14499 15.8844 8.01756C15.8912 7.89013 15.9264 7.76584 15.9874 7.65379L16.0867 7.47274C16.4944 6.72341 15.675 5.904 14.9262 6.31225L14.7446 6.41095C14.6326 6.47202 14.5083 6.50723 14.3808 6.51401C14.2534 6.52078 14.1261 6.49895 14.0082 6.45012C13.8903 6.40128 13.7848 6.32667 13.6995 6.23177C13.6142 6.13687 13.5512 6.02408 13.5152 5.90166L13.4568 5.70309ZM12.6362 11.4728C12.6362 11.4732 12.6359 11.4734 12.6356 11.4734C12.182 11.4733 11.747 11.293 11.4262 10.9722C11.1053 10.6513 10.925 10.216 10.925 9.76219C10.925 9.30834 11.1053 8.87307 11.4262 8.55215C11.7471 8.23123 12.1824 8.05094 12.6362 8.05094C13.0899 8.05094 13.525 8.23117 13.8458 8.55198C14.1666 8.87279 14.3469 9.30791 14.3469 9.7616C14.3469 10.2153 14.1666 10.6504 13.8458 10.9712C13.5252 11.2919 13.0903 11.4721 12.6368 11.4723C12.6365 11.4723 12.6362 11.4725 12.6362 11.4728V11.4728Z" stroke="#457EFF" stroke-linecap="round"/>
<path d="M13.3081 5.15613V3.16211C13.3081 2.05754 12.4127 1.16211 11.3081 1.16211H2.78418C1.67961 1.16211 0.78418 2.05754 0.78418 3.16211V15.2085C0.78418 16.313 1.67961 17.2085 2.78418 17.2085H11.3081C12.4127 17.2085 13.3081 16.313 13.3081 15.2085V14.2459" stroke="#457EFF" stroke-linecap="round"/>
</svg>
