<svg fill="none" height="17" viewBox="0 0 16 17" width="16" xmlns="http://www.w3.org/2000/svg"><circle cx="8.00024" cy="8.22534" fill="#96a2be" r="8"/><g fill="#192030" opacity=".7"><path d="m5.1958 3.36206h.4385v.43323h.40122v-.43323h.4385v1.31145h-.4385v-.4389h-.40122v.4389h-.43809v-1.31145zm1.85451.43485h-.38581v-.43485h1.21054v.43485h-.38622v.8766h-.43851zm1.01683-.43485h.45714l.28126.46079.28085-.46079h.45714v1.31145h-.43647v-.65005l-.30152.46647h-.0077l-.30193-.46606v.64964h-.42877zm1.69443 0h.43893v.87822h.616v.43364h-1.05493z"/><path clip-rule="evenodd" d="m5.18196 12.3071-.82918-7.03342h7.29482l-.8296 7.03262-2.82184.7822zm1.6766-3.85003-.07862-.88348h3.30096l.077-.86242h-4.32021l.23263 2.60872h2.98967l-.1001 1.11851-.96211.2602h-.00081l-.96049-.2594-.0616-.68769h-.86647l.12077 1.35439 1.76698.4904 1.76981-.4904.2156-2.41701.02103-.23141h-3.14404z" fill-rule="evenodd"/></g></svg>