<svg width="16" height="16" viewBox="0 0 16 16" fill="none" xmlns="http://www.w3.org/2000/svg">
<path fill-rule="evenodd" clip-rule="evenodd" d="M6.27047 4.22944C6.56336 4.52233 6.56336 4.9972 6.27047 5.2901L2.81029 8.75028L6.27047 12.2105C6.56336 12.5034 6.56336 12.9782 6.27047 13.2711C5.97758 13.564 5.5027 13.564 5.20981 13.2711L0.688965 8.75028L5.20981 4.22944C5.5027 3.93654 5.97758 3.93654 6.27047 4.22944Z" fill="#AC4AAE"/>
<path fill-rule="evenodd" clip-rule="evenodd" d="M8.71 4.22944C8.41711 4.52233 8.41711 4.9972 8.71 5.2901L12.1702 8.75028L8.71 12.2105C8.41711 12.5034 8.41711 12.9782 8.71 13.2711C9.00289 13.564 9.47777 13.564 9.77066 13.2711L14.2915 8.75028L9.77066 4.22944C9.47777 3.93654 9.00289 3.93654 8.71 4.22944Z" fill="#AC4AAE"/>
</svg>
