<svg width="25" height="22" viewBox="0 0 25 22" fill="none" xmlns="http://www.w3.org/2000/svg">
<path d="M24.619 19.576L22.666 2C22.666 0.895 21.771 0 20.666 0H12.666H4.66602C3.56102 0 2.66602 0.895 2.66602 2L0.713016 19.576C0.684016 19.713 0.666016 19.854 0.666016 20C0.666016 21.105 1.56102 22 2.66602 22H12.666H22.666C23.771 22 24.666 21.105 24.666 20C24.666 19.854 24.648 19.713 24.619 19.576ZM17.666 4.908V6C17.666 8.757 15.423 11 12.666 11C9.90902 11 7.66602 8.757 7.66602 6V4.908C7.08502 4.702 6.66602 4.152 6.66602 3.5C6.66602 2.672 7.33802 2 8.16602 2C8.99402 2 9.66602 2.672 9.66602 3.5V6C9.66602 7.654 11.012 9 12.666 9C14.32 9 15.666 7.654 15.666 6V3.5C15.666 2.672 16.338 2 17.166 2C17.994 2 18.666 2.672 18.666 3.5C18.666 4.152 18.247 4.702 17.666 4.908Z" fill="#353240"/>
</svg>
