<svg width="31" height="30" viewBox="0 0 31 30" fill="none" xmlns="http://www.w3.org/2000/svg">
<path d="M27.619 23.576L25.666 6C25.666 4.895 24.771 4 23.666 4H15.666H7.66602C6.56102 4 5.66602 4.895 5.66602 6L3.71302 23.576C3.68402 23.713 3.66602 23.854 3.66602 24C3.66602 25.105 4.56102 26 5.66602 26H15.666H25.666C26.771 26 27.666 25.105 27.666 24C27.666 23.854 27.648 23.713 27.619 23.576ZM20.666 8.908V10C20.666 12.757 18.423 15 15.666 15C12.909 15 10.666 12.757 10.666 10V8.908C10.085 8.702 9.66602 8.152 9.66602 7.5C9.66602 6.672 10.338 6 11.166 6C11.994 6 12.666 6.672 12.666 7.5V10C12.666 11.654 14.012 13 15.666 13C17.32 13 18.666 11.654 18.666 10V7.5C18.666 6.672 19.338 6 20.166 6C20.994 6 21.666 6.672 21.666 7.5C21.666 8.152 21.247 8.702 20.666 8.908Z" fill="#353240"/>
</svg>

