<svg width="30" height="30" viewBox="0 0 30 30" fill="C1C4C9" xmlns="http://www.w3.org/2000/svg">
<path d="M17 3C15.741 2.37049 14.259 2.37049 13 3L3.74805 8.0332C3.59008 8.07429 3.44457 8.15341 3.32422 8.26367L3.31836 8.26758V8.26953C3.21806 8.36297 3.13805 8.47603 3.08328 8.60169C3.02851 8.72735 3.00017 8.86292 3 9C3 9.26522 3.10536 9.51957 3.29289 9.70711C3.48043 9.89464 3.73478 10 4 10V22.5858C4 23.4913 4.35971 24.3597 5 25C5.64029 25.6403 6.50871 26 7.41421 26H22.5858C23.4913 26 24.3597 25.6403 25 25C25.6403 24.3597 26 23.4913 26 22.5858V10C26.2652 10 26.5196 9.89464 26.7071 9.70711C26.8946 9.51957 27 9.26522 27 9C26.9998 8.86292 26.9715 8.72735 26.9167 8.60169C26.862 8.47603 26.7819 8.36297 26.6816 8.26953V8.26758L26.6777 8.26562C26.557 8.15438 26.4108 8.07456 26.252 8.0332L17 3ZM15 11C15.552 11 16 11.448 16 12V15H19C19.552 15 20 15.448 20 16C20 16.552 19.552 17 19 17H16V20C16 20.552 15.552 21 15 21C14.448 21 14 20.552 14 20V17H11C10.448 17 10 16.552 10 16C10 15.448 10.448 15 11 15H14V12C14 11.448 14.448 11 15 11Z" fill="#353240"/>
</svg>
