<svg width="24" height="24" viewBox="0 0 24 24" fill="none" xmlns="http://www.w3.org/2000/svg">
<path d="M14 1C12.741 0.370485 11.259 0.370485 10 1V1L0.748047 6.0332C0.590079 6.07429 0.444569 6.15341 0.324219 6.26367L0.318359 6.26758V6.26953C0.218063 6.36297 0.138047 6.47603 0.0832803 6.60169C0.028514 6.72735 0.000167102 6.86292 0 7C0 7.26522 0.105357 7.51957 0.292893 7.70711C0.48043 7.89464 0.734784 8 1 8V20.5858C1 21.4913 1.35971 22.3597 2 23V23C2.64029 23.6403 3.50871 24 4.41421 24H19.5858C20.4913 24 21.3597 23.6403 22 23V23C22.6403 22.3597 23 21.4913 23 20.5858V8C23.2652 8 23.5196 7.89464 23.7071 7.70711C23.8946 7.51957 24 7.26522 24 7C23.9998 6.86292 23.9715 6.72735 23.9167 6.60169C23.862 6.47603 23.7819 6.36297 23.6816 6.26953V6.26758L23.6777 6.26562C23.557 6.15438 23.4108 6.07456 23.252 6.0332L14 1V1ZM12 9C12.552 9 13 9.448 13 10V13H16C16.552 13 17 13.448 17 14C17 14.552 16.552 15 16 15H13V18C13 18.552 12.552 19 12 19C11.448 19 11 18.552 11 18V15H8C7.448 15 7 14.552 7 14C7 13.448 7.448 13 8 13H11V10C11 9.448 11.448 9 12 9Z" fill="#C1C4C9"/>
</svg>
