<svg width="31" height="30" viewBox="0 0 31 30" fill="none" xmlns="http://www.w3.org/2000/svg">
<path d="M10.3457 3.99219C9.2457 3.99219 8.3457 4.89219 8.3457 5.99219L8.35547 17.9922H8.3457V20.9922C8.3457 21.5422 7.8957 21.9922 7.3457 21.9922C6.7957 21.9922 6.3457 21.5422 6.3457 20.9922V12.9922C5.2457 12.9922 4.3457 13.8922 4.3457 14.9922V21.9922C4.3457 24.2022 6.1357 25.9922 8.3457 25.9922H22.3359C24.5559 25.9922 26.3459 24.2024 26.3359 21.9824V18.9922L26.2969 5.99219C26.2969 4.89219 25.4069 3.99219 24.2969 3.99219H10.3457ZM12.3457 9.99219H22.3457C22.8957 9.99219 23.3457 10.4422 23.3457 10.9922C23.3457 11.5422 22.8957 11.9922 22.3457 11.9922H12.3457C11.7957 11.9922 11.3457 11.5422 11.3457 10.9922C11.3457 10.4422 11.7957 9.99219 12.3457 9.99219ZM12.3457 13.9922H22.3457C22.8957 13.9922 23.3457 14.4422 23.3457 14.9922C23.3457 15.5422 22.8957 15.9922 22.3457 15.9922H12.3457C11.7957 15.9922 11.3457 15.5422 11.3457 14.9922C11.3457 14.4422 11.7957 13.9922 12.3457 13.9922ZM12.3457 17.9922H14.3457C14.8957 17.9922 15.3457 18.4422 15.3457 18.9922C15.3457 19.5422 14.8957 19.9922 14.3457 19.9922H12.3457C11.7957 19.9922 11.3457 19.5422 11.3457 18.9922C11.3457 18.4422 11.7957 17.9922 12.3457 17.9922ZM18.3457 17.9922H22.3457C22.8957 17.9922 23.3457 18.4422 23.3457 18.9922C23.3457 19.5422 22.8957 19.9922 22.3457 19.9922H18.3457C17.7957 19.9922 17.3457 19.5422 17.3457 18.9922C17.3457 18.4422 17.7957 17.9922 18.3457 17.9922Z" fill="#C1C4C9"/>
</svg>
