<svg width="30" height="30" viewBox="0 0 30 30" fill="none" xmlns="http://www.w3.org/2000/svg">
<path d="M10.0124 3.99219C8.91237 3.99219 8.01237 4.89219 8.01237 5.99219L8.02214 17.9922H8.01237V20.9922C8.01237 21.5422 7.56237 21.9922 7.01237 21.9922C6.46237 21.9922 6.01237 21.5422 6.01237 20.9922V12.9922C4.91237 12.9922 4.01237 13.8922 4.01237 14.9922V21.9922C4.01237 24.2022 5.80237 25.9922 8.01237 25.9922H22.0026C24.2226 25.9922 26.0126 24.2024 26.0026 21.9824V18.9922L25.9635 5.99219C25.9635 4.89219 25.0735 3.99219 23.9635 3.99219H10.0124ZM12.0124 9.99219H22.0124C22.5624 9.99219 23.0124 10.4422 23.0124 10.9922C23.0124 11.5422 22.5624 11.9922 22.0124 11.9922H12.0124C11.4624 11.9922 11.0124 11.5422 11.0124 10.9922C11.0124 10.4422 11.4624 9.99219 12.0124 9.99219ZM12.0124 13.9922H22.0124C22.5624 13.9922 23.0124 14.4422 23.0124 14.9922C23.0124 15.5422 22.5624 15.9922 22.0124 15.9922H12.0124C11.4624 15.9922 11.0124 15.5422 11.0124 14.9922C11.0124 14.4422 11.4624 13.9922 12.0124 13.9922ZM12.0124 17.9922H14.0124C14.5624 17.9922 15.0124 18.4422 15.0124 18.9922C15.0124 19.5422 14.5624 19.9922 14.0124 19.9922H12.0124C11.4624 19.9922 11.0124 19.5422 11.0124 18.9922C11.0124 18.4422 11.4624 17.9922 12.0124 17.9922ZM18.0124 17.9922H22.0124C22.5624 17.9922 23.0124 18.4422 23.0124 18.9922C23.0124 19.5422 22.5624 19.9922 22.0124 19.9922H18.0124C17.4624 19.9922 17.0124 19.5422 17.0124 18.9922C17.0124 18.4422 17.4624 17.9922 18.0124 17.9922Z" fill="#353240"/>
</svg>
