<svg width="30" height="30" viewBox="0 0 30 30" fill="none" xmlns="http://www.w3.org/2000/svg">
<g clip-path="url(#clip0_2077_37442)">
<rect x="4" y="4" width="22.7333" height="22" rx="4.4" fill="#C1C4C9"/>
<path d="M10.5823 16.598V8.39935C10.5823 8.20486 10.5051 8.01833 10.3676 7.8808C10.23 7.74328 10.0435 7.66602 9.84901 7.66602C9.65452 7.66602 9.46799 7.74328 9.33046 7.8808C9.19294 8.01833 9.11568 8.20486 9.11568 8.39935V16.598C8.69096 16.7522 8.32401 17.0333 8.06469 17.4033C7.80537 17.7733 7.66626 18.2142 7.66626 18.666C7.66626 19.1178 7.80537 19.5587 8.06469 19.9287C8.32401 20.2987 8.69096 20.5799 9.11568 20.734V21.5993C9.11568 21.7938 9.19294 21.9804 9.33046 22.1179C9.46799 22.2554 9.65452 22.3327 9.84901 22.3327C10.0435 22.3327 10.23 22.2554 10.3676 22.1179C10.5051 21.9804 10.5823 21.7938 10.5823 21.5993V20.734C11.0071 20.5799 11.374 20.2987 11.6333 19.9287C11.8926 19.5587 12.0318 19.1178 12.0318 18.666C12.0318 18.2142 11.8926 17.7733 11.6333 17.4033C11.374 17.0333 11.0071 16.7522 10.5823 16.598Z" fill="white"/>
<path d="M22.2812 15.7327C22.2799 15.2788 22.1383 14.8364 21.8757 14.4662C21.6131 14.0959 21.2425 13.816 20.8145 13.6647V8.39935C20.8145 8.20486 20.7373 8.01833 20.5997 7.8808C20.4622 7.74328 20.2757 7.66602 20.0812 7.66602C19.8867 7.66602 19.7002 7.74328 19.5626 7.8808C19.4251 8.01833 19.3479 8.20486 19.3479 8.39935V13.6647C18.9231 13.8188 18.5562 14.1 18.2969 14.47C18.0376 14.84 17.8984 15.2809 17.8984 15.7327C17.8984 16.1845 18.0376 16.6254 18.2969 16.9954C18.5562 17.3654 18.9231 17.6465 19.3479 17.8007V21.5993C19.3479 21.7938 19.4251 21.9804 19.5626 22.1179C19.7002 22.2554 19.8867 22.3327 20.0812 22.3327C20.2757 22.3327 20.4622 22.2554 20.5997 22.1179C20.7373 21.9804 20.8145 21.7938 20.8145 21.5993V17.8007C21.2425 17.6494 21.6131 17.3694 21.8757 16.9992C22.1383 16.629 22.2799 16.1866 22.2812 15.7327V15.7327Z" fill="white"/>
<path d="M17.1654 9.86633C17.1665 9.46274 17.0566 9.06662 16.8477 8.72131C16.6388 8.376 16.3389 8.09482 15.9808 7.90853C15.6228 7.72224 15.2204 7.63803 14.8178 7.66512C14.4151 7.6922 14.0276 7.82953 13.6977 8.06208C13.3679 8.29463 13.1083 8.61344 12.9475 8.98361C12.7867 9.35379 12.7309 9.76106 12.786 10.1609C12.8412 10.5607 13.0053 10.9376 13.2603 11.2504C13.5154 11.5632 13.8515 11.7998 14.232 11.9343V21.5997C14.232 21.7942 14.3093 21.9807 14.4468 22.1182C14.5844 22.2557 14.7709 22.333 14.9654 22.333C15.1599 22.333 15.3464 22.2557 15.4839 22.1182C15.6214 21.9807 15.6987 21.7942 15.6987 21.5997V11.9343C16.1266 11.783 16.4973 11.5031 16.7599 11.1328C17.0225 10.7626 17.1641 10.3202 17.1654 9.86633Z" fill="white"/>
</g>
<defs>
<clipPath id="clip0_2077_37442">
<rect x="4" y="4" width="22.7333" height="22" rx="4.4" fill="white"/>
</clipPath>
</defs>
</svg>
