<svg width="30" height="30" viewBox="0 0 30 30" fill="none" xmlns="http://www.w3.org/2000/svg">
<rect x="5.5" y="6" width="19" height="19" rx="3" stroke="#C1C4C9" stroke-width="6"/>
<path fill-rule="evenodd" clip-rule="evenodd" d="M10.4876 6.36843C11.7213 6.09424 13.2181 6 15 6C16.7819 6 18.2786 6.09424 19.5124 6.36843C20.757 6.64502 21.7914 7.1172 22.5871 7.9129C23.3828 8.7086 23.8549 9.74302 24.1316 10.9876C24.4058 12.2213 24.5 13.7181 24.5 15.5C24.5 17.2819 24.4058 18.7786 24.1316 20.0124C23.8549 21.257 23.3828 22.2914 22.5871 23.0871C21.7914 23.8828 20.757 24.3549 19.5124 24.6316C18.2786 24.9058 16.7819 25 15 25C13.2181 25 11.7213 24.9058 10.4876 24.6316C9.24302 24.3549 8.2086 23.8828 7.4129 23.0871C6.6172 22.2914 6.14502 21.257 5.86843 20.0124C5.59424 18.7786 5.5 17.2819 5.5 15.5C5.5 13.7181 5.59424 12.2213 5.86843 10.9876C6.14502 9.74302 6.6172 8.7086 7.4129 7.9129C8.2086 7.1172 9.24302 6.64502 10.4876 6.36843ZM15 9.8C12.9013 9.8 11.2 11.5013 11.2 13.6C11.2 15.6986 12.9013 17.4 15 17.4C17.0986 17.4 18.8 15.6986 18.8 13.6C18.8 11.5013 17.0986 9.8 15 9.8ZM21.0586 20.5295C21.3938 21.076 21.2752 21.7985 20.7351 22.1438C20.2439 22.4579 19.67 22.6502 19.1001 22.7768C18.0706 23.0056 16.7384 23.1 14.9998 23.1C13.2613 23.1 11.9291 23.0056 10.8996 22.7768C10.3404 22.6525 9.77695 22.4653 9.29174 22.1614C8.74185 21.817 8.62097 21.0847 8.9644 20.5341C9.35988 19.9002 9.90492 19.4021 10.6384 19.0477C11.7512 18.51 13.2099 18.35 14.9996 18.35C16.7832 18.35 18.2404 18.4971 19.3517 19.0195C20.1041 19.3731 20.6593 19.8785 21.0586 20.5295Z" fill="#C1C4C9"/>
</svg>
