<svg width="30" height="30" viewBox="0 0 30 30" fill="none" xmlns="http://www.w3.org/2000/svg">
<path d="M24.4688 9.5625H5.4375C4.44062 9.5625 3.625 8.74688 3.625 7.75C3.625 6.75312 4.44062 5.9375 5.4375 5.9375H9.0625C9.60625 5.9375 9.96875 5.575 9.96875 5.03125C9.96875 4.4875 9.60625 4.125 9.0625 4.125H5.4375C3.44375 4.125 1.8125 5.75625 1.8125 7.75V22.25C1.8125 24.2438 3.44375 25.875 5.4375 25.875H24.4688C26.0094 25.875 27.1875 24.6969 27.1875 23.1562V12.2812C27.1875 10.7406 26.0094 9.5625 24.4688 9.5625ZM25.375 14.8188V20.6188C25.1031 20.5281 24.8313 20.4375 24.4688 20.4375H20.8438C19.3031 20.4375 18.125 19.2594 18.125 17.7188C18.125 16.1781 19.3031 15 20.8438 15H24.4688C24.8313 15 25.1031 14.9094 25.375 14.8188Z" fill="#C1C4C9"/>
<path d="M6.34375 6.8431C5.8 6.8431 5.4375 7.2056 5.4375 7.74935C5.4375 8.2931 5.8 8.6556 6.34375 8.6556H9.96875H23.5625C23.8344 8.6556 24.1063 8.47435 24.2875 8.2931C24.4688 8.02123 24.4688 7.74935 24.3781 7.47748L22.5656 2.94623C22.3844 2.4931 21.8406 2.22123 21.3875 2.40248L9.7875 6.8431H6.34375Z" fill="#C1C4C9"/>
<path d="M22.6562 16.8125H20.8438C20.3 16.8125 19.9375 17.175 19.9375 17.7188C19.9375 18.2625 20.3 18.625 20.8438 18.625H22.6562C23.2 18.625 23.5625 18.2625 23.5625 17.7188C23.5625 17.175 23.2 16.8125 22.6562 16.8125Z" fill="#C1C4C9"/>
</svg>
