<svg width="626" height="142" viewBox="0 0 626 142" fill="none" xmlns="http://www.w3.org/2000/svg">
<path d="M625.25 88.745C604.25 102.745 535.25 112.744 452.25 76.7445C369.25 40.7447 273.25 75.7454 228.75 95.2453C193.15 110.845 159.75 108.746 125.25 88.745C99.75 65.9118 39.15 24.0456 0.75 39.2456" stroke="#A592DD" stroke-opacity="0.4" stroke-dasharray="19 19"/>
<g clip-path="url(#clip0_1886_81680)">
<circle cx="313" cy="71" r="71" fill="#F6F4FC"/>
<path d="M334.094 72.8164V74.8594C334.094 82.4012 327.422 89.6555 320.723 95.0397C324.211 98.4674 328.654 100.943 328.713 100.998C328.713 100.998 340.829 94.2624 340.829 87.5656V76.1463L334.094 72.8164Z" fill="url(#paint0_linear_1886_81680)"/>
<path d="M332.158 74.8613V52.6419L308.574 41L285 52.6419V74.8613C285 87.8871 308.574 101 308.574 101C308.574 101 309.89 100.274 311.893 98.9774C319.831 93.902 332.158 84.259 332.158 74.8613ZM307.011 75.3366C305.839 76.5082 303.94 76.5081 302.768 75.3365L299.542 72.1105C298.566 71.1339 298.566 69.5508 299.542 68.5743C300.519 67.5978 302.102 67.5978 303.079 68.5743L304.748 70.2436C304.826 70.3217 304.953 70.3217 305.031 70.2436L314.077 61.1967C315.054 60.22 316.638 60.22 317.614 61.1968C318.591 62.1734 318.59 63.7566 317.614 64.7331L307.011 75.3366Z" fill="url(#paint1_linear_1886_81680)"/>
</g>
<defs>
<linearGradient id="paint0_linear_1886_81680" x1="325.121" y1="106.634" x2="348.893" y2="48.5046" gradientUnits="userSpaceOnUse">
<stop stop-color="#A592DD"/>
<stop offset="1" stop-color="#E6DDFF"/>
</linearGradient>
<linearGradient id="paint1_linear_1886_81680" x1="295.316" y1="113" x2="342.447" y2="-13.963" gradientUnits="userSpaceOnUse">
<stop stop-color="#A592DD"/>
<stop offset="1" stop-color="#E6DDFF"/>
</linearGradient>
<clipPath id="clip0_1886_81680">
<rect width="142" height="142" fill="white" transform="translate(242)"/>
</clipPath>
</defs>
</svg>
