<svg width="36" height="36" viewBox="0 0 36 36" fill="none" xmlns="http://www.w3.org/2000/svg">
<path d="M8 0.5H28C32.1421 0.5 35.5 3.85786 35.5 8V28C35.5 32.1421 32.1421 35.5 28 35.5H8C3.85786 35.5 0.5 32.1421 0.5 28V8C0.5 3.85786 3.85786 0.5 8 0.5Z" fill="white" stroke="#ECECF2"/>
<path d="M18.0229 10.4661C17.1431 10.4661 16.3282 10.6801 15.5782 11.1082C14.8426 11.5362 14.2585 12.1212 13.8258 12.8632C13.3931 13.5909 13.1768 14.39 13.1768 15.2604C13.1768 16.0737 13.3643 16.8299 13.7393 17.5291C14.1287 18.2283 14.6551 18.799 15.3186 19.2413C14.4965 19.5981 13.7609 20.0903 13.1118 20.7181C12.4772 21.346 11.9868 22.0665 11.6407 22.8799C11.3707 23.5101 11.2018 24.1644 11.134 24.8427C11.0959 25.2231 11.4098 25.5338 11.7921 25.5338C12.1745 25.5338 12.4795 25.2227 12.5252 24.8431C12.6134 24.1101 12.845 23.4271 13.22 22.7942C13.7248 21.9524 14.3955 21.2889 15.232 20.8038C16.083 20.3044 17.0133 20.0546 18.0229 20.0546C18.7441 20.0546 19.4364 20.1973 20.0998 20.4827C20.7344 20.7395 21.3114 21.1105 21.8306 21.5957L23.0133 20.8894C23.0133 20.8894 21.5061 19.5695 20.7272 19.2413C21.3907 18.799 21.9099 18.2283 22.2849 17.5291C22.6743 16.8299 22.8691 16.0737 22.8691 15.2604C22.8691 14.39 22.6527 13.5909 22.22 12.8632C21.7873 12.1212 21.196 11.5362 20.446 11.1082C19.7104 10.6801 18.9027 10.4661 18.0229 10.4661ZM18.0229 11.8359C18.6575 11.8359 19.2344 11.9928 19.7537 12.3067C20.2873 12.6064 20.7056 13.0202 21.0085 13.5481C21.3258 14.0618 21.4844 14.6325 21.4844 15.2604C21.4844 15.8882 21.3258 16.4661 21.0085 16.994C20.7056 17.5077 20.2873 17.9215 19.7537 18.2354C19.2344 18.535 18.6575 18.6849 18.0229 18.6849C17.3883 18.6849 16.8042 18.535 16.2705 18.2354C15.7513 17.9215 15.333 17.5077 15.0157 16.994C14.7128 16.4661 14.5614 15.8882 14.5614 15.2604C14.5614 14.6325 14.7128 14.0618 15.0157 13.5481C15.333 13.0202 15.7513 12.6064 16.2705 12.3067C16.8042 11.9928 17.3883 11.8359 18.0229 11.8359ZM21.8306 21.5957C21.7008 21.453 21.7941 21.5618 21.8306 21.5957Z" fill="#8181A5"/>
<path d="M17.9766 10.4661C18.8564 10.4661 19.6713 10.6801 20.4213 11.1082C21.1568 11.5362 21.741 12.1212 22.1737 12.8632C22.6064 13.5909 22.8227 14.39 22.8227 15.2604C22.8227 16.0737 22.6352 16.8299 22.2602 17.5291C21.8708 18.2283 21.3443 18.799 20.6809 19.2413C21.503 19.5981 22.2386 20.0903 22.8876 20.7181C23.5222 21.346 24.0126 22.0665 24.3588 22.8799C24.6287 23.5101 24.7976 24.1644 24.8655 24.8427C24.9035 25.2231 24.5897 25.5338 24.2073 25.5338C23.825 25.5338 23.52 25.2227 23.4743 24.8431C23.3861 24.1101 23.1545 23.4271 22.7794 22.7942C22.2746 21.9524 21.604 21.2889 20.7674 20.8038C19.9165 20.3044 18.9862 20.0546 17.9766 20.0546C17.2554 20.0546 16.5631 20.1973 15.8996 20.4827C15.265 20.7395 14.6881 21.1105 14.1689 21.5957L12.9862 20.8894C12.9862 20.8894 14.4934 19.5695 15.2722 19.2413C14.6088 18.799 14.0895 18.2283 13.7145 17.5291C13.3251 16.8299 13.1304 16.0737 13.1304 15.2604C13.1304 14.39 13.3467 13.5909 13.7794 12.8632C14.2121 12.1212 14.8035 11.5362 15.5535 11.1082C16.2891 10.6801 17.0967 10.4661 17.9766 10.4661ZM17.9766 11.8359C17.3419 11.8359 16.765 11.9928 16.2458 12.3067C15.7121 12.6064 15.2939 13.0202 14.991 13.5481C14.6737 14.0618 14.515 14.6325 14.515 15.2604C14.515 15.8882 14.6737 16.4661 14.991 16.994C15.2939 17.5077 15.7121 17.9215 16.2458 18.2354C16.765 18.535 17.3419 18.6849 17.9766 18.6849C18.6112 18.6849 19.1953 18.535 19.729 18.2354C20.2482 17.9215 20.6665 17.5077 20.9838 16.994C21.2867 16.4661 21.4381 15.8882 21.4381 15.2604C21.4381 14.6325 21.2867 14.0618 20.9838 13.5481C20.6665 13.0202 20.2482 12.6064 19.729 12.3067C19.1953 11.9928 18.6112 11.8359 17.9766 11.8359ZM14.1689 21.5957C14.2987 21.453 14.2054 21.5618 14.1689 21.5957Z" fill="#8181A5"/>
</svg>
