<svg width="29" height="32" viewBox="0 0 29 32" fill="none" xmlns="http://www.w3.org/2000/svg">
<path d="M4.14662 0.149406C3.49605 0.852719 4.07592 4.55698 4.14663 6.63175C3.12164 7.53419 -0.0800043 13.5475 0.591798 18.7872C2.51916 33.8196 17.6582 34.0064 25.2712 29.2364C19.3944 30.0843 15.3975 26.3799 14.1337 24.4217C11.2353 23.7404 8.80337 21.4794 8.10665 17.3454C8.10665 5.91658 20.6312 7.25287 23.2749 12.1057C24.0962 11.5782 26.4298 10.0661 27.7652 7.53419C28.6421 5.19919 28.5276 2.35312 28.0208 1.06371C27.1133 0.864439 24.0103 0.655791 21.5777 2.68133C18.5794 1.02151 13.1155 0.909847 10.7466 2.35164C9.36762 1.40217 4.79719 -0.553907 4.14662 0.149406Z" fill="url(#paint0_linear_1690_53672)" fill-opacity="0.5"/>
<defs>
<linearGradient id="paint0_linear_1690_53672" x1="7.20372" y1="8.58916" x2="39.9292" y2="50.2976" gradientUnits="userSpaceOnUse">
<stop stop-color="#FDD674"/>
<stop offset="0.608803" stop-color="#EF9422"/>
</linearGradient>
</defs>
</svg>
