<svg width="626" height="142" viewBox="0 0 626 142" fill="none" xmlns="http://www.w3.org/2000/svg">
<path d="M625.25 88.745C604.25 102.745 535.25 112.744 452.25 76.7445C369.25 40.7447 273.25 75.7454 228.75 95.2453C193.15 110.845 159.75 108.746 125.25 88.745C99.75 65.9118 39.15 24.0456 0.75 39.2456" stroke="#A592DD" stroke-opacity="0.4" stroke-dasharray="19 19"/>
<g clip-path="url(#clip0_1886_88073)">
<circle cx="313" cy="71" r="71" fill="#F6F4FC"/>
<path d="M334.094 72.8164V74.8594C334.094 82.4012 327.422 89.6555 320.723 95.0397C324.211 98.4674 328.654 100.943 328.713 100.998C328.713 100.998 340.829 94.2624 340.829 87.5656V76.1463L334.094 72.8164Z" fill="url(#paint0_linear_1886_88073)"/>
<path d="M332.158 74.8613V52.6419L308.574 41L285 52.6419V74.8613C285 87.8871 308.574 101 308.574 101C308.574 101 309.89 100.274 311.893 98.9774C319.831 93.902 332.158 84.259 332.158 74.8613ZM307.011 75.3366C305.839 76.5082 303.94 76.5081 302.768 75.3365L299.542 72.1105C298.566 71.1339 298.566 69.5508 299.542 68.5743C300.519 67.5978 302.102 67.5978 303.079 68.5743L304.748 70.2436C304.826 70.3217 304.953 70.3217 305.031 70.2436L314.077 61.1967C315.054 60.22 316.638 60.22 317.614 61.1968C318.591 62.1734 318.59 63.7566 317.614 64.7331L307.011 75.3366Z" fill="url(#paint1_linear_1886_88073)"/>
<g clip-path="url(#clip1_1886_88073)">
<circle cx="296" cy="194" r="54" fill="#F6F4FC"/>
</g>
<g clip-path="url(#clip2_1886_88073)">
<circle cx="313" cy="71" r="71" fill="#FFFBF1"/>
<circle cx="313" cy="71" r="71" fill="#F6F4FC"/>
<circle cx="313" cy="71" r="70.6713" stroke="black" stroke-opacity="0.04" stroke-width="0.657407"/>
<path d="M332.837 55.8885H292.926C290.835 55.8885 289.125 54.178 289.125 52.0874C289.125 49.9968 290.835 48.2863 292.926 48.2863H300.528C301.668 48.2863 302.429 47.5261 302.429 46.3857C302.429 45.2454 301.668 44.4852 300.528 44.4852H292.926C288.745 44.4852 285.324 47.9062 285.324 52.0874V82.4961C285.324 86.6773 288.745 90.0983 292.926 90.0983H332.837C336.068 90.0983 338.539 87.6276 338.539 84.3967V61.5901C338.539 58.3592 336.068 55.8885 332.837 55.8885ZM334.738 66.9116V79.0751C334.168 78.8851 333.598 78.695 332.837 78.695H325.235C322.004 78.695 319.534 76.2243 319.534 72.9934C319.534 69.7624 322.004 67.2917 325.235 67.2917H332.837C333.598 67.2917 334.168 67.1017 334.738 66.9116Z" fill="url(#paint2_linear_1886_88073)"/>
<path d="M294.826 50.1896C293.686 50.1896 292.926 50.9498 292.926 52.0901C292.926 53.2304 293.686 53.9906 294.826 53.9906H330.937C331.507 53.9906 332.077 53.6105 332.457 53.2304C332.837 52.6603 332.837 52.0901 332.647 51.5199L328.846 42.0172C328.466 41.0669 327.326 40.4968 326.376 40.8769L302.049 50.1896H294.826Z" fill="url(#paint3_linear_1886_88073)"/>
<path d="M329.036 71.0928H325.235C324.095 71.0928 323.335 71.8531 323.335 72.9934C323.335 74.1337 324.095 74.8939 325.235 74.8939H329.036C330.177 74.8939 330.937 74.1337 330.937 72.9934C330.937 71.8531 330.177 71.0928 329.036 71.0928Z" fill="url(#paint4_linear_1886_88073)"/>
</g>
</g>
<defs>
<linearGradient id="paint0_linear_1886_88073" x1="325.121" y1="106.634" x2="348.893" y2="48.5046" gradientUnits="userSpaceOnUse">
<stop stop-color="#A592DD"/>
<stop offset="1" stop-color="#E6DDFF"/>
</linearGradient>
<linearGradient id="paint1_linear_1886_88073" x1="295.316" y1="113" x2="342.447" y2="-13.963" gradientUnits="userSpaceOnUse">
<stop stop-color="#A592DD"/>
<stop offset="1" stop-color="#E6DDFF"/>
</linearGradient>
<linearGradient id="paint2_linear_1886_88073" x1="296.965" y1="101.146" x2="328.029" y2="-11.4441" gradientUnits="userSpaceOnUse">
<stop stop-color="#A592DD"/>
<stop offset="1" stop-color="#E6DDFF"/>
</linearGradient>
<linearGradient id="paint3_linear_1886_88073" x1="296.965" y1="101.146" x2="328.029" y2="-11.4441" gradientUnits="userSpaceOnUse">
<stop stop-color="#A592DD"/>
<stop offset="1" stop-color="#E6DDFF"/>
</linearGradient>
<linearGradient id="paint4_linear_1886_88073" x1="296.965" y1="101.146" x2="328.029" y2="-11.4441" gradientUnits="userSpaceOnUse">
<stop stop-color="#A592DD"/>
<stop offset="1" stop-color="#E6DDFF"/>
</linearGradient>
<clipPath id="clip0_1886_88073">
<rect width="142" height="142" fill="white" transform="translate(242)"/>
</clipPath>
<clipPath id="clip1_1886_88073">
<rect width="142" height="142" fill="white" transform="translate(242 140)"/>
</clipPath>
<clipPath id="clip2_1886_88073">
<rect width="142" height="142" fill="white" transform="translate(242)"/>
</clipPath>
</defs>
</svg>
