<svg width="64" height="64" viewBox="0 0 64 64" fill="none" xmlns="http://www.w3.org/2000/svg">
<g clip-path="url(#clip0_1889_86402)">
<path fill-rule="evenodd" clip-rule="evenodd" d="M21.4992 18.4264C20.7997 18.9302 20.3256 19.6955 20.1811 20.5544L19.371 25.5013C18.7633 25.7944 18.2498 26.2566 17.8901 26.8344C17.5304 27.4122 17.3392 28.0818 17.3389 28.7655V32.8747L16.5573 33.0047C16.0846 33.0811 15.6013 32.9646 15.2127 32.6805C14.8241 32.3965 14.5616 31.9679 14.4825 31.4881L12.4645 19.1317C12.3901 18.6513 12.505 18.1605 12.7844 17.7658C13.0637 17.371 13.4849 17.1041 13.9567 17.0229L41.0286 12.466C41.2628 12.4266 41.5025 12.4346 41.7337 12.4896C41.9649 12.5445 42.1832 12.6454 42.3759 12.7863C42.5687 12.9272 42.7322 13.1054 42.857 13.3107C42.9819 13.516 43.0656 13.7443 43.1034 13.9826L44.3042 21.3271L23.9115 17.8679C23.0663 17.7218 22.1987 17.9227 21.4992 18.4264ZM30.6287 36.864C30.2978 36.2688 30.0919 35.5457 30.0648 34.6946C30.2439 29.0399 38.3221 29.032 38.499 34.6946C38.4544 36.1274 37.9038 37.1972 37.1031 37.9044C35.6742 37.1476 34.0543 36.7205 32.3377 36.7205C31.7557 36.7205 31.1848 36.7696 30.6287 36.864ZM29.218 37.2092C27.7025 33.8857 29.3923 29.156 34.2855 28.9678C35.7792 28.9701 37.2111 29.5742 38.2673 30.6477C39.3235 31.7212 39.9179 33.1765 39.9201 34.6947C39.9179 36.1801 39.3488 37.6054 38.3349 38.6717C39.7533 39.6991 40.9132 41.081 41.6937 42.6928C41.6252 41.9524 41.7034 41.2053 41.924 40.4955C42.1543 39.7547 42.5347 39.071 43.0407 38.4887C43.5468 37.9063 44.1672 37.4381 44.8621 37.1143C45.557 36.7904 46.311 36.6181 47.0754 36.6084H49.811V32.7809C49.4649 32.7816 48.9533 32.7813 48.4424 32.7809H48.4402H48.4393H48.4383H48.4372C47.9271 32.7805 47.4181 32.7802 47.0754 32.7809C46.311 32.7712 45.557 32.5989 44.8621 32.275C44.1672 31.9512 43.5468 31.483 43.0407 30.9006C42.5347 30.3183 42.1543 29.6346 41.924 28.8938C41.6937 28.1529 41.6186 27.3712 41.7036 26.5991H26.8673C26.9518 27.3717 26.8762 28.1538 26.6452 28.8949C26.4143 29.636 26.0332 30.3198 25.5265 30.9021C25.0198 31.4845 24.3987 31.9525 23.7032 32.2761C23.0078 32.5997 22.2533 32.7716 21.4885 32.7809H18.76V36.6084H21.4885C22.9127 36.6122 24.2775 37.1884 25.2853 38.2113C25.5226 38.4522 25.7357 38.7133 25.9227 38.9907C26.8978 38.2073 28.0109 37.5983 29.218 37.2092ZM24.86 39.9708C24.7594 39.8094 24.6476 39.6549 24.5253 39.5085C24.1505 39.0598 23.6856 38.6978 23.1618 38.4467C22.6381 38.1957 22.0675 38.0613 21.4885 38.0528H18.76V40.6237C18.7596 40.9083 18.8145 41.1902 18.9215 41.4533C19.0285 41.7163 19.1855 41.9553 19.3835 42.1565C19.5815 42.3578 19.8166 42.5174 20.0754 42.6261C20.3342 42.7348 20.6116 42.7906 20.8916 42.7902H22.9351C23.4287 41.7447 24.0812 40.7937 24.86 39.9708ZM51.3829 24.1259C51.5829 24.2524 51.7563 24.4179 51.8929 24.6129C52.0337 24.8096 52.134 25.0332 52.1877 25.2702C52.2415 25.5072 52.2475 25.7528 52.2055 25.9923L51.2321 31.9286V28.7655C51.2296 27.8085 50.8545 26.8915 50.1888 26.2149C49.5231 25.5383 48.6208 25.1571 47.6793 25.1546H20.8632L21.5809 20.7926C21.6625 20.3122 21.9282 19.8843 22.3199 19.6027C22.7115 19.3211 23.1969 19.2088 23.6699 19.2905L50.7276 23.8763C50.9601 23.9146 51.1828 23.9995 51.3829 24.1259ZM20.241 31.3362C19.6916 31.3357 19.1267 31.3352 18.76 31.3364V28.7655C18.7596 28.4808 18.8145 28.1989 18.9215 27.9359C19.0285 27.6729 19.1855 27.4339 19.3835 27.2326C19.5815 27.0314 19.8166 26.8718 20.0754 26.7631C20.3342 26.6543 20.6116 26.5985 20.8916 26.5989H25.4462V27.3211C25.4429 28.3862 25.0246 29.4066 24.2829 30.1591C23.5412 30.9116 22.5365 31.3349 21.4885 31.3364C21.1758 31.3371 20.7166 31.3367 20.2457 31.3362H20.2444H20.2431H20.242H20.241ZM43.1247 26.5991H47.6793C48.2446 26.5995 48.7865 26.8278 49.1862 27.2341C49.5859 27.6403 49.8106 28.1911 49.811 28.7656V31.3365H47.0754C46.4968 31.3274 45.9268 31.1927 45.4036 30.9413C44.8805 30.6899 44.4163 30.3278 44.0421 29.8791C43.668 29.4304 43.3926 28.9057 43.2343 28.3399C43.0761 27.7742 43.0387 27.1807 43.1247 26.5991ZM45.4036 38.448C45.9268 38.1967 46.4968 38.0619 47.0754 38.0528C47.39 38.0521 47.8522 38.0525 48.3258 38.0529C48.8769 38.0534 49.4434 38.0539 49.811 38.0528V40.6237C49.8106 41.1982 49.5859 41.749 49.1862 42.1553C48.7865 42.5615 48.2446 42.7899 47.6793 42.7902H43.1247C43.0387 42.2086 43.0761 41.6151 43.2343 41.0494C43.3926 40.4837 43.668 39.9589 44.0421 39.5102C44.4163 39.0616 44.8805 38.6994 45.4036 38.448Z" fill="#A592DD"/>
<path fill-rule="evenodd" clip-rule="evenodd" d="M21.4992 18.4264C20.7997 18.9302 20.3256 19.6955 20.1811 20.5544L19.371 25.5013C18.7633 25.7944 18.2498 26.2566 17.8901 26.8344C17.5304 27.4122 17.3392 28.0818 17.3389 28.7655V32.8747L16.5573 33.0047C16.0846 33.0811 15.6013 32.9646 15.2127 32.6805C14.8241 32.3965 14.5616 31.9679 14.4825 31.4881L12.4645 19.1317C12.3901 18.6513 12.505 18.1605 12.7844 17.7658C13.0637 17.371 13.4849 17.1041 13.9567 17.0229L41.0286 12.466C41.2628 12.4266 41.5025 12.4346 41.7337 12.4896C41.9649 12.5445 42.1832 12.6454 42.3759 12.7863C42.5687 12.9272 42.7322 13.1054 42.857 13.3107C42.9819 13.516 43.0656 13.7443 43.1034 13.9826L44.3042 21.3271L23.9115 17.8679C23.0663 17.7218 22.1987 17.9227 21.4992 18.4264ZM30.6287 36.864C30.2978 36.2688 30.0919 35.5457 30.0648 34.6946C30.2439 29.0399 38.3221 29.032 38.499 34.6946C38.4544 36.1274 37.9038 37.1972 37.1031 37.9044C35.6742 37.1476 34.0543 36.7205 32.3377 36.7205C31.7557 36.7205 31.1848 36.7696 30.6287 36.864ZM29.218 37.2092C27.7025 33.8857 29.3923 29.156 34.2855 28.9678C35.7792 28.9701 37.2111 29.5742 38.2673 30.6477C39.3235 31.7212 39.9179 33.1765 39.9201 34.6947C39.9179 36.1801 39.3488 37.6054 38.3349 38.6717C39.7533 39.6991 40.9132 41.081 41.6937 42.6928C41.6252 41.9524 41.7034 41.2053 41.924 40.4955C42.1543 39.7547 42.5347 39.071 43.0407 38.4887C43.5468 37.9063 44.1672 37.4381 44.8621 37.1143C45.557 36.7904 46.311 36.6181 47.0754 36.6084H49.811V32.7809C49.4649 32.7816 48.9533 32.7813 48.4424 32.7809H48.4402H48.4393H48.4383H48.4372C47.9271 32.7805 47.4181 32.7802 47.0754 32.7809C46.311 32.7712 45.557 32.5989 44.8621 32.275C44.1672 31.9512 43.5468 31.483 43.0407 30.9006C42.5347 30.3183 42.1543 29.6346 41.924 28.8938C41.6937 28.1529 41.6186 27.3712 41.7036 26.5991H26.8673C26.9518 27.3717 26.8762 28.1538 26.6452 28.8949C26.4143 29.636 26.0332 30.3198 25.5265 30.9021C25.0198 31.4845 24.3987 31.9525 23.7032 32.2761C23.0078 32.5997 22.2533 32.7716 21.4885 32.7809H18.76V36.6084H21.4885C22.9127 36.6122 24.2775 37.1884 25.2853 38.2113C25.5226 38.4522 25.7357 38.7133 25.9227 38.9907C26.8978 38.2073 28.0109 37.5983 29.218 37.2092ZM24.86 39.9708C24.7594 39.8094 24.6476 39.6549 24.5253 39.5085C24.1505 39.0598 23.6856 38.6978 23.1618 38.4467C22.6381 38.1957 22.0675 38.0613 21.4885 38.0528H18.76V40.6237C18.7596 40.9083 18.8145 41.1902 18.9215 41.4533C19.0285 41.7163 19.1855 41.9553 19.3835 42.1565C19.5815 42.3578 19.8166 42.5174 20.0754 42.6261C20.3342 42.7348 20.6116 42.7906 20.8916 42.7902H22.9351C23.4287 41.7447 24.0812 40.7937 24.86 39.9708ZM51.3829 24.1259C51.5829 24.2524 51.7563 24.4179 51.8929 24.6129C52.0337 24.8096 52.134 25.0332 52.1877 25.2702C52.2415 25.5072 52.2475 25.7528 52.2055 25.9923L51.2321 31.9286V28.7655C51.2296 27.8085 50.8545 26.8915 50.1888 26.2149C49.5231 25.5383 48.6208 25.1571 47.6793 25.1546H20.8632L21.5809 20.7926C21.6625 20.3122 21.9282 19.8843 22.3199 19.6027C22.7115 19.3211 23.1969 19.2088 23.6699 19.2905L50.7276 23.8763C50.9601 23.9146 51.1828 23.9995 51.3829 24.1259ZM20.241 31.3362C19.6916 31.3357 19.1267 31.3352 18.76 31.3364V28.7655C18.7596 28.4808 18.8145 28.1989 18.9215 27.9359C19.0285 27.6729 19.1855 27.4339 19.3835 27.2326C19.5815 27.0314 19.8166 26.8718 20.0754 26.7631C20.3342 26.6543 20.6116 26.5985 20.8916 26.5989H25.4462V27.3211C25.4429 28.3862 25.0246 29.4066 24.2829 30.1591C23.5412 30.9116 22.5365 31.3349 21.4885 31.3364C21.1758 31.3371 20.7166 31.3367 20.2457 31.3362H20.2444H20.2431H20.242H20.241ZM43.1247 26.5991H47.6793C48.2446 26.5995 48.7865 26.8278 49.1862 27.2341C49.5859 27.6403 49.8106 28.1911 49.811 28.7656V31.3365H47.0754C46.4968 31.3274 45.9268 31.1927 45.4036 30.9413C44.8805 30.6899 44.4163 30.3278 44.0421 29.8791C43.668 29.4304 43.3926 28.9057 43.2343 28.3399C43.0761 27.7742 43.0387 27.1807 43.1247 26.5991ZM45.4036 38.448C45.9268 38.1967 46.4968 38.0619 47.0754 38.0528C47.39 38.0521 47.8522 38.0525 48.3258 38.0529C48.8769 38.0534 49.4434 38.0539 49.811 38.0528V40.6237C49.8106 41.1982 49.5859 41.749 49.1862 42.1553C48.7865 42.5615 48.2446 42.7899 47.6793 42.7902H43.1247C43.0387 42.2086 43.0761 41.6151 43.2343 41.0494C43.3926 40.4837 43.668 39.9589 44.0421 39.5102C44.4163 39.0616 44.8805 38.6994 45.4036 38.448Z" fill="url(#paint0_linear_1889_86402)"/>
<g clip-path="url(#clip1_1889_86402)">
<path d="M32.3367 40.8203C30.9473 40.8203 29.589 41.2323 28.4337 42.0043C27.2784 42.7762 26.378 43.8734 25.8463 45.1571C25.3146 46.4408 25.1754 47.8533 25.4465 49.2161C25.7176 50.5788 26.3867 51.8306 27.3692 52.8131C28.3516 53.7956 29.6034 54.4646 30.9662 54.7357C32.3289 55.0068 33.7415 54.8677 35.0251 54.3359C36.3088 53.8042 37.406 52.9038 38.178 51.7485C38.9499 50.5932 39.3619 49.235 39.3619 47.8455C39.3619 46.9229 39.1802 46.0094 38.8272 45.1571C38.4741 44.3047 37.9566 43.5303 37.3043 42.8779C36.6519 42.2256 35.8775 41.7081 35.0251 41.3551C34.1728 41.002 33.2593 40.8203 32.3367 40.8203V40.8203ZM35.3576 46.1665L32.147 50.3816C32.0816 50.4666 31.9975 50.5355 31.9013 50.583C31.8051 50.6305 31.6993 50.6553 31.5921 50.6556C31.4853 50.6562 31.3799 50.6324 31.2837 50.5862C31.1876 50.5399 31.1032 50.4724 31.0371 50.3886L29.3229 48.2038C29.2662 48.1309 29.2243 48.0476 29.1998 47.9585C29.1753 47.8695 29.1685 47.7765 29.18 47.6848C29.1914 47.5932 29.2207 47.5046 29.2664 47.4243C29.312 47.344 29.373 47.2735 29.4459 47.2168C29.593 47.1022 29.7797 47.0507 29.9648 47.0738C30.0565 47.0852 30.145 47.1146 30.2253 47.1602C30.3056 47.2058 30.3762 47.2668 30.4329 47.3397L31.578 48.8009L34.2335 45.2883C34.2898 45.2145 34.3601 45.1525 34.4403 45.1059C34.5205 45.0592 34.6092 45.0288 34.7012 45.0164C34.7931 45.0041 34.8867 45.0099 34.9764 45.0336C35.0661 45.0574 35.1503 45.0986 35.2241 45.1549C35.2979 45.2111 35.3599 45.2814 35.4065 45.3616C35.4532 45.4419 35.4836 45.5305 35.496 45.6225C35.5084 45.7145 35.5025 45.808 35.4788 45.8977C35.455 45.9874 35.4138 46.0716 35.3576 46.1454V46.1665Z" fill="#70CA98"/>
</g>
</g>
<rect x="0.5" y="0.5" width="63" height="63" rx="9.5" stroke="black" stroke-opacity="0.03"/>
<defs>
<linearGradient id="paint0_linear_1889_86402" x1="21.1466" y1="48.86" x2="36.6397" y2="-20.7616" gradientUnits="userSpaceOnUse">
<stop stop-color="#A592DD"/>
<stop offset="1" stop-color="#E6DDFF"/>
</linearGradient>
<clipPath id="clip0_1889_86402">
<rect width="58" height="58" fill="white" transform="translate(3 3)"/>
</clipPath>
<clipPath id="clip1_1889_86402">
<rect width="16.8605" height="16.8605" fill="white" transform="translate(23.9072 39.418)"/>
</clipPath>
</defs>
</svg>
