<svg width="20" height="21" viewBox="0 0 20 21" fill="none" xmlns="http://www.w3.org/2000/svg">
<path d="M10.0003 2.1665C8.35215 2.1665 6.74099 2.65525 5.37058 3.57092C4.00017 4.4866 2.93206 5.78809 2.30133 7.31081C1.6706 8.83353 1.50558 10.5091 1.82712 12.1256C2.14866 13.7421 2.94234 15.227 4.10777 16.3924C5.27321 17.5578 6.75807 18.3515 8.37458 18.673C9.99109 18.9946 11.6666 18.8296 13.1894 18.1988C14.7121 17.5681 16.0136 16.5 16.9292 15.1296C17.8449 13.7592 18.3337 12.148 18.3337 10.4998C18.3337 9.40549 18.1181 8.32186 17.6993 7.31081C17.2805 6.29976 16.6667 5.3811 15.8929 4.60728C15.1191 3.83346 14.2004 3.21963 13.1894 2.80084C12.1783 2.38205 11.0947 2.1665 10.0003 2.1665V2.1665ZM10.8337 13.8332C10.8337 14.0542 10.7459 14.2661 10.5896 14.4224C10.4333 14.5787 10.2213 14.6665 10.0003 14.6665C9.77932 14.6665 9.56735 14.5787 9.41107 14.4224C9.25479 14.2661 9.167 14.0542 9.167 13.8332V9.6665C9.167 9.44549 9.25479 9.23353 9.41107 9.07725C9.56735 8.92097 9.77932 8.83317 10.0003 8.83317C10.2213 8.83317 10.4333 8.92097 10.5896 9.07725C10.7459 9.23353 10.8337 9.44549 10.8337 9.6665V13.8332ZM10.0003 7.99984C9.83551 7.99984 9.67439 7.95096 9.53735 7.8594C9.40031 7.76783 9.2935 7.63768 9.23043 7.48541C9.16736 7.33314 9.15085 7.16558 9.18301 7.00393C9.21516 6.84228 9.29453 6.69379 9.41107 6.57725C9.52762 6.4607 9.6761 6.38134 9.83775 6.34918C9.9994 6.31703 10.167 6.33353 10.3192 6.3966C10.4715 6.45968 10.6017 6.56649 10.6932 6.70353C10.7848 6.84057 10.8337 7.00169 10.8337 7.1665C10.8337 7.38752 10.7459 7.59948 10.5896 7.75576C10.4333 7.91204 10.2213 7.99984 10.0003 7.99984Z" fill="#3B3B3B"/>
</svg>
