<svg width="61" height="60" viewBox="0 0 61 60" fill="none" xmlns="http://www.w3.org/2000/svg">
<g clip-path="url(#clip0_2257_22718)">
<rect x="18.2778" y="17.7773" width="25.2593" height="24.4444" rx="4.88889" fill="#353240"/>
<path d="M25.5913 31.776V22.6664C25.5913 22.4503 25.5054 22.243 25.3526 22.0902C25.1998 21.9374 24.9926 21.8516 24.7765 21.8516C24.5604 21.8516 24.3531 21.9374 24.2003 22.0902C24.0475 22.243 23.9617 22.4503 23.9617 22.6664V31.776C23.4898 31.9473 23.082 32.2597 22.7939 32.6708C22.5058 33.0819 22.3512 33.5718 22.3512 34.0738C22.3512 34.5758 22.5058 35.0657 22.7939 35.4768C23.082 35.8879 23.4898 36.2003 23.9617 36.3716V37.333C23.9617 37.5491 24.0475 37.7564 24.2003 37.9092C24.3531 38.062 24.5604 38.1479 24.7765 38.1479C24.9926 38.1479 25.1998 38.062 25.3526 37.9092C25.5054 37.7564 25.5913 37.5491 25.5913 37.333V36.3716C26.0632 36.2003 26.4709 35.8879 26.759 35.4768C27.0472 35.0657 27.2018 34.5758 27.2018 34.0738C27.2018 33.5718 27.0472 33.0819 26.759 32.6708C26.4709 32.2597 26.0632 31.9473 25.5913 31.776Z" fill="white"/>
<path d="M38.5902 30.8145C38.5888 30.3102 38.4314 29.8187 38.1396 29.4073C37.8479 28.9959 37.436 28.6849 36.9606 28.5167V22.6664C36.9606 22.4503 36.8747 22.243 36.7219 22.0902C36.5691 21.9374 36.3618 21.8516 36.1457 21.8516C35.9296 21.8516 35.7224 21.9374 35.5696 22.0902C35.4168 22.243 35.3309 22.4503 35.3309 22.6664V28.5167C34.859 28.688 34.4513 29.0004 34.1632 29.4115C33.875 29.8227 33.7205 30.3125 33.7205 30.8145C33.7205 31.3165 33.875 31.8064 34.1632 32.2175C34.4513 32.6286 34.859 32.941 35.3309 33.1123V37.333C35.3309 37.5491 35.4168 37.7564 35.5696 37.9092C35.7224 38.062 35.9296 38.1479 36.1457 38.1479C36.3618 38.1479 36.5691 38.062 36.7219 37.9092C36.8747 37.7564 36.9606 37.5491 36.9606 37.333V33.1123C37.436 32.9442 37.8479 32.6331 38.1396 32.2218C38.4314 31.8104 38.5888 31.3188 38.5902 30.8145Z" fill="white"/>
<path d="M32.9058 24.296C32.9071 23.8476 32.785 23.4075 32.5528 23.0238C32.3207 22.6401 31.9875 22.3277 31.5897 22.1207C31.1919 21.9137 30.7448 21.8201 30.2974 21.8502C29.85 21.8803 29.4194 22.0329 29.0529 22.2913C28.6864 22.5497 28.398 22.9039 28.2194 23.3152C28.0407 23.7265 27.9786 24.1791 28.0399 24.6233C28.1012 25.0675 28.2835 25.4863 28.5669 25.8339C28.8503 26.1814 29.2238 26.4443 29.6466 26.5938V37.3331C29.6466 37.5492 29.7324 37.7564 29.8852 37.9092C30.0381 38.062 30.2453 38.1479 30.4614 38.1479C30.6775 38.1479 30.8848 38.062 31.0376 37.9092C31.1904 37.7564 31.2762 37.5492 31.2762 37.3331V26.5938C31.7517 26.4257 32.1636 26.1146 32.4553 25.7033C32.7471 25.2919 32.9044 24.8004 32.9058 24.296Z" fill="white"/>
</g>
<defs>
<clipPath id="clip0_2257_22718">
<rect x="18.2778" y="17.7773" width="25.2593" height="24.4444" rx="4.88889" fill="white"/>
</clipPath>
</defs>
</svg>
