<svg width="35" height="34" viewBox="0 0 35 34" fill="none" xmlns="http://www.w3.org/2000/svg">
<path d="M30.7812 26.5285L28.6112 6.99957C28.6112 5.77179 27.6167 4.77734 26.389 4.77734H17.5001H8.61119C7.38341 4.77734 6.38897 5.77179 6.38897 6.99957L4.21897 26.5285C4.18675 26.6807 4.16675 26.8373 4.16675 26.9996C4.16675 28.2273 5.16119 29.2218 6.38897 29.2218H17.5001H28.6112C29.839 29.2218 30.8334 28.2273 30.8334 26.9996C30.8334 26.8373 30.8134 26.6807 30.7812 26.5285ZM23.0556 10.2307V11.444C23.0556 14.5073 20.5634 16.9996 17.5001 16.9996C14.4367 16.9996 11.9445 14.5073 11.9445 11.444V10.2307C11.299 10.0018 10.8334 9.39068 10.8334 8.66623C10.8334 7.74623 11.5801 6.99957 12.5001 6.99957C13.4201 6.99957 14.1667 7.74623 14.1667 8.66623V11.444C14.1667 13.2818 15.6623 14.7773 17.5001 14.7773C19.3379 14.7773 20.8334 13.2818 20.8334 11.444V8.66623C20.8334 7.74623 21.5801 6.99957 22.5001 6.99957C23.4201 6.99957 24.1667 7.74623 24.1667 8.66623C24.1667 9.39068 23.7012 10.0018 23.0556 10.2307Z" fill="#353240"/>
</svg>
