<svg width="30" height="27" viewBox="0 0 30 27" fill="none" xmlns="http://www.w3.org/2000/svg">
<path d="M26.132 8.51432H4.98615C3.87851 8.51432 2.97226 7.60807 2.97226 6.50043C2.97226 5.3928 3.87851 4.48655 4.98615 4.48655H9.01393C9.6181 4.48655 10.0209 4.08377 10.0209 3.4796C10.0209 2.87543 9.6181 2.47266 9.01393 2.47266H4.98615C2.77087 2.47266 0.958374 4.28516 0.958374 6.50043V22.6115C0.958374 24.8268 2.77087 26.6393 4.98615 26.6393H26.132C27.8438 26.6393 29.1528 25.3303 29.1528 23.6185V11.5352C29.1528 9.82335 27.8438 8.51432 26.132 8.51432ZM27.1389 14.3546V20.799C26.8368 20.6984 26.5348 20.5977 26.132 20.5977H22.1042C20.3924 20.5977 19.0834 19.2886 19.0834 17.5768C19.0834 15.865 20.3924 14.556 22.1042 14.556H26.132C26.5348 14.556 26.8368 14.4553 27.1389 14.3546Z" fill="#353240"/>
<path d="M5.99315 5.4932C5.38898 5.4932 4.98621 5.89598 4.98621 6.50015C4.98621 7.10431 5.38898 7.50709 5.99315 7.50709H10.0209H25.1251C25.4272 7.50709 25.7293 7.3057 25.9306 7.10431C26.132 6.80223 26.132 6.50015 26.0313 6.19806L24.0175 1.16334C23.8161 0.65987 23.2119 0.357786 22.7084 0.559175L9.81954 5.4932H5.99315Z" fill="#353240"/>
<path d="M24.1181 16.5703H22.1042C21.5001 16.5703 21.0973 16.9731 21.0973 17.5773C21.0973 18.1814 21.5001 18.5842 22.1042 18.5842H24.1181C24.7223 18.5842 25.1251 18.1814 25.1251 17.5773C25.1251 16.9731 24.7223 16.5703 24.1181 16.5703Z" fill="#353240"/>
</svg>
