<svg width="27" height="27" viewBox="0 0 27 27" fill="none" xmlns="http://www.w3.org/2000/svg">
<path d="M15.7223 0.665799C14.3234 -0.033662 12.6768 -0.033662 11.2779 0.665799L0.997911 6.25825C0.822392 6.30389 0.660713 6.39181 0.526991 6.51432L0.520481 6.51866V6.52083C0.40904 6.62465 0.320133 6.75027 0.259282 6.88989C0.19843 7.02952 0.166934 7.18016 0.166748 7.33246C0.166748 7.62715 0.283811 7.90977 0.492185 8.11814C0.700559 8.32651 0.983174 8.44358 1.27786 8.44358V22.4278C1.27786 23.4339 1.67754 24.3988 2.38897 25.1102C3.1004 25.8217 4.06531 26.2214 5.07143 26.2214H21.9287C22.9349 26.2214 23.8998 25.8217 24.6112 25.1102C25.3226 24.3988 25.7223 23.4339 25.7223 22.4278V8.44358C26.017 8.44358 26.2996 8.32651 26.508 8.11814C26.7164 7.90977 26.8334 7.62715 26.8334 7.33246C26.8332 7.18016 26.8017 7.02952 26.7409 6.88989C26.68 6.75027 26.5911 6.62465 26.4797 6.52083V6.51866L26.4753 6.51649C26.3412 6.39289 26.1788 6.3042 26.0023 6.25825L15.7223 0.665799ZM13.5001 9.55469C14.1134 9.55469 14.6112 10.0525 14.6112 10.6658V13.9991H17.9445C18.5579 13.9991 19.0556 14.4969 19.0556 15.1102C19.0556 15.7236 18.5579 16.2214 17.9445 16.2214H14.6112V19.5547C14.6112 20.168 14.1134 20.6658 13.5001 20.6658C12.8867 20.6658 12.389 20.168 12.389 19.5547V16.2214H9.05564C8.4423 16.2214 7.94453 15.7236 7.94453 15.1102C7.94453 14.4969 8.4423 13.9991 9.05564 13.9991H12.389V10.6658C12.389 10.0525 12.8867 9.55469 13.5001 9.55469Z" fill="#353240"/>
</svg>
