<svg width="34" height="33" viewBox="0 0 34 33" fill="none" xmlns="http://www.w3.org/2000/svg">
<rect x="6.49996" y="6.55599" width="21.1111" height="21.1111" rx="3.33333" stroke="#353240" stroke-width="6.66667"/>
<path fill-rule="evenodd" clip-rule="evenodd" d="M12.0417 6.96503C13.4126 6.66038 15.0757 6.55566 17.0556 6.55566C19.0355 6.55566 20.6985 6.66038 22.0693 6.96503C23.4522 7.27235 24.6015 7.797 25.4856 8.68111C26.3698 9.56522 26.8944 10.7146 27.2018 12.0974C27.5064 13.4683 27.6111 15.1313 27.6111 17.1112C27.6111 19.0911 27.5064 20.7542 27.2018 22.125C26.8944 23.5079 26.3698 24.6572 25.4856 25.5413C24.6015 26.4254 23.4522 26.9501 22.0693 27.2574C20.6985 27.5621 19.0355 27.6668 17.0556 27.6668C15.0757 27.6668 13.4126 27.5621 12.0417 27.2574C10.6589 26.9501 9.50956 26.4254 8.62545 25.5413C7.74133 24.6572 7.21669 23.5079 6.90937 22.125C6.60471 20.7542 6.5 19.0911 6.5 17.1112C6.5 15.1313 6.60471 13.4683 6.90937 12.0974C7.21669 10.7146 7.74133 9.56522 8.62545 8.68111C9.50956 7.797 10.6589 7.27235 12.0417 6.96503ZM17.0556 10.7779C14.7237 10.7779 12.8333 12.6682 12.8333 15.0001C12.8333 17.3319 14.7237 19.2223 17.0556 19.2223C19.3874 19.2223 21.2778 17.3319 21.2778 15.0001C21.2778 12.6682 19.3874 10.7779 17.0556 10.7779ZM23.7874 22.6995C24.1598 23.3068 24.028 24.1096 23.4278 24.4932C22.8821 24.8422 22.2445 25.0559 21.6112 25.1966C20.4673 25.4507 18.9871 25.5557 17.0553 25.5557C15.1237 25.5557 13.6434 25.4507 12.4996 25.1966C11.8782 25.0585 11.2522 24.8504 10.713 24.5128C10.1021 24.1301 9.96774 23.3164 10.3493 22.7047C10.7888 22.0003 11.3944 21.4469 12.2093 21.0531C13.4458 20.4556 15.0666 20.2779 17.0551 20.2779C19.0369 20.2779 20.656 20.4413 21.8907 21.0217C22.7267 21.4147 23.3437 21.9762 23.7874 22.6995Z" fill="#353240"/>
</svg>
