<svg width="61" height="60" viewBox="0 0 61 60" fill="none" xmlns="http://www.w3.org/2000/svg">
<path d="M24.9576 17.7686C23.7353 17.7686 22.7353 18.7686 22.7353 19.9908L22.7462 33.3241H22.7353V36.6574C22.7353 37.2686 22.2353 37.7686 21.6242 37.7686C21.0131 37.7686 20.5131 37.2686 20.5131 36.6574V27.7686C19.2909 27.7686 18.2909 28.7686 18.2909 29.9908V37.7686C18.2909 40.2241 20.2798 42.213 22.7353 42.213H38.28C40.7467 42.213 42.7356 40.2244 42.7245 37.7577V34.4352L42.6811 19.9908C42.6811 18.7686 41.6922 17.7686 40.4589 17.7686H24.9576ZM27.1798 24.4352H38.2909C38.902 24.4352 39.402 24.9352 39.402 25.5463C39.402 26.1574 38.902 26.6574 38.2909 26.6574H27.1798C26.5687 26.6574 26.0687 26.1574 26.0687 25.5463C26.0687 24.9352 26.5687 24.4352 27.1798 24.4352ZM27.1798 28.8797H38.2909C38.902 28.8797 39.402 29.3797 39.402 29.9908C39.402 30.6019 38.902 31.1019 38.2909 31.1019H27.1798C26.5687 31.1019 26.0687 30.6019 26.0687 29.9908C26.0687 29.3797 26.5687 28.8797 27.1798 28.8797ZM27.1798 33.3241H29.402C30.0131 33.3241 30.5131 33.8241 30.5131 34.4352C30.5131 35.0463 30.0131 35.5463 29.402 35.5463H27.1798C26.5687 35.5463 26.0687 35.0463 26.0687 34.4352C26.0687 33.8241 26.5687 33.3241 27.1798 33.3241ZM33.8464 33.3241H38.2909C38.902 33.3241 39.402 33.8241 39.402 34.4352C39.402 35.0463 38.902 35.5463 38.2909 35.5463H33.8464C33.2353 35.5463 32.7353 35.0463 32.7353 34.4352C32.7353 33.8241 33.2353 33.3241 33.8464 33.3241Z" fill="#353240"/>
</svg>
