<svg width="626" height="142" viewBox="0 0 626 142" fill="none" xmlns="http://www.w3.org/2000/svg">
<path d="M625.25 88.745C604.25 102.745 535.25 112.744 452.25 76.7445C369.25 40.7447 273.25 75.7454 228.75 95.2453C193.15 110.845 159.75 108.746 125.25 88.745C99.75 65.9118 39.15 24.0456 0.75 39.2456" stroke="#A592DD" stroke-opacity="0.4" stroke-dasharray="19 19"/>
<g clip-path="url(#clip0_1886_86362)">
<circle cx="313" cy="71" r="71" fill="#F6F4FC"/>
<path d="M334.094 72.8164V74.8594C334.094 82.4012 327.422 89.6555 320.723 95.0397C324.211 98.4674 328.654 100.943 328.713 100.998C328.713 100.998 340.829 94.2624 340.829 87.5656V76.1463L334.094 72.8164Z" fill="url(#paint0_linear_1886_86362)"/>
<path d="M332.158 74.8613V52.6419L308.574 41L285 52.6419V74.8613C285 87.8871 308.574 101 308.574 101C308.574 101 309.89 100.274 311.893 98.9774C319.831 93.902 332.158 84.259 332.158 74.8613ZM307.011 75.3366C305.839 76.5082 303.94 76.5081 302.768 75.3365L299.542 72.1105C298.566 71.1339 298.566 69.5508 299.542 68.5743V68.5743C300.519 67.5978 302.102 67.5978 303.079 68.5743L304.748 70.2436C304.826 70.3217 304.953 70.3217 305.031 70.2436L314.077 61.1967C315.054 60.22 316.638 60.22 317.614 61.1968V61.1968C318.591 62.1734 318.59 63.7566 317.614 64.7331L307.011 75.3366Z" fill="url(#paint1_linear_1886_86362)"/>
<g clip-path="url(#clip1_1886_86362)">
<circle cx="296" cy="194" r="54" fill="#F6F4FC"/>
</g>
<g clip-path="url(#clip2_1886_86362)">
<circle cx="313.5" cy="71" r="71" fill="#F6F4FC"/>
<path d="M288.813 48.8466C288.813 45.0743 291.889 42 295.66 42C299.431 42 302.507 45.0757 302.507 48.8466C302.507 52.6146 299.431 55.6932 295.66 55.6932C291.889 55.6932 288.813 52.6146 288.813 48.8466ZM288.351 78.65C288.553 78.2094 288.776 77.7717 289.023 77.347C291.027 73.8714 294.188 71.4689 297.737 70.3433C298.446 66.0606 301.417 62.5238 305.371 61.0071C303.797 59.9018 301.88 59.2503 299.824 59.2503H291.496C286.162 59.2503 281.797 63.616 281.797 68.9502V74.6683C281.797 76.8569 283.59 78.65 285.778 78.65H288.351ZM336.183 59.2518H327.86C325.799 59.2518 323.883 59.9033 322.308 61.0085C326.858 62.7522 330.107 67.1673 330.107 72.3153V78.0334C330.107 78.2399 330.094 78.445 330.073 78.6515H341.901C344.089 78.6515 345.883 76.8584 345.883 74.6697V68.9516C345.883 63.616 341.517 59.2518 336.183 59.2518ZM332.019 55.6932C335.792 55.6932 338.866 52.6146 338.866 48.8466C338.866 45.0743 335.79 42 332.019 42C328.251 42 325.173 45.0757 325.173 48.8466C325.171 52.6146 328.251 55.6932 332.019 55.6932ZM318.003 62.6155H309.68C305.229 62.6155 301.452 65.6534 300.322 69.7587C303.612 69.305 307.07 69.8954 310.162 71.6798C314.157 73.9877 316.732 77.8138 317.586 82.0137H323.72C325.908 82.0137 327.702 80.2206 327.702 78.032V72.3139C327.703 66.9811 323.337 62.6155 318.003 62.6155ZM313.84 59.0569C317.612 59.0569 320.686 55.9783 320.686 52.2103C320.686 48.438 317.61 45.3637 313.84 45.3637C310.069 45.3637 306.993 48.4394 306.993 52.2103C306.993 55.9783 310.067 59.0569 313.84 59.0569ZM313.749 91.619C310.139 97.8723 302.142 100.016 295.887 96.405C289.638 92.7941 287.494 84.8001 291.105 78.5468C294.712 72.2935 302.71 70.1499 308.963 73.7608C315.217 77.3732 317.36 85.3658 313.749 91.619ZM309.355 80.7078C309.243 80.5961 309.111 80.5075 308.965 80.447C308.819 80.3866 308.663 80.3555 308.505 80.3555C308.348 80.3555 308.191 80.3866 308.046 80.447C307.9 80.5075 307.768 80.5961 307.656 80.7078L301.448 86.916L297.197 82.6623C296.727 82.1926 295.964 82.1926 295.499 82.6623C295.387 82.7737 295.298 82.9061 295.238 83.0519C295.177 83.1976 295.146 83.3538 295.146 83.5116C295.146 83.6694 295.177 83.8256 295.238 83.9713C295.298 84.117 295.387 84.2494 295.499 84.3609L300.597 89.4595C300.709 89.5712 300.841 89.6598 300.987 89.7202C301.132 89.7807 301.289 89.8118 301.446 89.8118C301.604 89.8118 301.76 89.7807 301.906 89.7202C302.052 89.6598 302.184 89.5712 302.296 89.4595L309.353 82.4064C309.577 82.1806 309.703 81.8755 309.704 81.5574C309.704 81.2393 309.578 80.9339 309.355 80.7078ZM295.747 99.043C295.386 98.8723 295.033 98.6865 294.687 98.486C294.341 98.2839 294.002 98.0701 293.673 97.8476L292.498 99.8879C292.49 99.9039 292.478 99.9213 292.469 99.9373C291.88 99.8006 291.245 100.052 290.928 100.605L283.677 111.707C283.075 112.754 283.438 114.102 284.481 114.708C285.528 115.31 286.881 114.951 287.483 113.904L294.734 102.802C295.051 102.25 294.952 101.573 294.54 101.133C294.553 101.112 294.561 101.096 294.574 101.079L295.747 99.043Z" fill="url(#paint2_linear_1886_86362)"/>
</g>
</g>
<defs>
<linearGradient id="paint0_linear_1886_86362" x1="325.121" y1="106.634" x2="348.893" y2="48.5046" gradientUnits="userSpaceOnUse">
<stop stop-color="#A592DD"/>
<stop offset="1" stop-color="#E6DDFF"/>
</linearGradient>
<linearGradient id="paint1_linear_1886_86362" x1="295.316" y1="113" x2="342.447" y2="-13.963" gradientUnits="userSpaceOnUse">
<stop stop-color="#A592DD"/>
<stop offset="1" stop-color="#E6DDFF"/>
</linearGradient>
<linearGradient id="paint2_linear_1886_86362" x1="295.815" y1="131.345" x2="350.317" y2="-29.4403" gradientUnits="userSpaceOnUse">
<stop stop-color="#A592DD"/>
<stop offset="1" stop-color="#E6DDFF"/>
</linearGradient>
<clipPath id="clip0_1886_86362">
<rect width="142" height="142" fill="white" transform="translate(242)"/>
</clipPath>
<clipPath id="clip1_1886_86362">
<rect width="142" height="142" fill="white" transform="translate(242 140)"/>
</clipPath>
<clipPath id="clip2_1886_86362">
<rect width="142" height="142" fill="white" transform="translate(242.5)"/>
</clipPath>
</defs>
</svg>
