<svg width="25" height="24" viewBox="0 0 25 24" fill="none" xmlns="http://www.w3.org/2000/svg">
<path d="M18.56 11H6.44C5.92085 11 5.5 11.4209 5.5 11.94V12.06C5.5 12.5791 5.92085 13 6.44 13H18.56C19.0791 13 19.5 12.5791 19.5 12.06V11.94C19.5 11.4209 19.0791 11 18.56 11Z" fill="url(#paint0_linear_1690_53649)"/>
<path d="M20.56 6H4.44C3.92085 6 3.5 6.42085 3.5 6.94V7.06C3.5 7.57915 3.92085 8 4.44 8H20.56C21.0791 8 21.5 7.57915 21.5 7.06V6.94C21.5 6.42085 21.0791 6 20.56 6Z" fill="url(#paint1_linear_1690_53649)"/>
<path d="M15.5599 16H9.43993C8.92078 16 8.49993 16.4209 8.49993 16.94V17.06C8.49993 17.5791 8.92078 18 9.43993 18H15.5599C16.0791 18 16.4999 17.5791 16.4999 17.06V16.94C16.4999 16.4209 16.0791 16 15.5599 16Z" fill="url(#paint2_linear_1690_53649)"/>
<defs>
<linearGradient id="paint0_linear_1690_53649" x1="7.62215" y1="18.4447" x2="14.4488" y2="5.61931" gradientUnits="userSpaceOnUse">
<stop stop-color="#2E2C2C"/>
<stop offset="0.674628" stop-color="#4B4949"/>
<stop offset="1" stop-color="#131313"/>
<stop offset="1" stop-opacity="0.94"/>
<stop offset="1" stop-color="#434343"/>
</linearGradient>
<linearGradient id="paint1_linear_1690_53649" x1="7.62215" y1="18.4447" x2="14.4488" y2="5.61931" gradientUnits="userSpaceOnUse">
<stop stop-color="#2E2C2C"/>
<stop offset="0.674628" stop-color="#4B4949"/>
<stop offset="1" stop-color="#131313"/>
<stop offset="1" stop-opacity="0.94"/>
<stop offset="1" stop-color="#434343"/>
</linearGradient>
<linearGradient id="paint2_linear_1690_53649" x1="7.62215" y1="18.4447" x2="14.4488" y2="5.61931" gradientUnits="userSpaceOnUse">
<stop stop-color="#2E2C2C"/>
<stop offset="0.674628" stop-color="#4B4949"/>
<stop offset="1" stop-color="#131313"/>
<stop offset="1" stop-opacity="0.94"/>
<stop offset="1" stop-color="#434343"/>
</linearGradient>
</defs>
</svg>
