<svg width="626" height="142" viewBox="0 0 626 142" fill="none" xmlns="http://www.w3.org/2000/svg">
<path d="M625.5 88.745C604.5 102.745 535.5 112.744 452.5 76.7445C369.5 40.7447 273.5 75.7454 229 95.2453C193.4 110.845 160 108.746 125.5 88.745C100 65.9118 39.4 24.0456 1 39.2456" stroke="#7ACCA1" stroke-dasharray="19 19"/>
<g clip-path="url(#clip0_1886_86728)">
<circle cx="313.25" cy="71" r="71" fill="#F6F4FC"/>
<path d="M334.344 72.8164V74.8594C334.344 82.4012 327.672 89.6555 320.973 95.0397C324.461 98.4674 328.904 100.943 328.963 100.998C328.963 100.998 341.079 94.2624 341.079 87.5656V76.1463L334.344 72.8164Z" fill="url(#paint0_linear_1886_86728)"/>
<path d="M332.408 74.8613V52.6419L308.824 41L285.25 52.6419V74.8613C285.25 87.8871 308.824 101 308.824 101C308.824 101 310.14 100.274 312.143 98.9774C320.081 93.902 332.408 84.259 332.408 74.8613ZM307.261 75.3366C306.089 76.5082 304.19 76.5081 303.018 75.3365L299.792 72.1105C298.816 71.1339 298.816 69.5508 299.792 68.5743C300.769 67.5978 302.352 67.5978 303.329 68.5743L304.998 70.2436C305.076 70.3217 305.203 70.3217 305.281 70.2436L314.327 61.1967C315.304 60.22 316.888 60.22 317.864 61.1968C318.841 62.1734 318.84 63.7566 317.864 64.7331L307.261 75.3366Z" fill="url(#paint1_linear_1886_86728)"/>
<g clip-path="url(#clip1_1886_86728)">
<circle cx="296.25" cy="194" r="54" fill="#F6F4FC"/>
</g>
<g clip-path="url(#clip2_1886_86728)">
<circle cx="313.75" cy="71" r="71" fill="#F6F4FC"/>
<path d="M289.064 48.8466C289.064 45.0743 292.139 42 295.91 42C299.681 42 302.757 45.0757 302.757 48.8466C302.757 52.6146 299.681 55.6932 295.91 55.6932C292.139 55.6932 289.064 52.6146 289.064 48.8466ZM288.601 78.65C288.803 78.2094 289.026 77.7717 289.273 77.347C291.277 73.8714 294.439 71.4689 297.987 70.3433C298.697 66.0606 301.668 62.5238 305.622 61.0071C304.047 59.9018 302.13 59.2503 300.074 59.2503H291.747C286.413 59.2503 282.047 63.616 282.047 68.9502V74.6683C282.047 76.8569 283.84 78.65 286.029 78.65H288.601ZM336.433 59.2518H328.11C326.05 59.2518 324.133 59.9033 322.558 61.0085C327.108 62.7522 330.357 67.1673 330.357 72.3153V78.0334C330.357 78.2399 330.344 78.445 330.324 78.6515H342.151C344.34 78.6515 346.133 76.8584 346.133 74.6697V68.9516C346.133 63.616 341.767 59.2518 336.433 59.2518ZM332.269 55.6932C336.042 55.6932 339.116 52.6146 339.116 48.8466C339.116 45.0743 336.04 42 332.269 42C328.501 42 325.423 45.0757 325.423 48.8466C325.421 52.6146 328.501 55.6932 332.269 55.6932ZM318.253 62.6155H309.931C305.479 62.6155 301.703 65.6534 300.573 69.7587C303.862 69.305 307.32 69.8954 310.412 71.6798C314.407 73.9877 316.982 77.8138 317.836 82.0137H323.97C326.159 82.0137 327.952 80.2206 327.952 78.032V72.3139C327.953 66.9811 323.588 62.6155 318.253 62.6155ZM314.09 59.0569C317.862 59.0569 320.936 55.9783 320.936 52.2103C320.936 48.438 317.861 45.3637 314.09 45.3637C310.319 45.3637 307.243 48.4394 307.243 52.2103C307.243 55.9783 310.318 59.0569 314.09 59.0569ZM314 91.619C310.389 97.8723 302.392 100.016 296.137 96.405C289.888 92.7941 287.745 84.8001 291.356 78.5468C294.962 72.2935 302.96 70.1499 309.214 73.7608C315.467 77.3732 317.611 85.3658 314 91.619ZM309.605 80.7078C309.493 80.5961 309.361 80.5075 309.215 80.447C309.07 80.3866 308.913 80.3555 308.756 80.3555C308.598 80.3555 308.442 80.3866 308.296 80.447C308.15 80.5075 308.018 80.5961 307.906 80.7078L301.698 86.916L297.447 82.6623C296.978 82.1926 296.214 82.1926 295.749 82.6623C295.637 82.7737 295.549 82.9061 295.488 83.0519C295.428 83.1976 295.396 83.3538 295.396 83.5116C295.396 83.6694 295.428 83.8256 295.488 83.9713C295.549 84.117 295.637 84.2494 295.749 84.3609L300.847 89.4595C300.959 89.5712 301.091 89.6598 301.237 89.7202C301.383 89.7807 301.539 89.8118 301.697 89.8118C301.854 89.8118 302.011 89.7807 302.156 89.7202C302.302 89.6598 302.435 89.5712 302.546 89.4595L309.603 82.4064C309.828 82.1806 309.953 81.8755 309.954 81.5574C309.954 81.2393 309.829 80.9339 309.605 80.7078ZM295.998 99.043C295.636 98.8723 295.283 98.6865 294.937 98.486C294.591 98.2839 294.252 98.0701 293.924 97.8476L292.749 99.8879C292.74 99.9039 292.728 99.9213 292.72 99.9373C292.131 99.8006 291.495 100.052 291.178 100.605L283.927 111.707C283.325 112.754 283.689 114.102 284.731 114.708C285.778 115.31 287.131 114.951 287.733 113.904L294.984 102.802C295.301 102.25 295.202 101.573 294.79 101.133C294.804 101.112 294.811 101.096 294.824 101.079L295.998 99.043Z" fill="url(#paint2_linear_1886_86728)"/>
</g>
</g>
<defs>
<linearGradient id="paint0_linear_1886_86728" x1="325.371" y1="106.634" x2="349.143" y2="48.5046" gradientUnits="userSpaceOnUse">
<stop stop-color="#7ACCA1"/>
<stop offset="1" stop-color="#E6DDFF"/>
</linearGradient>
<linearGradient id="paint1_linear_1886_86728" x1="295.566" y1="113" x2="342.697" y2="-13.963" gradientUnits="userSpaceOnUse">
<stop stop-color="#7ACCA1"/>
<stop offset="1" stop-color="#E6DDFF"/>
</linearGradient>
<linearGradient id="paint2_linear_1886_86728" x1="296.066" y1="131.345" x2="350.567" y2="-29.4403" gradientUnits="userSpaceOnUse">
<stop stop-color="#7ACCA1"/>
<stop offset="1" stop-color="#E6DDFF"/>
</linearGradient>
<clipPath id="clip0_1886_86728">
<rect width="142" height="142" fill="white" transform="translate(242.25)"/>
</clipPath>
<clipPath id="clip1_1886_86728">
<rect width="142" height="142" fill="white" transform="translate(242.25 140)"/>
</clipPath>
<clipPath id="clip2_1886_86728">
<rect width="142" height="142" fill="white" transform="translate(242.75)"/>
</clipPath>
</defs>
</svg>
