<svg width="1529" height="1529" viewBox="0 0 1529 1529" fill="none" xmlns="http://www.w3.org/2000/svg">
<path d="M133.044 337.244C117.935 370.188 167.858 526.361 194.708 600.329C169.268 634.295 138.341 869.544 223.852 1050.59C492.436 1619.25 1120.88 1361.71 1284.52 1063.23C1332.91 1008.25 1399.52 995.009 1471.38 978.66C1436.35 870.907 1318.47 835.872 1273.11 827.257C1203.52 814.039 1122.61 844.265 1072.6 892.433C944.668 1120.44 626.628 1198.59 476.679 910.94C342.756 498.943 807.944 400.992 959.697 545.088C982.994 516.491 1049.03 434.755 1067.3 327.901C1071.41 233.496 1033.95 132.234 1000.65 91.6649C965.741 95.0692 851.923 123.75 788.348 225.15C661.284 200.296 411.816 283.07 343.685 362.683C283.066 344.544 148.152 304.3 133.044 337.244Z" fill="#FDD674"/>
<path d="M133.172 337.54C117.965 370.509 182.258 497.214 209.112 571.159C182.744 615.69 137.805 869.914 223.398 1050.88C468.961 1570.06 1016.75 1399.44 1235.24 1138.34C1033.37 1237.75 845.933 1151.07 777.445 1095.3C665.007 1104.7 550.876 1051.71 477.337 910.881C343.45 498.994 810.48 400.43 962.608 544.353C986.028 515.721 1052.41 433.888 1070.88 326.994C1075.13 232.57 1037.66 131.341 1004.29 90.8082C969.253 94.2579 854.978 123.09 791.038 224.586C663.538 199.892 465.312 259.877 396.828 339.59C336.009 321.526 148.379 304.572 133.172 337.54Z" fill="url(#paint0_linear_1669_68307)" fill-opacity="0.5"/>
<defs>
<linearGradient id="paint0_linear_1669_68307" x1="342.218" y1="605.89" x2="2010.23" y2="1725.66" gradientUnits="userSpaceOnUse">
<stop stop-color="#FDD674"/>
<stop offset="0.608803" stop-color="#EF9422"/>
</linearGradient>
</defs>
</svg>
